{"glyphs":{"0":{"ha":685,"x_min":53,"x_max":632,"o":"m 301 0 l 301 68 q 191 149 240 72 q 125 460 125 258 l 125 533 q 222 837 129 741 q 302 879 263 876 l 302 947 q 111 802 179 941 q 53 479 53 680 q 220 23 53 111 q 301 0 259 3 m 384 0 q 572 140 506 5 q 632 479 632 264 q 484 913 632 811 q 382 947 437 944 l 382 879 q 495 796 444 875 q 562 533 562 693 l 562 460 q 400 72 562 117 q 384 68 392 69 l 384 0 z "},"1":{"ha":237,"x_min":53,"x_max":186,"o":"m 53 827 l 53 899 l 113 949 l 186 949 l 186 0 l 113 0 l 113 827 l 53 827 z "},"2":{"ha":689,"x_min":54,"x_max":637,"o":"m 54 705 q 151 892 64 819 q 293 949 212 943 l 293 882 q 203 848 250 882 q 118 692 134 795 l 54 705 m 80 0 l 80 69 l 628 69 l 628 0 l 80 0 m 80 127 q 354 454 80 326 q 373 463 361 457 q 397 475 392 472 q 532 568 498 526 q 567 671 567 614 q 357 882 555 875 l 357 949 q 617 792 559 949 q 636 671 637 738 q 524 471 635 547 q 479 444 503 457 q 425 416 464 435 q 224 288 279 346 q 155 127 155 216 l 80 127 z "},"3":{"ha":689,"x_min":54,"x_max":636,"o":"m 368 -4 l 368 62 q 549 164 503 64 q 567 256 567 205 q 353 439 563 438 l 353 505 q 567 688 566 506 q 458 865 567 822 q 368 882 418 882 l 368 949 q 597 836 525 949 q 636 690 636 772 q 530 472 635 543 q 636 254 633 393 q 529 41 636 110 q 368 -4 461 -4 m 54 239 l 118 252 q 254 71 140 109 q 293 62 277 62 l 293 -4 q 96 114 167 4 q 54 239 60 172 m 54 705 q 151 892 64 819 q 293 949 212 943 l 293 882 q 203 848 250 882 q 118 692 134 795 l 54 705 z "},"4":{"ha":678,"x_min":39,"x_max":625,"o":"m 39 197 l 39 264 l 416 905 l 416 779 l 115 264 l 416 264 l 416 197 l 39 197 m 479 0 l 479 951 l 552 951 l 552 264 l 625 264 l 625 197 l 552 197 l 552 0 l 479 0 z "},"5":{"ha":705,"x_min":54,"x_max":652,"o":"m 56 480 l 95 949 l 575 949 l 575 882 l 159 880 l 132 548 q 302 606 213 606 l 302 540 q 122 439 194 538 l 56 480 m 365 0 l 365 66 q 513 133 446 69 q 585 304 585 201 q 463 515 585 456 q 365 540 414 538 l 365 606 q 612 468 536 606 q 652 302 652 393 q 529 53 652 137 q 365 0 454 3 m 54 157 l 115 187 q 258 73 164 94 q 301 68 278 69 l 301 0 q 94 94 175 0 q 54 157 69 123 z "},"6":{"ha":719,"x_min":53,"x_max":667,"o":"m 332 -1 l 332 66 q 161 193 212 68 q 142 286 142 243 q 221 472 142 410 q 332 509 269 507 l 332 576 q 137 477 202 576 q 123 454 129 465 q 302 871 123 817 q 332 878 317 875 l 332 945 q 72 665 130 928 q 53 475 53 576 q 189 43 53 140 q 332 -1 248 1 m 407 -1 q 601 94 524 0 q 667 288 667 176 q 568 524 667 444 q 407 576 500 576 l 407 511 q 557 429 503 509 q 597 286 597 370 q 534 126 597 194 q 407 66 481 68 l 407 -1 m 572 766 l 631 806 q 492 932 587 897 q 406 947 449 947 l 406 879 q 566 781 513 879 q 572 766 570 773 z "},"7":{"ha":597,"x_min":53,"x_max":594,"o":"m 594 880 l 53 879 l 53 949 l 594 949 l 594 880 m 285 0 q 458 708 320 389 q 510 818 483 766 l 586 818 q 363 35 412 494 q 361 0 362 16 l 285 0 z "},"8":{"ha":699,"x_min":53,"x_max":647,"o":"m 312 0 q 103 106 179 0 q 53 264 53 178 q 163 473 54 411 q 57 677 58 544 q 141 876 57 793 q 316 947 216 947 l 316 879 q 149 770 197 873 q 129 678 129 727 q 213 530 129 575 q 315 507 256 509 l 315 439 q 133 340 172 437 q 121 271 121 309 q 232 87 121 134 q 312 68 269 71 l 312 0 m 387 0 l 387 68 q 553 165 505 75 q 578 271 578 212 q 442 434 578 406 q 385 439 414 439 l 385 507 q 557 609 517 509 q 571 678 571 642 q 503 833 571 774 q 384 879 454 875 l 384 947 q 586 844 509 947 q 642 677 642 768 q 536 473 640 543 q 647 264 647 408 q 560 65 647 144 q 387 0 487 0 z "},"9":{"ha":716,"x_min":53,"x_max":663,"o":"m 380 3 q 635 239 567 0 q 663 463 663 343 q 526 907 663 811 q 380 949 465 949 l 380 879 q 545 766 491 876 q 571 665 571 715 q 449 453 571 494 q 380 442 416 442 l 380 372 q 579 464 514 372 q 593 483 591 481 q 465 100 593 191 q 380 71 423 72 l 380 3 m 319 372 l 319 442 q 142 549 190 444 q 121 658 121 598 q 179 814 121 746 q 319 879 235 876 l 319 949 q 125 856 205 948 q 53 658 53 772 q 176 406 53 476 q 319 372 237 372 m 77 155 q 232 16 127 54 q 319 1 274 1 l 319 71 q 163 148 227 72 q 134 191 145 170 l 77 155 z "},"A":{"ha":600,"x_min":41,"x_max":560,"o":"m 41 0 l 225 810 l 248 810 l 270 707 l 113 0 l 41 0 m 213 175 l 228 244 l 435 244 l 281 948 l 353 948 l 560 0 l 488 0 l 452 175 l 213 175 z "},"Æ":{"ha":986,"x_min":100,"x_max":951,"o":"m 100 0 l 345 949 l 951 949 l 951 879 l 589 879 l 589 507 l 823 507 l 823 437 l 589 437 l 589 69 l 951 69 l 951 0 l 517 0 l 517 248 l 305 248 l 321 316 l 517 316 l 517 879 l 403 879 l 179 0 l 100 0 z "},"Á":{"ha":600,"x_min":41,"x_max":560,"o":"m 294 1039 l 345 1245 l 414 1245 l 343 1039 l 294 1039 m 41 0 l 225 810 l 248 810 l 270 707 l 113 0 l 41 0 m 213 175 l 228 244 l 435 244 l 281 948 l 353 948 l 560 0 l 488 0 l 452 175 l 213 175 z "},"Ă":{"ha":600,"x_min":41,"x_max":560,"o":"m 227 1128 l 275 1128 q 305 1086 275 1096 q 319 1085 313 1085 q 361 1115 351 1085 q 362 1128 362 1123 l 411 1128 q 374 1058 411 1086 q 319 1039 349 1039 q 235 1095 260 1039 q 227 1128 227 1114 m 41 0 l 225 810 l 248 810 l 270 707 l 113 0 l 41 0 m 213 175 l 228 244 l 435 244 l 281 948 l 353 948 l 560 0 l 488 0 l 452 175 l 213 175 z "},"Â":{"ha":600,"x_min":41,"x_max":560,"o":"m 193 1039 l 294 1245 l 343 1245 l 446 1039 l 389 1039 l 319 1183 l 250 1039 l 193 1039 m 41 0 l 225 810 l 248 810 l 270 707 l 113 0 l 41 0 m 213 175 l 228 244 l 435 244 l 281 948 l 353 948 l 560 0 l 488 0 l 452 175 l 213 175 z "},"Ä":{"ha":600,"x_min":41,"x_max":560,"o":"m 198 1084 q 228 1126 198 1114 q 244 1128 236 1128 q 288 1096 278 1128 q 289 1084 289 1090 q 258 1040 289 1050 q 244 1039 251 1039 q 201 1069 212 1039 q 198 1084 198 1077 m 347 1084 q 377 1126 347 1114 q 393 1128 385 1128 q 437 1096 427 1128 q 438 1084 438 1090 q 407 1040 438 1050 q 393 1039 400 1039 q 350 1069 361 1039 q 347 1084 347 1077 m 41 0 l 225 810 l 248 810 l 270 707 l 113 0 l 41 0 m 213 175 l 228 244 l 435 244 l 281 948 l 353 948 l 560 0 l 488 0 l 452 175 l 213 175 z "},"À":{"ha":600,"x_min":41,"x_max":560,"o":"m 220 1245 l 290 1245 l 340 1039 l 290 1039 l 220 1245 m 41 0 l 225 810 l 248 810 l 270 707 l 113 0 l 41 0 m 213 175 l 228 244 l 435 244 l 281 948 l 353 948 l 560 0 l 488 0 l 452 175 l 213 175 z "},"Ā":{"ha":600,"x_min":41,"x_max":560,"o":"m 104 1039 l 104 1088 l 533 1088 l 533 1039 l 104 1039 m 41 0 l 225 810 l 248 810 l 270 707 l 113 0 l 41 0 m 213 175 l 228 244 l 435 244 l 281 948 l 353 948 l 560 0 l 488 0 l 452 175 l 213 175 z "},"Ą":{"ha":600,"x_min":41,"x_max":699,"o":"m 699 -239 q 521 -137 571 -239 q 502 -54 502 -96 l 566 -54 q 635 -164 566 -133 q 699 -178 665 -178 l 699 -239 m 41 0 l 225 810 l 248 810 l 270 707 l 113 0 l 41 0 m 213 175 l 228 244 l 435 244 l 281 948 l 353 948 l 560 0 l 488 0 l 452 175 l 213 175 z "},"Å":{"ha":700,"x_min":92,"x_max":609,"o":"m 92 0 l 277 810 l 298 810 l 321 707 l 164 0 l 92 0 m 264 175 l 278 244 l 486 244 l 332 943 q 267 1006 283 956 q 262 1038 262 1023 q 316 1127 262 1100 q 363 1139 339 1139 q 454 1086 425 1139 q 467 1038 467 1063 q 414 948 467 977 q 404 944 408 945 l 609 0 l 538 0 l 502 175 l 264 175 m 313 1038 q 347 990 313 1002 q 363 987 355 987 q 412 1023 403 987 q 415 1038 415 1031 q 381 1086 415 1074 q 363 1089 372 1089 q 317 1057 330 1089 q 313 1038 313 1047 z "},"Ã":{"ha":600,"x_min":41,"x_max":560,"o":"m 127 1061 l 127 1124 q 222 1154 180 1154 q 319 1123 256 1154 q 400 1099 366 1099 q 509 1137 448 1100 l 509 1074 q 395 1036 446 1036 q 294 1067 358 1036 q 217 1090 248 1090 q 127 1061 175 1089 m 41 0 l 225 810 l 248 810 l 270 707 l 113 0 l 41 0 m 213 175 l 228 244 l 435 244 l 281 948 l 353 948 l 560 0 l 488 0 l 452 175 l 213 175 z "},"B":{"ha":690,"x_min":53,"x_max":637,"o":"m 53 0 l 125 0 l 125 949 l 53 949 l 53 0 m 187 -1 l 351 -1 q 581 104 499 -1 q 637 277 637 179 q 562 458 637 389 q 540 477 551 468 q 633 658 627 543 q 633 675 633 667 q 549 876 633 798 q 346 949 471 949 l 187 949 l 187 883 l 340 883 q 536 774 477 883 q 562 674 562 726 q 378 510 559 511 l 187 510 l 187 444 l 378 444 q 564 304 549 444 q 566 278 566 292 q 476 109 566 167 q 301 65 407 65 l 187 65 l 187 -1 z "},"C":{"ha":696,"x_min":54,"x_max":646,"o":"m 54 245 q 113 92 54 167 q 326 -7 191 -5 l 326 62 q 151 163 209 62 q 126 245 126 208 l 126 703 q 178 822 126 765 q 326 887 236 886 l 326 956 q 92 827 170 958 q 54 703 54 762 l 54 245 m 388 -7 q 578 77 499 -7 q 646 247 646 152 l 581 262 q 578 237 581 248 q 570 194 575 213 q 507 104 552 137 q 425 68 461 72 l 388 62 l 388 -7 m 388 887 q 431 879 388 887 q 570 743 532 846 q 578 705 576 722 l 578 682 l 646 700 q 559 884 646 804 q 388 956 480 956 l 388 887 z "},"Ć":{"ha":696,"x_min":54,"x_max":646,"o":"m 365 1039 l 415 1245 l 484 1245 l 414 1039 l 365 1039 m 54 245 q 113 92 54 167 q 326 -7 191 -5 l 326 62 q 151 163 209 62 q 126 245 126 208 l 126 703 q 178 822 126 765 q 326 887 236 886 l 326 956 q 92 827 170 958 q 54 703 54 762 l 54 245 m 388 -7 q 578 77 499 -7 q 646 247 646 152 l 581 262 q 578 237 581 248 q 570 194 575 213 q 507 104 552 137 q 425 68 461 72 l 388 62 l 388 -7 m 388 887 q 431 879 388 887 q 570 743 532 846 q 578 705 576 722 l 578 682 l 646 700 q 559 884 646 804 q 388 956 480 956 l 388 887 z "},"Č":{"ha":696,"x_min":54,"x_max":646,"o":"m 228 1245 l 285 1245 l 355 1101 l 425 1245 l 481 1245 l 380 1039 l 331 1039 l 228 1245 m 54 245 q 113 92 54 167 q 326 -7 191 -5 l 326 62 q 151 163 209 62 q 126 245 126 208 l 126 703 q 178 822 126 765 q 326 887 236 886 l 326 956 q 92 827 170 958 q 54 703 54 762 l 54 245 m 388 -7 q 578 77 499 -7 q 646 247 646 152 l 581 262 q 578 237 581 248 q 570 194 575 213 q 507 104 552 137 q 425 68 461 72 l 388 62 l 388 -7 m 388 887 q 431 879 388 887 q 570 743 532 846 q 578 705 576 722 l 578 682 l 646 700 q 559 884 646 804 q 388 956 480 956 l 388 887 z "},"Ç":{"ha":696,"x_min":54,"x_max":646,"o":"m 190 -240 l 190 -179 q 308 -117 273 -179 q 323 -56 323 -88 l 387 -56 q 320 -198 387 -144 q 190 -240 267 -240 m 54 245 q 113 92 54 167 q 326 -7 191 -5 l 326 62 q 151 163 209 62 q 126 245 126 208 l 126 703 q 178 822 126 765 q 326 887 236 886 l 326 956 q 92 827 170 958 q 54 703 54 762 l 54 245 m 388 -7 q 578 77 499 -7 q 646 247 646 152 l 581 262 q 578 237 581 248 q 570 194 575 213 q 507 104 552 137 q 425 68 461 72 l 388 62 l 388 -7 m 388 887 q 431 879 388 887 q 570 743 532 846 q 578 705 576 722 l 578 682 l 646 700 q 559 884 646 804 q 388 956 480 956 l 388 887 z "},"D":{"ha":640,"x_min":54,"x_max":586,"o":"m 54 0 l 54 949 l 126 949 l 126 0 l 54 0 m 190 0 l 190 69 q 420 98 357 69 q 514 267 513 142 l 514 682 q 392 863 514 826 q 190 880 335 879 l 190 949 q 471 907 389 949 q 586 682 585 846 l 586 267 q 427 23 586 73 q 190 0 353 0 z "},"Ď":{"ha":640,"x_min":54,"x_max":586,"o":"m 195 1245 l 252 1245 l 323 1101 l 392 1245 l 449 1245 l 347 1039 l 298 1039 l 195 1245 m 54 0 l 54 949 l 126 949 l 126 0 l 54 0 m 190 0 l 190 69 q 420 98 357 69 q 514 267 513 142 l 514 682 q 392 863 514 826 q 190 880 335 879 l 190 949 q 471 907 389 949 q 586 682 585 846 l 586 267 q 427 23 586 73 q 190 0 353 0 z "},"Đ":{"ha":621,"x_min":35,"x_max":643,"o":"m 35 446 l 35 514 l 111 514 l 111 949 l 183 949 l 183 514 l 259 514 l 259 446 l 183 446 l 183 0 l 111 0 l 111 446 l 35 446 m 245 0 l 245 69 q 477 98 414 69 q 571 267 570 142 l 571 682 q 450 863 571 826 q 245 880 392 879 l 245 949 q 528 907 445 949 q 643 682 642 846 l 643 267 q 483 23 643 73 q 245 0 407 0 z "},"E":{"ha":602,"x_min":54,"x_max":548,"o":"m 54 0 l 54 949 l 548 949 l 548 880 l 126 880 l 126 509 l 420 509 l 420 438 l 126 438 l 126 69 l 548 69 l 548 0 l 54 0 z "},"É":{"ha":602,"x_min":54,"x_max":548,"o":"m 326 1039 l 376 1245 l 445 1245 l 374 1039 l 326 1039 m 54 0 l 54 949 l 548 949 l 548 880 l 126 880 l 126 509 l 420 509 l 420 438 l 126 438 l 126 69 l 548 69 l 548 0 l 54 0 z "},"Ě":{"ha":602,"x_min":54,"x_max":548,"o":"m 176 1245 l 233 1245 l 304 1101 l 373 1245 l 430 1245 l 328 1039 l 279 1039 l 176 1245 m 54 0 l 54 949 l 548 949 l 548 880 l 126 880 l 126 509 l 420 509 l 420 438 l 126 438 l 126 69 l 548 69 l 548 0 l 54 0 z "},"Ê":{"ha":602,"x_min":54,"x_max":548,"o":"m 176 1039 l 278 1245 l 327 1245 l 430 1039 l 373 1039 l 302 1183 l 233 1039 l 176 1039 m 54 0 l 54 949 l 548 949 l 548 880 l 126 880 l 126 509 l 420 509 l 420 438 l 126 438 l 126 69 l 548 69 l 548 0 l 54 0 z "},"Ë":{"ha":602,"x_min":54,"x_max":548,"o":"m 183 1084 q 213 1126 183 1114 q 229 1128 221 1128 q 273 1096 263 1128 q 274 1084 274 1090 q 243 1040 274 1050 q 229 1039 236 1039 q 186 1069 197 1039 q 183 1084 183 1077 m 332 1084 q 362 1126 332 1114 q 378 1128 370 1128 q 422 1096 412 1128 q 423 1084 423 1090 q 392 1040 423 1050 q 378 1039 385 1039 q 335 1069 346 1039 q 332 1084 332 1077 m 54 0 l 54 949 l 548 949 l 548 880 l 126 880 l 126 509 l 420 509 l 420 438 l 126 438 l 126 69 l 548 69 l 548 0 l 54 0 z "},"Ė":{"ha":602,"x_min":54,"x_max":548,"o":"m 255 1088 q 288 1135 255 1123 q 304 1138 296 1138 q 350 1104 338 1138 q 353 1088 353 1096 q 321 1042 353 1054 q 304 1039 312 1039 q 258 1070 270 1039 q 255 1088 255 1080 m 54 0 l 54 949 l 548 949 l 548 880 l 126 880 l 126 509 l 420 509 l 420 438 l 126 438 l 126 69 l 548 69 l 548 0 l 54 0 z "},"È":{"ha":602,"x_min":54,"x_max":548,"o":"m 205 1245 l 275 1245 l 326 1039 l 275 1039 l 205 1245 m 54 0 l 54 949 l 548 949 l 548 880 l 126 880 l 126 509 l 420 509 l 420 438 l 126 438 l 126 69 l 548 69 l 548 0 l 54 0 z "},"Ē":{"ha":602,"x_min":54,"x_max":548,"o":"m 90 1039 l 90 1088 l 518 1088 l 518 1039 l 90 1039 m 54 0 l 54 949 l 548 949 l 548 880 l 126 880 l 126 509 l 420 509 l 420 438 l 126 438 l 126 69 l 548 69 l 548 0 l 54 0 z "},"Ę":{"ha":602,"x_min":54,"x_max":559,"o":"m 559 -239 l 559 -178 q 441 -115 476 -178 q 426 -54 426 -87 l 362 -54 q 429 -197 362 -142 q 559 -239 481 -239 m 54 0 l 54 949 l 548 949 l 548 880 l 126 880 l 126 509 l 420 509 l 420 438 l 126 438 l 126 69 l 548 69 l 548 0 l 54 0 z "},"Ð":{"ha":621,"x_min":35,"x_max":643,"o":"m 35 446 l 35 514 l 111 514 l 111 949 l 183 949 l 183 514 l 259 514 l 259 446 l 183 446 l 183 0 l 111 0 l 111 446 l 35 446 m 245 0 l 245 69 q 477 98 414 69 q 571 267 570 142 l 571 682 q 450 863 571 826 q 245 880 392 879 l 245 949 q 528 907 445 949 q 643 682 642 846 l 643 267 q 483 23 643 73 q 245 0 407 0 z "},"€":{"ha":682,"x_min":69,"x_max":711,"o":"m 69 378 l 69 430 l 122 430 l 122 511 l 69 511 l 69 563 l 122 563 l 122 699 q 183 857 122 781 q 391 955 262 955 l 391 886 q 220 787 275 886 q 194 701 194 742 l 194 563 l 555 563 l 555 511 l 194 511 l 194 430 l 555 430 l 555 378 l 194 378 l 194 250 q 248 122 194 180 q 391 64 305 64 l 391 -5 q 161 122 237 -4 q 122 245 123 184 l 122 378 l 69 378 m 454 -5 l 454 64 q 560 98 507 64 q 636 199 617 136 q 647 266 646 233 l 711 248 q 617 56 711 133 q 454 -5 543 -5 m 454 886 l 454 955 q 643 867 562 956 q 711 700 711 791 l 644 680 q 636 739 644 716 q 484 882 595 857 q 454 886 465 886 z "},"F":{"ha":600,"x_min":54,"x_max":548,"o":"m 54 1 l 54 949 l 548 949 l 548 880 l 126 880 l 126 509 l 420 509 l 420 438 l 126 438 l 126 1 l 54 1 z "},"G":{"ha":697,"x_min":54,"x_max":644,"o":"m 54 260 l 54 711 q 117 860 56 787 q 324 956 198 956 l 324 887 q 168 808 229 886 q 126 689 126 754 l 126 260 q 240 87 126 146 q 324 62 289 62 l 324 -7 q 161 50 240 -7 q 54 260 56 129 m 387 -7 l 387 62 q 503 119 441 62 q 571 258 570 183 l 571 411 l 387 411 l 387 479 l 644 479 l 644 239 q 560 75 644 156 q 387 -7 475 -5 m 387 887 l 387 956 q 574 868 492 958 q 644 700 644 791 l 574 674 q 572 700 574 694 q 460 867 563 814 q 387 887 419 887 z "},"Ğ":{"ha":697,"x_min":54,"x_max":644,"o":"m 262 1128 l 311 1128 q 340 1086 311 1096 q 354 1085 349 1085 q 396 1115 387 1085 q 397 1128 397 1123 l 446 1128 q 410 1058 446 1086 q 354 1039 384 1039 q 270 1095 296 1039 q 262 1128 262 1114 m 54 260 l 54 711 q 117 860 56 787 q 324 956 198 956 l 324 887 q 168 808 229 886 q 126 689 126 754 l 126 260 q 240 87 126 146 q 324 62 289 62 l 324 -7 q 161 50 240 -7 q 54 260 56 129 m 387 -7 l 387 62 q 503 119 441 62 q 571 258 570 183 l 571 411 l 387 411 l 387 479 l 644 479 l 644 239 q 560 75 644 156 q 387 -7 475 -5 m 387 887 l 387 956 q 574 868 492 958 q 644 700 644 791 l 574 674 q 572 700 574 694 q 460 867 563 814 q 387 887 419 887 z "},"H":{"ha":647,"x_min":54,"x_max":593,"o":"m 54 0 l 54 949 l 126 949 l 126 513 l 292 513 l 292 444 l 126 444 l 126 0 l 54 0 m 355 444 l 355 513 l 521 513 l 521 949 l 593 949 l 593 0 l 521 0 l 521 444 l 355 444 z "},"I":{"ha":186,"x_min":57,"x_max":129,"o":"m 57 0 l 57 949 l 129 949 l 129 0 l 57 0 z "},"Í":{"ha":186,"x_min":57,"x_max":187,"o":"m 68 1039 l 118 1245 l 187 1245 l 117 1039 l 68 1039 m 57 0 l 57 949 l 129 949 l 129 0 l 57 0 z "},"Î":{"ha":186,"x_min":-34,"x_max":220,"o":"m -34 1039 l 68 1245 l 117 1245 l 220 1039 l 163 1039 l 92 1183 l 23 1039 l -34 1039 m 57 0 l 57 949 l 129 949 l 129 0 l 57 0 z "},"Ï":{"ha":186,"x_min":-27,"x_max":213,"o":"m -27 1084 q 3 1126 -27 1114 q 19 1128 11 1128 q 62 1096 53 1128 q 64 1084 64 1089 q 33 1040 64 1050 q 19 1039 26 1039 q -24 1069 -14 1039 q -27 1084 -27 1077 m 122 1084 q 152 1126 122 1114 q 168 1128 160 1128 q 212 1096 202 1128 q 213 1084 213 1090 q 182 1040 213 1050 q 168 1039 175 1039 q 125 1069 136 1039 q 122 1084 122 1077 m 57 0 l 57 949 l 129 949 l 129 0 l 57 0 z "},"İ":{"ha":186,"x_min":45,"x_max":142,"o":"m 45 1088 q 77 1135 45 1123 q 94 1138 85 1138 q 140 1104 127 1138 q 142 1088 142 1096 q 111 1042 142 1054 q 94 1039 102 1039 q 47 1070 60 1039 q 45 1088 45 1080 m 57 0 l 57 949 l 129 949 l 129 0 l 57 0 z "},"Ì":{"ha":186,"x_min":-4,"x_max":129,"o":"m -4 1245 l 66 1245 l 117 1039 l 66 1039 l -4 1245 m 57 0 l 57 949 l 129 949 l 129 0 l 57 0 z "},"Ī":{"ha":186,"x_min":-121,"x_max":308,"o":"m -121 1039 l -121 1088 l 308 1088 l 308 1039 l -121 1039 m 57 0 l 57 949 l 129 949 l 129 0 l 57 0 z "},"Į":{"ha":186,"x_min":57,"x_max":258,"o":"m 258 -237 q 80 -136 130 -237 q 61 -53 61 -95 l 125 -53 q 194 -163 125 -132 q 258 -176 224 -176 l 258 -237 m 57 0 l 57 949 l 129 949 l 129 0 l 57 0 z "},"J":{"ha":671,"x_min":26,"x_max":618,"o":"m 26 262 l 26 328 l 98 328 l 98 270 q 199 91 99 152 q 285 64 245 64 l 285 -7 q 133 50 210 -7 q 26 262 27 132 m 349 -7 l 349 64 q 464 109 401 64 q 547 262 545 171 l 547 949 l 618 949 l 618 262 q 483 34 618 111 q 349 -7 412 -7 z "},"K":{"ha":666,"x_min":54,"x_max":639,"o":"m 54 0 l 54 949 l 126 949 l 126 0 l 54 0 m 187 463 l 551 949 l 633 949 l 270 463 l 639 0 l 556 0 l 187 463 z "},"L":{"ha":591,"x_min":54,"x_max":564,"o":"m 54 0 l 54 949 l 126 949 l 126 69 l 564 69 l 564 0 l 54 0 z "},"Ĺ":{"ha":591,"x_min":54,"x_max":564,"o":"m 68 1039 l 118 1245 l 187 1245 l 117 1039 l 68 1039 m 54 0 l 54 949 l 126 949 l 126 69 l 564 69 l 564 0 l 54 0 z "},"Ľ":{"ha":591,"x_min":54,"x_max":564,"o":"m 216 750 l 266 956 l 335 956 l 285 750 l 216 750 m 54 0 l 54 949 l 126 949 l 126 69 l 564 69 l 564 0 l 54 0 z "},"Ł":{"ha":598,"x_min":65,"x_max":685,"o":"m 65 373 l 175 458 l 175 949 l 247 949 l 247 513 l 340 586 l 384 532 l 247 427 l 247 69 l 685 69 l 685 0 l 175 0 l 175 372 l 107 319 l 65 373 z "},"M":{"ha":944,"x_min":57,"x_max":887,"o":"m 57 0 l 57 726 l 69 726 l 129 579 l 129 0 l 57 0 m 57 907 l 57 949 l 119 949 l 465 111 l 739 730 l 753 730 l 753 581 l 496 0 l 434 0 l 57 907 m 815 0 l 815 949 l 887 949 l 887 0 l 815 0 z "},"N":{"ha":718,"x_min":57,"x_max":661,"o":"m 57 0 l 57 789 l 68 789 l 129 690 l 129 0 l 57 0 m 57 905 l 57 949 l 123 949 l 661 92 l 661 0 l 624 0 l 57 905 m 589 311 l 589 949 l 661 949 l 661 210 l 650 210 l 589 311 z "},"Ń":{"ha":718,"x_min":57,"x_max":661,"o":"m 334 1039 l 384 1245 l 453 1245 l 382 1039 l 334 1039 m 57 0 l 57 789 l 68 789 l 129 690 l 129 0 l 57 0 m 57 905 l 57 949 l 123 949 l 661 92 l 661 0 l 624 0 l 57 905 m 589 311 l 589 949 l 661 949 l 661 210 l 650 210 l 589 311 z "},"Ň":{"ha":718,"x_min":57,"x_max":661,"o":"m 232 1245 l 289 1245 l 359 1101 l 429 1245 l 486 1245 l 384 1039 l 335 1039 l 232 1245 m 57 0 l 57 789 l 68 789 l 129 690 l 129 0 l 57 0 m 57 905 l 57 949 l 123 949 l 661 92 l 661 0 l 624 0 l 57 905 m 589 311 l 589 949 l 661 949 l 661 210 l 650 210 l 589 311 z "},"Ñ":{"ha":718,"x_min":57,"x_max":661,"o":"m 168 1063 l 168 1127 q 263 1157 221 1157 q 359 1126 297 1157 q 441 1101 407 1101 q 549 1139 488 1103 l 549 1077 q 435 1039 487 1039 q 335 1070 399 1039 q 258 1093 289 1093 q 168 1063 216 1092 m 57 0 l 57 789 l 68 789 l 129 690 l 129 0 l 57 0 m 57 905 l 57 949 l 123 949 l 661 92 l 661 0 l 624 0 l 57 905 m 589 311 l 589 949 l 661 949 l 661 210 l 650 210 l 589 311 z "},"O":{"ha":715,"x_min":54,"x_max":662,"o":"m 54 264 l 54 711 q 115 857 54 783 q 321 956 197 955 l 321 886 q 160 789 222 886 q 126 689 126 736 l 126 264 q 224 98 126 160 q 320 64 277 64 l 320 -7 q 165 49 243 -7 q 54 264 56 130 m 395 -7 l 395 64 q 519 118 458 64 q 590 264 589 179 l 590 689 q 534 821 590 758 q 395 886 476 884 l 395 956 q 614 838 532 956 q 662 711 662 770 l 662 264 q 528 34 662 114 q 395 -7 457 -7 z "},"Œ":{"ha":625,"x_min":-27,"x_max":947,"o":"m -27 267 l -27 685 q 104 921 -27 871 q 343 949 178 949 l 343 880 q 141 859 194 879 q 45 682 46 819 l 45 267 q 149 90 45 126 q 343 71 205 71 l 343 0 q 95 31 165 0 q -27 267 -26 87 m 407 0 l 407 71 l 453 71 l 453 880 l 407 880 l 407 949 l 947 949 l 947 880 l 525 880 l 525 509 l 819 509 l 819 438 l 525 438 l 525 69 l 947 69 l 947 0 l 407 0 z "},"Ó":{"ha":715,"x_min":54,"x_max":662,"o":"m 331 1039 l 381 1245 l 450 1245 l 380 1039 l 331 1039 m 54 264 l 54 711 q 115 857 54 783 q 321 956 197 955 l 321 886 q 160 789 222 886 q 126 689 126 736 l 126 264 q 224 98 126 160 q 320 64 277 64 l 320 -7 q 165 49 243 -7 q 54 264 56 130 m 395 -7 l 395 64 q 519 118 458 64 q 590 264 589 179 l 590 689 q 534 821 590 758 q 395 886 476 884 l 395 956 q 614 838 532 956 q 662 711 662 770 l 662 264 q 528 34 662 114 q 395 -7 457 -7 z "},"Ô":{"ha":715,"x_min":54,"x_max":662,"o":"m 228 1039 l 330 1245 l 378 1245 l 481 1039 l 425 1039 l 354 1183 l 285 1039 l 228 1039 m 54 264 l 54 711 q 115 857 54 783 q 321 956 197 955 l 321 886 q 160 789 222 886 q 126 689 126 736 l 126 264 q 224 98 126 160 q 320 64 277 64 l 320 -7 q 165 49 243 -7 q 54 264 56 130 m 395 -7 l 395 64 q 519 118 458 64 q 590 264 589 179 l 590 689 q 534 821 590 758 q 395 886 476 884 l 395 956 q 614 838 532 956 q 662 711 662 770 l 662 264 q 528 34 662 114 q 395 -7 457 -7 z "},"Ö":{"ha":715,"x_min":54,"x_max":662,"o":"m 235 1084 q 264 1126 235 1114 q 281 1128 273 1128 q 324 1096 315 1128 q 326 1084 326 1090 q 294 1040 326 1050 q 281 1039 288 1039 q 237 1069 248 1039 q 235 1084 235 1077 m 384 1084 q 414 1126 384 1114 q 430 1128 422 1128 q 473 1096 464 1128 q 475 1084 475 1090 q 444 1040 475 1050 q 430 1039 437 1039 q 387 1069 397 1039 q 384 1084 384 1077 m 54 264 l 54 711 q 115 857 54 783 q 321 956 197 955 l 321 886 q 160 789 222 886 q 126 689 126 736 l 126 264 q 224 98 126 160 q 320 64 277 64 l 320 -7 q 165 49 243 -7 q 54 264 56 130 m 395 -7 l 395 64 q 519 118 458 64 q 590 264 589 179 l 590 689 q 534 821 590 758 q 395 886 476 884 l 395 956 q 614 838 532 956 q 662 711 662 770 l 662 264 q 528 34 662 114 q 395 -7 457 -7 z "},"Ò":{"ha":715,"x_min":54,"x_max":662,"o":"m 256 1245 l 327 1245 l 377 1039 l 327 1039 l 256 1245 m 54 264 l 54 711 q 115 857 54 783 q 321 956 197 955 l 321 886 q 160 789 222 886 q 126 689 126 736 l 126 264 q 224 98 126 160 q 320 64 277 64 l 320 -7 q 165 49 243 -7 q 54 264 56 130 m 395 -7 l 395 64 q 519 118 458 64 q 590 264 589 179 l 590 689 q 534 821 590 758 q 395 886 476 884 l 395 956 q 614 838 532 956 q 662 711 662 770 l 662 264 q 528 34 662 114 q 395 -7 457 -7 z "},"Ő":{"ha":715,"x_min":54,"x_max":662,"o":"m 399 1039 l 449 1245 l 518 1245 l 448 1039 l 399 1039 m 267 1039 l 317 1245 l 387 1245 l 316 1039 l 267 1039 m 54 264 l 54 711 q 115 857 54 783 q 321 956 197 955 l 321 886 q 160 789 222 886 q 126 689 126 736 l 126 264 q 224 98 126 160 q 320 64 277 64 l 320 -7 q 165 49 243 -7 q 54 264 56 130 m 395 -7 l 395 64 q 519 118 458 64 q 590 264 589 179 l 590 689 q 534 821 590 758 q 395 886 476 884 l 395 956 q 614 838 532 956 q 662 711 662 770 l 662 264 q 528 34 662 114 q 395 -7 457 -7 z "},"Ō":{"ha":715,"x_min":54,"x_max":662,"o":"m 141 1039 l 141 1088 l 570 1088 l 570 1039 l 141 1039 m 54 264 l 54 711 q 115 857 54 783 q 321 956 197 955 l 321 886 q 160 789 222 886 q 126 689 126 736 l 126 264 q 224 98 126 160 q 320 64 277 64 l 320 -7 q 165 49 243 -7 q 54 264 56 130 m 395 -7 l 395 64 q 519 118 458 64 q 590 264 589 179 l 590 689 q 534 821 590 758 q 395 886 476 884 l 395 956 q 614 838 532 956 q 662 711 662 770 l 662 264 q 528 34 662 114 q 395 -7 457 -7 z "},"Ø":{"ha":911,"x_min":28,"x_max":867,"o":"m 28 141 l 146 250 l 146 711 q 208 857 146 783 q 414 956 289 955 l 414 886 q 252 789 313 886 q 218 688 218 735 l 218 313 l 677 726 q 586 857 656 811 q 487 886 540 886 l 487 956 q 705 838 624 956 q 738 780 726 810 l 823 856 l 867 808 l 754 707 l 754 264 q 620 34 754 114 q 487 -7 549 -7 l 487 64 q 613 118 551 64 q 682 264 681 179 l 682 642 l 222 228 q 332 87 240 137 q 412 64 377 64 l 412 -7 q 258 50 336 -7 q 161 175 189 100 l 75 95 l 28 141 z "},"Õ":{"ha":715,"x_min":54,"x_max":662,"o":"m 164 1077 l 164 1141 q 259 1171 217 1171 q 355 1139 293 1171 q 437 1115 403 1115 q 545 1153 484 1116 l 545 1090 q 431 1053 483 1053 q 331 1084 395 1053 q 254 1107 285 1107 q 164 1077 212 1105 m 54 264 l 54 711 q 115 857 54 783 q 321 956 197 955 l 321 886 q 160 789 222 886 q 126 689 126 736 l 126 264 q 224 98 126 160 q 320 64 277 64 l 320 -7 q 165 49 243 -7 q 54 264 56 130 m 395 -7 l 395 64 q 519 118 458 64 q 590 264 589 179 l 590 689 q 534 821 590 758 q 395 886 476 884 l 395 956 q 614 838 532 956 q 662 711 662 770 l 662 264 q 528 34 662 114 q 395 -7 457 -7 z "},"P":{"ha":655,"x_min":57,"x_max":629,"o":"m 57 0 l 129 0 l 129 949 l 57 949 l 57 0 m 191 419 l 400 419 q 618 585 582 425 q 629 686 629 631 q 441 945 629 918 q 400 949 420 948 l 191 949 l 191 883 l 373 883 q 548 765 519 883 q 556 689 556 731 q 441 495 556 524 q 374 488 411 488 l 191 488 l 191 419 z "},"Q":{"ha":716,"x_min":54,"x_max":662,"o":"m 54 264 l 54 711 q 114 854 54 781 q 326 956 197 956 l 326 887 q 159 791 218 886 q 126 689 126 739 l 126 264 q 252 83 126 138 q 326 64 297 64 l 326 -7 q 161 52 241 -7 q 54 264 56 132 m 389 -7 l 389 64 q 484 96 427 64 q 589 264 587 156 l 589 689 q 529 826 589 764 q 389 887 471 886 l 389 956 q 614 838 532 958 q 662 711 662 770 l 662 264 q 471 11 661 95 l 548 -104 l 491 -145 l 389 -7 z "},"R":{"ha":689,"x_min":57,"x_max":651,"o":"m 57 0 l 57 949 l 129 949 l 129 0 l 57 0 m 191 426 l 191 494 l 382 494 q 537 601 510 494 q 547 686 547 637 q 434 878 547 845 q 353 887 399 887 l 191 887 l 191 949 l 380 949 q 618 686 617 936 q 525 460 617 515 q 628 294 618 416 l 651 0 l 581 0 l 560 241 q 503 399 549 362 q 396 426 465 427 l 191 426 z "},"Ŕ":{"ha":689,"x_min":57,"x_max":651,"o":"m 270 1039 l 320 1245 l 389 1245 l 319 1039 l 270 1039 m 57 0 l 57 949 l 129 949 l 129 0 l 57 0 m 191 426 l 191 494 l 382 494 q 537 601 510 494 q 547 686 547 637 q 434 878 547 845 q 353 887 399 887 l 191 887 l 191 949 l 380 949 q 618 686 617 936 q 525 460 617 515 q 628 294 618 416 l 651 0 l 581 0 l 560 241 q 503 399 549 362 q 396 426 465 427 l 191 426 z "},"Ř":{"ha":689,"x_min":57,"x_max":651,"o":"m 165 1245 l 222 1245 l 293 1101 l 362 1245 l 419 1245 l 317 1039 l 269 1039 l 165 1245 m 57 0 l 57 949 l 129 949 l 129 0 l 57 0 m 191 426 l 191 494 l 382 494 q 537 601 510 494 q 547 686 547 637 q 434 878 547 845 q 353 887 399 887 l 191 887 l 191 949 l 380 949 q 618 686 617 936 q 525 460 617 515 q 628 294 618 416 l 651 0 l 581 0 l 560 241 q 503 399 549 362 q 396 426 465 427 l 191 426 z "},"S":{"ha":675,"x_min":39,"x_max":637,"o":"m 39 214 l 104 237 q 250 73 129 113 q 293 64 293 64 l 293 -4 q 90 99 171 -4 q 39 214 41 161 m 50 696 q 178 914 50 841 q 293 949 239 949 l 293 882 q 190 837 244 880 q 121 690 122 779 q 267 545 121 589 q 420 511 282 540 q 464 500 448 506 q 623 372 589 463 q 637 277 637 330 q 547 76 637 161 q 355 -4 463 -4 l 355 64 q 481 118 415 64 q 566 282 564 187 q 410 441 566 397 q 266 469 397 444 q 217 481 233 476 q 73 589 107 525 q 50 696 50 633 m 355 882 l 355 949 q 557 838 477 949 q 600 750 593 789 l 532 728 q 499 800 521 769 q 453 846 477 831 q 406 870 429 861 q 369 880 384 879 l 355 882 z "},"Ś":{"ha":675,"x_min":39,"x_max":637,"o":"m 288 1039 l 338 1245 l 407 1245 l 336 1039 l 288 1039 m 39 214 l 104 237 q 250 73 129 113 q 293 64 293 64 l 293 -4 q 90 99 171 -4 q 39 214 41 161 m 50 696 q 178 914 50 841 q 293 949 239 949 l 293 882 q 190 837 244 880 q 121 690 122 779 q 267 545 121 589 q 420 511 282 540 q 464 500 448 506 q 623 372 589 463 q 637 277 637 330 q 547 76 637 161 q 355 -4 463 -4 l 355 64 q 481 118 415 64 q 566 282 564 187 q 410 441 566 397 q 266 469 397 444 q 217 481 233 476 q 73 589 107 525 q 50 696 50 633 m 355 882 l 355 949 q 557 838 477 949 q 600 750 593 789 l 532 728 q 499 800 521 769 q 453 846 477 831 q 406 870 429 861 q 369 880 384 879 l 355 882 z "},"Š":{"ha":675,"x_min":30,"x_max":628,"o":"m 174 1245 l 231 1245 l 301 1101 l 370 1245 l 427 1245 l 326 1039 l 277 1039 l 174 1245 m 30 214 l 95 237 q 240 73 119 113 q 283 64 283 64 l 283 -4 q 80 99 161 -4 q 30 214 31 161 m 41 696 q 168 914 41 841 q 283 949 229 949 l 283 882 q 180 837 235 880 q 111 690 113 779 q 258 545 111 589 q 411 511 273 540 q 454 500 438 506 q 613 372 579 463 q 628 277 628 330 q 537 76 628 161 q 346 -4 453 -4 l 346 64 q 472 118 406 64 q 556 282 555 187 q 400 441 556 397 q 256 469 388 444 q 208 481 224 476 q 64 589 98 525 q 41 696 41 633 m 346 882 l 346 949 q 548 838 468 949 q 590 750 583 789 l 522 728 q 490 800 511 769 q 444 846 468 831 q 397 870 419 861 q 361 880 374 879 l 346 882 z "},"T":{"ha":640,"x_min":26,"x_max":613,"o":"m 26 880 l 26 949 l 613 949 l 613 880 l 355 880 l 355 0 l 283 0 l 283 880 l 26 880 z "},"Ť":{"ha":640,"x_min":26,"x_max":613,"o":"m 187 1245 l 244 1245 l 315 1101 l 384 1245 l 441 1245 l 339 1039 l 290 1039 l 187 1245 m 26 880 l 26 949 l 613 949 l 613 880 l 355 880 l 355 0 l 283 0 l 283 880 l 26 880 z "},"Þ":{"ha":643,"x_min":95,"x_max":610,"o":"m 95 0 l 95 949 l 167 949 l 167 0 l 95 0 m 236 282 l 236 351 l 293 351 q 522 457 480 351 q 536 540 536 494 q 359 727 536 705 q 290 731 328 731 l 236 731 l 236 800 q 551 724 475 807 q 608 541 605 665 q 439 296 610 342 q 236 282 359 275 z "},"U":{"ha":712,"x_min":53,"x_max":659,"o":"m 53 262 l 53 949 l 125 949 l 125 262 q 236 92 125 153 q 324 64 288 64 l 324 -7 q 167 47 247 -7 q 53 262 54 127 m 388 -7 l 388 64 q 506 109 445 64 q 587 262 586 168 l 587 949 l 659 949 l 659 262 q 522 33 659 110 q 388 -7 452 -7 z "},"Ú":{"ha":712,"x_min":53,"x_max":659,"o":"m 321 1039 l 372 1245 l 441 1245 l 370 1039 l 321 1039 m 53 262 l 53 949 l 125 949 l 125 262 q 236 92 125 153 q 324 64 288 64 l 324 -7 q 167 47 247 -7 q 53 262 54 127 m 388 -7 l 388 64 q 506 109 445 64 q 587 262 586 168 l 587 949 l 659 949 l 659 262 q 522 33 659 110 q 388 -7 452 -7 z "},"Û":{"ha":712,"x_min":53,"x_max":659,"o":"m 220 1039 l 321 1245 l 370 1245 l 473 1039 l 416 1039 l 346 1183 l 277 1039 l 220 1039 m 53 262 l 53 949 l 125 949 l 125 262 q 236 92 125 153 q 324 64 288 64 l 324 -7 q 167 47 247 -7 q 53 262 54 127 m 388 -7 l 388 64 q 506 109 445 64 q 587 262 586 168 l 587 949 l 659 949 l 659 262 q 522 33 659 110 q 388 -7 452 -7 z "},"Ü":{"ha":712,"x_min":53,"x_max":659,"o":"m 227 1084 q 256 1126 227 1114 q 273 1128 264 1128 q 316 1096 307 1128 q 317 1084 317 1090 q 286 1040 317 1050 q 273 1039 279 1039 q 229 1069 240 1039 q 227 1084 227 1077 m 376 1084 q 406 1126 376 1114 q 422 1128 414 1128 q 465 1096 456 1128 q 467 1084 467 1090 q 435 1040 467 1050 q 422 1039 429 1039 q 378 1069 389 1039 q 376 1084 376 1077 m 53 262 l 53 949 l 125 949 l 125 262 q 236 92 125 153 q 324 64 288 64 l 324 -7 q 167 47 247 -7 q 53 262 54 127 m 388 -7 l 388 64 q 506 109 445 64 q 587 262 586 168 l 587 949 l 659 949 l 659 262 q 522 33 659 110 q 388 -7 452 -7 z "},"Ù":{"ha":712,"x_min":53,"x_max":659,"o":"m 248 1245 l 319 1245 l 369 1039 l 319 1039 l 248 1245 m 53 262 l 53 949 l 125 949 l 125 262 q 236 92 125 153 q 324 64 288 64 l 324 -7 q 167 47 247 -7 q 53 262 54 127 m 388 -7 l 388 64 q 506 109 445 64 q 587 262 586 168 l 587 949 l 659 949 l 659 262 q 522 33 659 110 q 388 -7 452 -7 z "},"Ű":{"ha":712,"x_min":53,"x_max":659,"o":"m 425 1039 l 475 1245 l 544 1245 l 473 1039 l 425 1039 m 293 1039 l 343 1245 l 412 1245 l 342 1039 l 293 1039 m 53 262 l 53 949 l 125 949 l 125 262 q 236 92 125 153 q 324 64 288 64 l 324 -7 q 167 47 247 -7 q 53 262 54 127 m 388 -7 l 388 64 q 506 109 445 64 q 587 262 586 168 l 587 949 l 659 949 l 659 262 q 522 33 659 110 q 388 -7 452 -7 z "},"Ū":{"ha":712,"x_min":53,"x_max":659,"o":"m 133 1039 l 133 1088 l 562 1088 l 562 1039 l 133 1039 m 53 262 l 53 949 l 125 949 l 125 262 q 236 92 125 153 q 324 64 288 64 l 324 -7 q 167 47 247 -7 q 53 262 54 127 m 388 -7 l 388 64 q 506 109 445 64 q 587 262 586 168 l 587 949 l 659 949 l 659 262 q 522 33 659 110 q 388 -7 452 -7 z "},"Ų":{"ha":712,"x_min":53,"x_max":659,"o":"m 511 -239 q 334 -137 384 -239 q 315 -54 315 -96 l 378 -54 q 448 -164 378 -133 q 511 -178 477 -178 l 511 -239 m 53 262 l 53 949 l 125 949 l 125 262 q 236 92 125 153 q 324 64 288 64 l 324 -7 q 167 47 247 -7 q 53 262 54 127 m 388 -7 l 388 64 q 506 109 445 64 q 587 262 586 168 l 587 949 l 659 949 l 659 262 q 522 33 659 110 q 388 -7 452 -7 z "},"Ů":{"ha":712,"x_min":53,"x_max":659,"o":"m 251 1169 q 302 1255 251 1226 q 347 1265 324 1265 q 433 1214 404 1265 q 444 1169 444 1192 q 392 1084 444 1112 q 347 1073 370 1073 q 262 1124 290 1073 q 251 1169 251 1146 m 304 1169 q 334 1127 304 1137 q 347 1126 342 1126 q 389 1156 380 1126 q 391 1169 391 1164 q 361 1211 391 1202 q 347 1213 353 1213 q 305 1183 315 1213 q 304 1169 304 1175 m 53 262 l 53 949 l 125 949 l 125 262 q 236 92 125 153 q 324 64 288 64 l 324 -7 q 167 47 247 -7 q 53 262 54 127 m 388 -7 l 388 64 q 506 109 445 64 q 587 262 586 168 l 587 949 l 659 949 l 659 262 q 522 33 659 110 q 388 -7 452 -7 z "},"V":{"ha":644,"x_min":14,"x_max":632,"o":"m 14 949 l 84 949 l 342 68 l 317 0 l 289 0 l 14 949 m 334 285 l 560 949 l 632 949 q 521 620 629 939 q 376 187 380 202 l 362 187 l 334 285 z "},"W":{"ha":1074,"x_min":14,"x_max":1061,"o":"m 14 949 l 289 0 l 315 0 l 338 80 l 85 949 l 14 949 m 324 305 l 353 205 l 366 205 q 453 524 369 216 q 532 817 510 735 l 750 0 l 776 0 l 800 73 l 568 949 l 496 949 l 324 305 m 799 304 l 829 205 l 842 205 l 1061 949 l 989 949 l 799 304 z "},"X":{"ha":635,"x_min":38,"x_max":597,"o":"m 38 0 l 282 491 l 54 949 l 125 949 l 317 567 l 510 949 l 581 949 l 353 491 l 597 0 l 525 0 l 317 412 l 110 0 l 38 0 z "},"Y":{"ha":654,"x_min":38,"x_max":617,"o":"m 38 949 l 111 949 l 351 343 l 351 0 l 278 0 l 278 342 l 38 949 m 349 521 l 543 949 l 617 949 l 389 426 l 382 426 l 349 521 z "},"Ý":{"ha":654,"x_min":38,"x_max":617,"o":"m 281 1039 l 331 1245 l 400 1245 l 330 1039 l 281 1039 m 38 949 l 111 949 l 351 343 l 351 0 l 278 0 l 278 342 l 38 949 m 349 521 l 543 949 l 617 949 l 389 426 l 382 426 l 349 521 z "},"Ÿ":{"ha":654,"x_min":38,"x_max":617,"o":"m 186 1084 q 216 1126 186 1114 q 232 1128 224 1128 q 275 1096 266 1128 q 277 1084 277 1090 q 245 1040 277 1050 q 232 1039 239 1039 q 189 1069 199 1039 q 186 1084 186 1077 m 335 1084 q 365 1126 335 1114 q 381 1128 373 1128 q 425 1096 415 1128 q 426 1084 426 1090 q 395 1040 426 1050 q 381 1039 388 1039 q 338 1069 349 1039 q 335 1084 335 1077 m 38 949 l 111 949 l 351 343 l 351 0 l 278 0 l 278 342 l 38 949 m 349 521 l 543 949 l 617 949 l 389 426 l 382 426 l 349 521 z "},"Z":{"ha":602,"x_min":53,"x_max":551,"o":"m 53 0 l 53 66 l 471 880 l 53 880 l 53 949 l 549 949 l 549 884 l 130 71 l 551 71 l 549 0 l 53 0 z "},"Ź":{"ha":602,"x_min":53,"x_max":551,"o":"m 264 1039 l 315 1245 l 384 1245 l 313 1039 l 264 1039 m 53 0 l 53 66 l 471 880 l 53 880 l 53 949 l 549 949 l 549 884 l 130 71 l 551 71 l 549 0 l 53 0 z "},"Ž":{"ha":602,"x_min":53,"x_max":551,"o":"m 161 1245 l 218 1245 l 289 1101 l 358 1245 l 415 1245 l 313 1039 l 264 1039 l 161 1245 m 53 0 l 53 66 l 471 880 l 53 880 l 53 949 l 549 949 l 549 884 l 130 71 l 551 71 l 549 0 l 53 0 z "},"Ż":{"ha":602,"x_min":53,"x_max":551,"o":"m 240 1088 q 273 1135 240 1123 q 289 1138 281 1138 q 335 1104 323 1138 q 338 1088 338 1096 q 307 1042 338 1054 q 289 1039 297 1039 q 243 1070 255 1039 q 240 1088 240 1080 m 53 0 l 53 66 l 471 880 l 53 880 l 53 949 l 549 949 l 549 884 l 130 71 l 551 71 l 549 0 l 53 0 z "},"a":{"ha":631,"x_min":52,"x_max":579,"o":"m 52 165 q 122 45 52 94 q 266 1 182 1 l 266 68 q 129 137 160 68 q 119 183 119 159 l 119 232 q 134 282 119 267 q 304 338 157 305 q 473 388 434 368 l 473 205 q 328 68 472 69 l 328 1 q 475 43 419 1 q 484 52 480 47 q 579 1 529 5 l 579 69 q 544 115 544 71 l 544 499 q 476 658 544 594 q 328 713 416 713 l 328 648 q 439 594 395 648 q 472 500 472 553 l 472 477 q 304 404 473 445 q 119 353 142 365 q 52 229 53 315 l 52 165 m 61 534 l 125 510 q 194 627 125 587 q 266 647 228 647 l 266 713 q 110 648 175 713 q 61 534 61 597 z "},"á":{"ha":631,"x_min":52,"x_max":579,"o":"m 255 796 l 305 1002 l 374 1002 l 304 796 l 255 796 m 52 165 q 122 45 52 94 q 266 1 182 1 l 266 68 q 129 137 160 68 q 119 183 119 159 l 119 232 q 134 282 119 267 q 304 338 157 305 q 473 388 434 368 l 473 205 q 328 68 472 69 l 328 1 q 475 43 419 1 q 484 52 480 47 q 579 1 529 5 l 579 69 q 544 115 544 71 l 544 499 q 476 658 544 594 q 328 713 416 713 l 328 648 q 439 594 395 648 q 472 500 472 553 l 472 477 q 304 404 473 445 q 119 353 142 365 q 52 229 53 315 l 52 165 m 61 534 l 125 510 q 194 627 125 587 q 266 647 228 647 l 266 713 q 110 648 175 713 q 61 534 61 597 z "},"ă":{"ha":631,"x_min":52,"x_max":579,"o":"m 187 886 l 236 886 q 266 844 236 853 q 279 842 274 842 q 321 872 312 842 q 323 886 323 880 l 372 886 q 335 815 372 844 q 279 796 309 796 q 195 852 221 796 q 187 886 187 871 m 52 165 q 122 45 52 94 q 266 1 182 1 l 266 68 q 129 137 160 68 q 119 183 119 159 l 119 232 q 134 282 119 267 q 304 338 157 305 q 473 388 434 368 l 473 205 q 328 68 472 69 l 328 1 q 475 43 419 1 q 484 52 480 47 q 579 1 529 5 l 579 69 q 544 115 544 71 l 544 499 q 476 658 544 594 q 328 713 416 713 l 328 648 q 439 594 395 648 q 472 500 472 553 l 472 477 q 304 404 473 445 q 119 353 142 365 q 52 229 53 315 l 52 165 m 61 534 l 125 510 q 194 627 125 587 q 266 647 228 647 l 266 713 q 110 648 175 713 q 61 534 61 597 z "},"â":{"ha":631,"x_min":52,"x_max":579,"o":"m 152 796 l 254 1002 l 302 1002 l 406 796 l 349 796 l 278 940 l 209 796 l 152 796 m 52 165 q 122 45 52 94 q 266 1 182 1 l 266 68 q 129 137 160 68 q 119 183 119 159 l 119 232 q 134 282 119 267 q 304 338 157 305 q 473 388 434 368 l 473 205 q 328 68 472 69 l 328 1 q 475 43 419 1 q 484 52 480 47 q 579 1 529 5 l 579 69 q 544 115 544 71 l 544 499 q 476 658 544 594 q 328 713 416 713 l 328 648 q 439 594 395 648 q 472 500 472 553 l 472 477 q 304 404 473 445 q 119 353 142 365 q 52 229 53 315 l 52 165 m 61 534 l 125 510 q 194 627 125 587 q 266 647 228 647 l 266 713 q 110 648 175 713 q 61 534 61 597 z "},"´":{"ha":433,"x_min":156,"x_max":275,"o":"m 156 821 l 206 1027 l 275 1027 l 205 821 l 156 821 z "},"ä":{"ha":631,"x_min":52,"x_max":579,"o":"m 159 841 q 189 883 159 871 q 205 886 197 886 q 248 853 239 886 q 250 841 250 848 q 218 798 250 807 q 205 796 212 796 q 161 826 172 796 q 159 841 159 834 m 308 841 q 338 883 308 871 q 354 886 346 886 q 397 853 388 886 q 399 841 399 848 q 368 798 399 807 q 354 796 361 796 q 311 826 321 796 q 308 841 308 834 m 52 165 q 122 45 52 94 q 266 1 182 1 l 266 68 q 129 137 160 68 q 119 183 119 159 l 119 232 q 134 282 119 267 q 304 338 157 305 q 473 388 434 368 l 473 205 q 328 68 472 69 l 328 1 q 475 43 419 1 q 484 52 480 47 q 579 1 529 5 l 579 69 q 544 115 544 71 l 544 499 q 476 658 544 594 q 328 713 416 713 l 328 648 q 439 594 395 648 q 472 500 472 553 l 472 477 q 304 404 473 445 q 119 353 142 365 q 52 229 53 315 l 52 165 m 61 534 l 125 510 q 194 627 125 587 q 266 647 228 647 l 266 713 q 110 648 175 713 q 61 534 61 597 z "},"æ":{"ha":631,"x_min":35,"x_max":958,"o":"m 35 163 q 107 42 35 91 q 247 1 165 1 l 247 66 q 110 145 137 66 q 102 194 102 168 l 102 220 q 236 334 100 292 q 321 355 264 342 q 452 403 431 382 l 452 202 q 339 68 452 80 q 308 66 324 66 l 308 1 q 495 94 438 0 q 685 0 547 8 q 705 0 696 0 q 958 163 910 1 l 897 184 q 784 73 875 103 q 707 61 747 61 q 557 117 617 61 q 521 194 522 153 l 521 328 l 956 328 l 956 513 q 871 655 956 595 q 735 700 806 700 l 735 637 q 859 579 808 637 q 890 499 890 541 l 890 393 l 521 393 l 521 488 q 579 601 521 553 q 674 635 621 635 l 674 700 q 491 605 557 700 q 488 602 488 604 q 278 705 426 705 q 91 637 159 705 q 46 525 46 590 l 107 505 q 209 633 107 604 q 277 643 241 643 q 425 583 372 643 q 452 517 452 552 l 452 490 q 359 425 452 453 q 298 408 340 419 q 94 328 148 369 q 35 217 37 282 l 35 163 z "},"à":{"ha":631,"x_min":52,"x_max":579,"o":"m 182 1002 l 252 1002 l 302 796 l 252 796 l 182 1002 m 52 165 q 122 45 52 94 q 266 1 182 1 l 266 68 q 129 137 160 68 q 119 183 119 159 l 119 232 q 134 282 119 267 q 304 338 157 305 q 473 388 434 368 l 473 205 q 328 68 472 69 l 328 1 q 475 43 419 1 q 484 52 480 47 q 579 1 529 5 l 579 69 q 544 115 544 71 l 544 499 q 476 658 544 594 q 328 713 416 713 l 328 648 q 439 594 395 648 q 472 500 472 553 l 472 477 q 304 404 473 445 q 119 353 142 365 q 52 229 53 315 l 52 165 m 61 534 l 125 510 q 194 627 125 587 q 266 647 228 647 l 266 713 q 110 648 175 713 q 61 534 61 597 z "},"ā":{"ha":631,"x_min":52,"x_max":579,"o":"m 88 796 l 88 845 l 517 845 l 517 796 l 88 796 m 52 165 q 122 45 52 94 q 266 1 182 1 l 266 68 q 129 137 160 68 q 119 183 119 159 l 119 232 q 134 282 119 267 q 304 338 157 305 q 473 388 434 368 l 473 205 q 328 68 472 69 l 328 1 q 475 43 419 1 q 484 52 480 47 q 579 1 529 5 l 579 69 q 544 115 544 71 l 544 499 q 476 658 544 594 q 328 713 416 713 l 328 648 q 439 594 395 648 q 472 500 472 553 l 472 477 q 304 404 473 445 q 119 353 142 365 q 52 229 53 315 l 52 165 m 61 534 l 125 510 q 194 627 125 587 q 266 647 228 647 l 266 713 q 110 648 175 713 q 61 534 61 597 z "},"&":{"ha":867,"x_min":53,"x_max":814,"o":"m 519 141 q 355 71 454 71 q 178 146 247 71 q 125 289 125 206 q 213 460 126 391 l 163 513 q 53 289 54 420 q 164 61 53 145 q 350 -1 247 -1 q 568 87 475 0 l 519 141 m 579 741 q 509 857 568 812 q 438 887 475 882 l 438 958 q 610 848 548 943 q 647 758 637 806 l 579 741 m 363 887 q 247 815 289 879 q 220 722 220 774 q 224 689 220 705 q 234 662 229 673 q 250 637 239 651 q 265 618 260 623 q 282 600 270 613 l 296 587 l 621 244 q 704 408 681 305 q 712 468 712 441 l 784 468 q 699 220 783 335 q 673 189 685 202 l 814 38 l 738 18 l 237 544 q 157 663 171 614 q 151 722 151 690 q 243 907 151 837 q 363 958 296 948 l 363 887 z "},"ං":{"ha":613,"x_min":41,"x_max":571,"o":"m 340 61 l 340 132 q 490 229 461 132 q 500 336 500 270 l 500 422 q 437 604 500 563 q 340 627 399 627 l 340 697 l 369 697 q 571 422 571 696 l 571 336 q 369 61 568 62 l 340 61 m 244 61 q 41 336 41 62 l 41 422 q 244 697 43 696 l 273 697 l 273 627 q 122 524 149 627 q 111 422 111 483 l 111 336 q 168 159 111 201 q 273 132 206 132 l 273 61 l 244 61 z "},"ą":{"ha":631,"x_min":52,"x_max":655,"o":"m 655 -239 q 477 -137 528 -239 q 458 -54 458 -96 l 522 -54 q 591 -164 522 -133 q 655 -178 621 -178 l 655 -239 m 52 165 q 122 45 52 94 q 266 1 182 1 l 266 68 q 129 137 160 68 q 119 183 119 159 l 119 232 q 134 282 119 267 q 304 338 157 305 q 473 388 434 368 l 473 205 q 328 68 472 69 l 328 1 q 475 43 419 1 q 484 52 480 47 q 579 1 529 5 l 579 69 q 544 115 544 71 l 544 499 q 476 658 544 594 q 328 713 416 713 l 328 648 q 439 594 395 648 q 472 500 472 553 l 472 477 q 304 404 473 445 q 119 353 142 365 q 52 229 53 315 l 52 165 m 61 534 l 125 510 q 194 627 125 587 q 266 647 228 647 l 266 713 q 110 648 175 713 q 61 534 61 597 z "},"≈":{"ha":770,"x_min":68,"x_max":703,"o":"m 68 336 l 68 403 q 221 450 151 450 q 369 403 279 450 q 509 351 457 355 q 525 351 518 351 q 703 412 604 353 l 703 349 q 517 286 600 286 q 359 336 453 286 q 213 385 262 382 q 68 336 142 384 m 68 545 l 68 612 q 221 659 151 659 q 369 612 279 659 q 509 560 457 564 q 525 560 518 560 q 703 621 604 562 l 703 557 q 517 495 600 495 q 359 545 453 495 q 213 594 262 591 q 68 545 142 593 z "},"å":{"ha":631,"x_min":52,"x_max":579,"o":"m 198 926 q 250 1012 198 983 q 294 1023 271 1023 q 380 971 351 1023 q 391 926 391 949 q 339 841 391 869 q 294 830 317 830 q 209 882 237 830 q 198 926 198 903 m 251 926 q 281 884 251 894 q 294 883 289 883 q 336 913 327 883 q 338 926 338 921 q 308 968 338 959 q 294 970 300 970 q 252 940 262 970 q 251 926 251 932 m 52 165 q 122 45 52 94 q 266 1 182 1 l 266 68 q 129 137 160 68 q 119 183 119 159 l 119 232 q 134 282 119 267 q 304 338 157 305 q 473 388 434 368 l 473 205 q 328 68 472 69 l 328 1 q 475 43 419 1 q 484 52 480 47 q 579 1 529 5 l 579 69 q 544 115 544 71 l 544 499 q 476 658 544 594 q 328 713 416 713 l 328 648 q 439 594 395 648 q 472 500 472 553 l 472 477 q 304 404 473 445 q 119 353 142 365 q 52 229 53 315 l 52 165 m 61 534 l 125 510 q 194 627 125 587 q 266 647 228 647 l 266 713 q 110 648 175 713 q 61 534 61 597 z "},"^":{"ha":591,"x_min":69,"x_max":522,"o":"m 69 624 l 271 1025 l 320 1025 l 522 624 l 452 624 l 294 936 l 140 624 l 69 624 z "},"~":{"ha":852,"x_min":109,"x_max":743,"o":"m 109 426 l 109 494 q 262 541 191 541 q 410 494 320 541 q 549 442 498 446 q 566 442 559 442 q 743 503 644 444 l 743 438 q 557 376 640 376 q 400 426 494 376 q 254 475 302 472 q 109 426 183 473 z "},"*":{"ha":476,"x_min":50,"x_max":426,"o":"m 52 954 l 87 1001 l 208 925 l 208 1065 l 267 1065 l 267 920 l 393 1001 l 426 954 l 283 859 l 426 761 l 392 712 l 267 802 l 267 648 l 208 648 l 208 802 l 83 718 l 50 765 l 194 860 l 52 954 z "},"@":{"ha":1048,"x_min":50,"x_max":998,"o":"m 50 419 q 197 773 50 628 q 567 926 345 918 q 589 926 579 926 q 865 834 747 926 q 998 560 997 728 q 830 236 998 315 q 718 210 773 210 q 625 259 669 210 q 609 286 613 274 q 506 222 572 235 q 477 220 491 220 q 357 296 401 220 q 326 410 326 347 q 431 623 326 549 q 549 662 490 662 q 656 620 612 662 q 661 616 659 617 l 669 644 l 730 644 l 671 418 q 659 361 663 387 q 680 301 652 334 q 731 275 703 277 q 863 336 806 275 q 933 559 933 414 q 804 792 933 703 q 589 861 707 861 q 260 738 397 861 q 118 419 121 605 q 259 92 118 216 q 551 -12 378 -12 q 905 107 735 -11 l 935 50 q 552 -77 765 -77 q 170 83 311 -77 q 50 419 50 220 z "},"ã":{"ha":631,"x_min":52,"x_max":579,"o":"m 100 821 l 100 884 q 195 914 153 914 q 292 883 229 914 q 373 859 339 859 q 481 897 420 860 l 481 834 q 368 796 419 796 q 267 827 331 796 q 190 850 221 850 q 100 821 148 849 m 52 165 q 122 45 52 94 q 266 1 182 1 l 266 68 q 129 137 160 68 q 119 183 119 159 l 119 232 q 134 282 119 267 q 304 338 157 305 q 473 388 434 368 l 473 205 q 328 68 472 69 l 328 1 q 475 43 419 1 q 484 52 480 47 q 579 1 529 5 l 579 69 q 544 115 544 71 l 544 499 q 476 658 544 594 q 328 713 416 713 l 328 648 q 439 594 395 648 q 472 500 472 553 l 472 477 q 304 404 473 445 q 119 353 142 365 q 52 229 53 315 l 52 165 m 61 534 l 125 510 q 194 627 125 587 q 266 647 228 647 l 266 713 q 110 648 175 713 q 61 534 61 597 z "},"b":{"ha":587,"x_min":54,"x_max":547,"o":"m 54 0 l 54 951 l 126 951 l 126 0 l 54 0 m 189 0 l 189 68 l 334 68 q 441 119 392 68 q 476 197 475 156 l 476 513 q 416 613 476 571 q 334 642 376 642 l 189 642 l 189 709 l 335 709 q 502 631 434 709 q 547 518 547 576 l 547 194 q 492 71 547 130 q 332 0 429 1 l 189 0 z "},"\\":{"ha":418,"x_min":54,"x_max":362,"o":"m 54 971 l 125 971 l 362 -31 l 290 -31 l 54 971 z "},"|":{"ha":195,"x_min":68,"x_max":127,"o":"m 68 -182 l 68 1023 l 127 1023 l 127 -182 l 68 -182 z "},"{":{"ha":309,"x_min":20,"x_max":282,"o":"m 20 472 q 91 511 79 496 q 104 553 103 528 l 104 746 q 175 974 104 929 q 282 997 213 997 l 282 939 q 201 909 220 939 q 174 686 175 869 q 174 636 174 663 l 174 519 q 133 473 174 484 q 130 472 132 472 q 174 412 172 457 l 174 281 q 232 16 174 53 q 282 5 251 5 l 282 -52 q 132 28 170 -52 q 104 197 104 88 l 104 393 q 62 450 104 427 q 42 461 57 454 q 20 472 27 468 z "},"}":{"ha":309,"x_min":27,"x_max":289,"o":"m 27 -52 l 27 5 q 104 47 83 5 q 136 281 136 109 l 136 412 q 179 472 138 458 q 136 519 137 484 l 136 636 q 114 899 136 853 q 43 939 96 936 q 27 939 35 939 l 27 997 q 167 943 129 997 q 205 746 205 884 l 205 553 q 248 490 206 510 q 289 472 256 486 q 222 435 229 441 q 205 393 205 418 l 205 197 q 114 -35 205 7 q 27 -52 79 -52 z "},"[":{"ha":258,"x_min":68,"x_max":197,"o":"m 68 -49 l 68 1002 l 197 1002 l 197 939 l 140 939 l 136 15 l 197 15 l 197 -49 l 68 -49 z "},"]":{"ha":256,"x_min":61,"x_max":190,"o":"m 61 -49 l 61 15 l 122 15 l 118 939 l 61 939 l 61 1002 l 190 1002 l 190 -49 l 61 -49 z "},"˘":{"ha":331,"x_min":73,"x_max":258,"o":"m 73 713 l 122 713 q 152 671 122 681 q 165 670 160 670 q 208 700 198 670 q 209 713 209 708 l 258 713 q 221 643 258 671 q 165 624 195 624 q 81 680 107 624 q 73 713 73 697 z "},"¦":{"ha":194,"x_min":57,"x_max":126,"o":"m 57 -183 l 57 298 l 126 298 l 126 -183 l 57 -183 m 57 543 l 57 1024 l 126 1024 l 126 543 l 57 543 z "},"•":{"ha":477,"x_min":141,"x_max":336,"o":"m 141 468 q 193 555 141 528 q 239 566 216 566 q 326 514 298 566 q 336 468 336 492 q 283 380 336 407 q 239 370 262 370 q 152 422 179 370 q 141 468 141 444 z "},"c":{"ha":590,"x_min":54,"x_max":552,"o":"m 54 194 q 110 62 54 121 q 273 0 172 0 l 273 68 q 146 134 193 68 q 125 194 125 165 l 125 509 q 178 606 125 563 q 274 642 221 642 l 274 709 q 85 612 149 709 q 54 513 54 562 l 54 194 m 334 640 q 442 583 403 640 q 468 511 464 552 l 468 487 l 536 511 q 457 667 536 608 q 334 709 401 709 l 334 640 m 332 -1 q 498 71 429 -1 q 551 198 552 127 l 484 224 q 484 212 484 221 q 483 201 483 203 q 403 84 473 123 q 332 66 369 66 l 332 -1 z "},"ć":{"ha":590,"x_min":54,"x_max":552,"o":"m 277 792 l 327 998 l 396 998 l 326 792 l 277 792 m 54 194 q 110 62 54 121 q 273 0 172 0 l 273 68 q 146 134 193 68 q 125 194 125 165 l 125 509 q 178 606 125 563 q 274 642 221 642 l 274 709 q 85 612 149 709 q 54 513 54 562 l 54 194 m 334 640 q 442 583 403 640 q 468 511 464 552 l 468 487 l 536 511 q 457 667 536 608 q 334 709 401 709 l 334 640 m 332 -1 q 498 71 429 -1 q 551 198 552 127 l 484 224 q 484 212 484 221 q 483 201 483 203 q 403 84 473 123 q 332 66 369 66 l 332 -1 z "},"ˇ":{"ha":366,"x_min":56,"x_max":309,"o":"m 56 903 l 113 903 l 183 760 l 252 903 l 309 903 l 208 697 l 159 697 l 56 903 z "},"č":{"ha":590,"x_min":54,"x_max":552,"o":"m 175 998 l 232 998 l 302 854 l 372 998 l 429 998 l 327 792 l 278 792 l 175 998 m 54 194 q 110 62 54 121 q 273 0 172 0 l 273 68 q 146 134 193 68 q 125 194 125 165 l 125 509 q 178 606 125 563 q 274 642 221 642 l 274 709 q 85 612 149 709 q 54 513 54 562 l 54 194 m 334 640 q 442 583 403 640 q 468 511 464 552 l 468 487 l 536 511 q 457 667 536 608 q 334 709 401 709 l 334 640 m 332 -1 q 498 71 429 -1 q 551 198 552 127 l 484 224 q 484 212 484 221 q 483 201 483 203 q 403 84 473 123 q 332 66 369 66 l 332 -1 z "},"ç":{"ha":590,"x_min":54,"x_max":552,"o":"m 144 -239 l 144 -178 q 262 -115 227 -178 q 277 -54 277 -87 l 340 -54 q 274 -197 340 -142 q 144 -239 221 -239 m 54 194 q 110 62 54 121 q 273 0 172 0 l 273 68 q 146 134 193 68 q 125 194 125 165 l 125 509 q 178 606 125 563 q 274 642 221 642 l 274 709 q 85 612 149 709 q 54 513 54 562 l 54 194 m 334 640 q 442 583 403 640 q 468 511 464 552 l 468 487 l 536 511 q 457 667 536 608 q 334 709 401 709 l 334 640 m 332 -1 q 498 71 429 -1 q 551 198 552 127 l 484 224 q 484 212 484 221 q 483 201 483 203 q 403 84 473 123 q 332 66 369 66 l 332 -1 z "},"¸":{"ha":547,"x_min":167,"x_max":363,"o":"m 167 -18 l 167 43 q 285 106 250 43 q 300 167 300 134 l 363 167 q 297 24 363 79 q 167 -18 244 -18 z "},"¢":{"ha":576,"x_min":52,"x_max":549,"o":"m 331 798 l 331 640 q 439 583 400 640 q 465 507 461 549 q 467 487 467 500 l 534 511 q 454 669 534 609 q 380 704 419 694 l 380 798 l 331 798 m 224 798 l 224 705 q 72 591 119 685 q 52 513 52 551 l 52 194 q 106 65 52 123 q 224 4 153 16 l 224 -88 l 271 -88 l 271 68 q 146 134 193 68 q 123 195 123 167 l 123 506 q 176 608 123 563 q 271 642 220 642 l 271 798 l 224 798 m 331 -88 l 380 -88 l 380 4 q 522 106 475 26 q 549 198 549 151 l 481 224 q 481 210 481 220 q 480 197 480 199 q 400 84 469 122 q 331 66 366 66 l 331 -88 z "},"ˆ":{"ha":366,"x_min":56,"x_max":309,"o":"m 56 697 l 157 903 l 206 903 l 309 697 l 252 697 l 182 841 l 113 697 l 56 697 z "},":":{"ha":225,"x_min":68,"x_max":157,"o":"m 68 49 q 98 91 68 80 q 111 94 104 94 q 153 64 142 94 q 156 49 156 56 q 126 8 156 19 q 111 5 118 5 q 71 34 81 5 q 68 49 68 42 m 69 442 q 99 484 69 473 q 113 487 106 487 q 155 457 144 487 q 157 442 157 449 q 127 401 157 412 q 113 399 119 399 q 72 427 83 399 q 69 442 69 435 z "},",":{"ha":231,"x_min":56,"x_max":175,"o":"m 56 -31 l 106 175 l 175 175 l 125 -31 l 56 -31 z "},"©":{"ha":1047,"x_min":47,"x_max":1006,"o":"m 47 460 q 183 117 47 260 q 483 -26 309 -15 q 507 -27 495 -27 l 507 28 q 217 159 339 28 q 98 460 102 294 q 244 788 98 659 q 507 895 369 891 l 507 947 q 251 859 377 948 q 53 534 81 738 q 47 460 47 498 m 332 332 q 387 198 332 251 q 507 153 434 153 l 507 203 q 401 270 435 203 q 387 332 387 301 l 387 582 q 433 688 387 647 q 507 715 464 715 l 507 766 q 354 671 401 766 q 332 585 332 628 l 332 332 m 555 -27 q 844 92 713 -27 q 1004 411 986 222 q 1006 457 1006 435 q 857 814 1006 669 q 586 945 736 932 q 555 947 570 947 l 555 895 q 819 781 701 895 q 956 477 948 656 q 956 458 956 468 q 844 168 956 297 q 575 28 730 38 q 555 28 564 28 l 555 -27 m 555 152 q 681 221 632 152 q 712 315 712 266 l 661 334 l 661 319 q 605 220 658 254 q 555 203 581 203 l 555 152 m 555 713 q 636 667 602 713 q 658 597 658 635 l 658 586 l 709 605 q 646 735 709 685 q 555 766 604 766 l 555 713 z "},"¤":{"ha":819,"x_min":54,"x_max":751,"o":"m 54 227 l 164 327 q 155 374 155 350 l 155 616 q 165 665 155 639 l 54 764 l 96 812 l 197 723 q 377 808 263 807 l 377 742 q 243 666 286 742 q 224 601 224 632 l 224 389 q 274 289 224 336 q 377 245 320 245 l 377 179 q 197 269 263 180 l 96 179 l 54 227 m 433 179 l 433 244 q 560 321 517 244 q 581 387 581 355 l 581 601 q 532 704 581 658 q 433 742 488 742 l 433 808 q 608 722 545 807 l 709 812 l 751 764 l 639 663 q 648 616 648 640 l 648 374 q 639 327 648 349 l 751 227 l 708 179 l 608 267 q 433 179 541 180 z "},"d":{"ha":586,"x_min":41,"x_max":532,"o":"m 41 194 l 41 518 q 113 656 41 595 q 251 709 175 709 l 397 709 l 397 642 l 252 642 q 141 586 189 642 q 111 513 111 549 l 111 197 q 176 94 111 137 q 254 68 216 68 l 397 68 l 397 0 l 255 0 q 72 100 136 0 q 41 194 41 151 m 460 0 l 460 951 l 532 951 l 532 0 l 460 0 z "},"†":{"ha":614,"x_min":35,"x_max":579,"o":"m 35 661 l 35 728 l 271 728 l 271 1036 l 343 1036 l 343 728 l 579 728 l 579 661 l 343 661 l 343 -76 l 271 -76 l 271 661 l 35 661 z "},"‡":{"ha":614,"x_min":35,"x_max":579,"o":"m 35 228 l 35 296 l 271 296 l 271 665 l 35 665 l 35 732 l 271 732 l 271 1036 l 345 1036 l 345 732 l 579 732 l 579 665 l 345 665 l 345 296 l 579 296 l 579 228 l 345 228 l 345 -76 l 271 -76 l 271 228 l 35 228 z "},"ď":{"ha":586,"x_min":41,"x_max":754,"o":"m 635 753 l 685 959 l 754 959 l 704 753 l 635 753 m 41 194 l 41 518 q 113 656 41 595 q 251 709 175 709 l 397 709 l 397 642 l 252 642 q 141 586 189 642 q 111 513 111 549 l 111 197 q 176 94 111 137 q 254 68 216 68 l 397 68 l 397 0 l 255 0 q 72 100 136 0 q 41 194 41 151 m 460 0 l 460 951 l 532 951 l 532 0 l 460 0 z "},"đ":{"ha":562,"x_min":37,"x_max":608,"o":"m 37 191 l 37 511 q 107 648 37 587 q 244 700 170 700 l 389 700 l 389 635 l 245 635 q 133 576 180 633 q 104 506 104 541 l 104 194 q 168 91 104 134 q 245 65 209 65 l 389 65 l 389 0 l 248 0 q 68 99 130 0 q 37 191 37 148 m 361 793 l 361 854 l 452 854 l 452 951 l 521 951 l 521 854 l 608 854 l 608 793 l 521 793 l 521 0 l 452 0 l 452 793 l 361 793 z "},"°":{"ha":300,"x_min":47,"x_max":252,"o":"m 47 791 q 100 879 47 850 q 149 892 123 892 q 239 841 208 892 q 252 791 252 817 q 199 703 252 732 q 149 689 175 689 q 61 742 90 689 q 47 791 47 765 m 98 791 q 132 742 98 754 q 149 739 141 739 q 199 774 187 739 q 202 791 202 783 q 167 841 202 829 q 149 844 157 844 q 102 810 114 844 q 98 791 98 800 z "},"¨":{"ha":389,"x_min":75,"x_max":315,"o":"m 75 921 q 104 963 75 951 q 121 966 113 966 q 164 933 155 966 q 165 921 165 926 q 134 878 165 887 q 121 876 127 876 q 77 906 88 876 q 75 921 75 914 m 224 921 q 254 963 224 951 q 270 966 262 966 q 313 933 304 966 q 315 921 315 926 q 283 878 315 887 q 270 876 277 876 q 227 906 237 876 q 224 921 224 914 z "},"÷":{"ha":882,"x_min":130,"x_max":741,"o":"m 130 362 l 130 430 l 741 430 l 741 362 l 130 362 m 388 571 q 423 624 388 609 q 446 629 434 629 q 502 593 486 629 q 506 571 506 582 q 469 515 506 532 q 446 511 458 511 q 392 548 408 511 q 388 571 388 560 m 388 229 q 423 282 388 267 q 446 288 435 288 q 502 251 486 288 q 506 229 506 240 q 469 174 506 190 q 446 170 458 170 q 392 206 408 170 q 388 229 388 218 z "},"$":{"ha":700,"x_min":50,"x_max":648,"o":"m 50 214 l 117 237 q 262 73 141 113 q 305 64 305 64 l 305 -64 l 256 -64 l 256 1 q 85 121 151 22 q 50 214 52 172 m 61 696 q 189 913 61 838 q 256 941 221 932 l 256 1017 l 305 1017 l 305 882 q 202 837 256 880 q 133 690 134 779 q 285 544 133 586 q 305 538 294 541 l 305 464 q 228 481 254 473 q 83 590 117 526 q 61 696 61 635 m 368 -64 l 368 64 q 492 118 426 64 q 576 282 575 187 q 416 439 576 397 q 368 450 393 445 l 368 524 q 475 500 444 511 q 633 372 600 463 q 648 277 648 330 q 559 76 648 161 q 415 1 495 16 l 415 -64 l 368 -64 m 368 882 l 368 1017 l 415 1017 l 415 943 q 583 817 519 920 q 610 750 605 779 l 543 728 q 401 875 513 844 q 368 882 368 882 z "},"˙":{"ha":274,"x_min":88,"x_max":186,"o":"m 88 920 q 121 967 88 955 q 137 970 129 970 q 183 936 171 970 q 186 920 186 928 q 155 873 186 886 q 137 871 145 871 q 91 902 103 871 q 88 920 88 911 z "},"ı":{"ha":236,"x_min":85,"x_max":153,"o":"m 85 0 l 85 700 l 153 700 l 153 0 l 85 0 z "},"◌":{"ha":863,"x_min":64,"x_max":810,"o":"m 224 656 q 258 703 224 690 q 274 705 266 705 q 321 673 309 705 q 324 656 324 665 q 290 609 324 621 q 274 606 282 606 q 227 639 239 606 q 224 656 224 648 m 109 540 q 141 587 109 575 q 157 590 149 590 q 205 556 193 590 q 208 540 208 548 q 175 492 208 505 q 157 490 165 490 q 111 524 123 490 q 109 540 109 532 m 224 98 q 258 145 224 133 q 274 148 266 148 q 321 115 309 148 q 324 98 324 106 q 290 52 324 64 q 274 49 282 49 q 227 81 239 49 q 224 98 224 90 m 109 214 q 141 262 109 250 q 157 264 149 264 q 205 231 193 264 q 208 214 208 222 q 175 167 208 179 q 157 164 165 164 q 111 198 123 164 q 109 214 109 206 m 549 98 q 583 145 549 133 q 600 148 591 148 q 647 115 635 148 q 650 98 650 106 q 616 52 650 64 q 600 49 608 49 q 552 81 564 49 q 549 98 549 90 m 666 214 q 699 262 666 250 q 716 264 708 264 q 762 231 750 264 q 765 214 765 222 q 732 167 765 179 q 716 164 724 164 q 669 198 681 164 q 666 214 666 206 m 666 540 q 699 587 666 575 q 716 590 708 590 q 762 556 750 590 q 765 540 765 548 q 732 492 765 505 q 716 490 724 490 q 669 524 681 490 q 666 540 666 532 m 549 656 q 583 703 549 690 q 600 705 591 705 q 647 673 635 705 q 650 656 650 665 q 616 609 650 621 q 600 606 608 606 q 552 639 564 606 q 549 656 549 648 m 709 377 q 741 423 709 410 q 760 427 750 427 q 806 396 792 427 q 810 377 810 387 q 779 331 810 345 q 760 327 769 327 q 713 358 727 327 q 709 377 709 368 m 387 54 q 418 100 387 87 q 437 104 427 104 q 483 73 469 104 q 487 54 487 64 q 456 8 487 22 q 437 4 446 4 q 391 35 404 4 q 387 54 387 45 m 64 377 q 95 423 64 410 q 114 427 104 427 q 160 396 146 427 q 164 377 164 387 q 133 331 164 345 q 114 327 123 327 q 68 358 81 327 q 64 377 64 368 m 387 700 q 418 746 387 732 q 437 750 427 750 q 483 719 469 750 q 487 700 487 709 q 456 654 487 667 q 437 650 446 650 q 391 681 404 650 q 387 700 387 690 z "},"e":{"ha":618,"x_min":54,"x_max":566,"o":"m 54 194 l 54 518 q 114 640 56 582 q 278 709 180 709 l 278 643 q 151 574 201 643 q 125 507 125 538 l 125 400 l 494 400 l 494 507 q 427 617 494 575 q 340 644 385 644 l 340 709 q 503 643 431 709 q 564 519 563 586 l 564 332 l 125 332 l 125 194 q 176 107 125 152 q 279 66 225 66 l 279 0 q 91 98 160 0 q 54 194 54 149 m 340 0 l 340 71 q 479 145 429 71 q 499 189 494 168 l 566 165 q 445 23 536 66 q 340 0 396 0 z "},"é":{"ha":618,"x_min":54,"x_max":566,"o":"m 282 792 l 332 998 l 401 998 l 331 792 l 282 792 m 54 194 l 54 518 q 114 640 56 582 q 278 709 180 709 l 278 643 q 151 574 201 643 q 125 507 125 538 l 125 400 l 494 400 l 494 507 q 427 617 494 575 q 340 644 385 644 l 340 709 q 503 643 431 709 q 564 519 563 586 l 564 332 l 125 332 l 125 194 q 176 107 125 152 q 279 66 225 66 l 279 0 q 91 98 160 0 q 54 194 54 149 m 340 0 l 340 71 q 479 145 429 71 q 499 189 494 168 l 566 165 q 445 23 536 66 q 340 0 396 0 z "},"ě":{"ha":618,"x_min":54,"x_max":566,"o":"m 179 998 l 236 998 l 307 854 l 376 998 l 433 998 l 331 792 l 282 792 l 179 998 m 54 194 l 54 518 q 114 640 56 582 q 278 709 180 709 l 278 643 q 151 574 201 643 q 125 507 125 538 l 125 400 l 494 400 l 494 507 q 427 617 494 575 q 340 644 385 644 l 340 709 q 503 643 431 709 q 564 519 563 586 l 564 332 l 125 332 l 125 194 q 176 107 125 152 q 279 66 225 66 l 279 0 q 91 98 160 0 q 54 194 54 149 m 340 0 l 340 71 q 479 145 429 71 q 499 189 494 168 l 566 165 q 445 23 536 66 q 340 0 396 0 z "},"ê":{"ha":618,"x_min":54,"x_max":566,"o":"m 179 792 l 281 998 l 330 998 l 433 792 l 376 792 l 305 936 l 236 792 l 179 792 m 54 194 l 54 518 q 114 640 56 582 q 278 709 180 709 l 278 643 q 151 574 201 643 q 125 507 125 538 l 125 400 l 494 400 l 494 507 q 427 617 494 575 q 340 644 385 644 l 340 709 q 503 643 431 709 q 564 519 563 586 l 564 332 l 125 332 l 125 194 q 176 107 125 152 q 279 66 225 66 l 279 0 q 91 98 160 0 q 54 194 54 149 m 340 0 l 340 71 q 479 145 429 71 q 499 189 494 168 l 566 165 q 445 23 536 66 q 340 0 396 0 z "},"ë":{"ha":618,"x_min":54,"x_max":566,"o":"m 186 837 q 216 879 186 867 q 232 882 224 882 q 275 849 266 882 q 277 837 277 844 q 245 793 277 803 q 232 792 239 792 q 189 822 199 792 q 186 837 186 830 m 335 837 q 365 879 335 867 q 381 882 373 882 q 425 849 415 882 q 426 837 426 844 q 395 793 426 803 q 381 792 388 792 q 338 822 349 792 q 335 837 335 830 m 54 194 l 54 518 q 114 640 56 582 q 278 709 180 709 l 278 643 q 151 574 201 643 q 125 507 125 538 l 125 400 l 494 400 l 494 507 q 427 617 494 575 q 340 644 385 644 l 340 709 q 503 643 431 709 q 564 519 563 586 l 564 332 l 125 332 l 125 194 q 176 107 125 152 q 279 66 225 66 l 279 0 q 91 98 160 0 q 54 194 54 149 m 340 0 l 340 71 q 479 145 429 71 q 499 189 494 168 l 566 165 q 445 23 536 66 q 340 0 396 0 z "},"ė":{"ha":618,"x_min":54,"x_max":566,"o":"m 258 841 q 290 888 258 876 q 307 891 298 891 q 353 857 340 891 q 355 841 355 849 q 324 795 355 807 q 307 792 315 792 q 260 823 273 792 q 258 841 258 833 m 54 194 l 54 518 q 114 640 56 582 q 278 709 180 709 l 278 643 q 151 574 201 643 q 125 507 125 538 l 125 400 l 494 400 l 494 507 q 427 617 494 575 q 340 644 385 644 l 340 709 q 503 643 431 709 q 564 519 563 586 l 564 332 l 125 332 l 125 194 q 176 107 125 152 q 279 66 225 66 l 279 0 q 91 98 160 0 q 54 194 54 149 m 340 0 l 340 71 q 479 145 429 71 q 499 189 494 168 l 566 165 q 445 23 536 66 q 340 0 396 0 z "},"è":{"ha":618,"x_min":54,"x_max":566,"o":"m 209 998 l 279 998 l 330 792 l 279 792 l 209 998 m 54 194 l 54 518 q 114 640 56 582 q 278 709 180 709 l 278 643 q 151 574 201 643 q 125 507 125 538 l 125 400 l 494 400 l 494 507 q 427 617 494 575 q 340 644 385 644 l 340 709 q 503 643 431 709 q 564 519 563 586 l 564 332 l 125 332 l 125 194 q 176 107 125 152 q 279 66 225 66 l 279 0 q 91 98 160 0 q 54 194 54 149 m 340 0 l 340 71 q 479 145 429 71 q 499 189 494 168 l 566 165 q 445 23 536 66 q 340 0 396 0 z "},"…":{"ha":882,"x_min":64,"x_max":818,"o":"m 64 15 q 94 56 64 45 q 109 58 102 58 q 149 30 138 58 q 152 15 152 22 q 122 -27 152 -16 q 109 -30 115 -30 q 66 0 77 -30 q 64 15 64 8 m 397 15 q 426 56 397 45 q 441 58 434 58 q 483 28 472 58 q 486 15 486 22 q 456 -27 486 -16 q 441 -30 448 -30 q 400 0 411 -30 q 397 15 397 8 m 730 15 q 758 56 730 45 q 773 58 766 58 q 815 28 804 58 q 818 15 818 22 q 788 -27 818 -16 q 773 -30 780 -30 q 732 0 743 -30 q 730 15 730 8 z "},"ē":{"ha":618,"x_min":54,"x_max":566,"o":"m 92 792 l 92 841 l 521 841 l 521 792 l 92 792 m 54 194 l 54 518 q 114 640 56 582 q 278 709 180 709 l 278 643 q 151 574 201 643 q 125 507 125 538 l 125 400 l 494 400 l 494 507 q 427 617 494 575 q 340 644 385 644 l 340 709 q 503 643 431 709 q 564 519 563 586 l 564 332 l 125 332 l 125 194 q 176 107 125 152 q 279 66 225 66 l 279 0 q 91 98 160 0 q 54 194 54 149 m 340 0 l 340 71 q 479 145 429 71 q 499 189 494 168 l 566 165 q 445 23 536 66 q 340 0 396 0 z "},"—":{"ha":1229,"x_min":35,"x_max":1194,"o":"m 35 363 l 35 431 l 1194 431 l 1194 363 l 35 363 z "},"–":{"ha":722,"x_min":35,"x_max":686,"o":"m 35 365 l 35 433 l 686 433 l 686 365 l 35 365 z "},"ę":{"ha":618,"x_min":54,"x_max":566,"o":"m 476 -239 l 476 -178 q 358 -115 393 -178 q 343 -54 343 -87 l 279 -54 q 346 -197 279 -142 q 476 -239 399 -239 m 54 194 l 54 518 q 114 640 56 582 q 278 709 180 709 l 278 643 q 151 574 201 643 q 125 507 125 538 l 125 400 l 494 400 l 494 507 q 427 617 494 575 q 340 644 385 644 l 340 709 q 503 643 431 709 q 564 519 563 586 l 564 332 l 125 332 l 125 194 q 176 107 125 152 q 279 66 225 66 l 279 0 q 91 98 160 0 q 54 194 54 149 m 340 0 l 340 71 q 479 145 429 71 q 499 189 494 168 l 566 165 q 445 23 536 66 q 340 0 396 0 z "},"=":{"ha":567,"x_min":68,"x_max":499,"o":"m 68 281 l 68 350 l 499 350 l 499 281 l 68 281 m 68 441 l 68 510 l 499 510 l 499 441 l 68 441 z "},"℮":{"ha":720,"x_min":41,"x_max":623,"o":"m 294 0 q 87 115 157 0 q 41 283 41 190 l 41 674 q 121 882 41 798 q 294 956 193 956 l 294 887 q 145 796 197 886 q 113 659 113 738 l 113 467 l 549 467 l 549 659 q 461 857 549 798 q 369 887 419 886 l 369 956 q 574 842 500 956 q 621 675 621 766 l 621 397 l 113 397 l 113 300 q 213 91 113 144 q 294 71 250 71 l 294 0 m 370 0 l 370 72 q 518 136 457 73 q 552 195 545 165 l 623 174 q 505 34 600 85 q 370 0 441 0 z "},"ð":{"ha":570,"x_min":38,"x_max":552,"o":"m 38 191 l 38 510 q 95 631 38 572 q 260 700 161 700 l 260 635 q 126 559 171 635 q 106 492 106 525 l 106 209 q 156 109 106 157 q 260 64 203 64 l 260 -1 q 69 99 136 -1 q 38 191 38 148 m 260 924 l 260 968 q 457 859 388 945 l 536 882 l 552 829 l 488 810 q 532 593 532 722 l 532 191 q 476 68 532 127 q 316 -1 412 0 l 316 64 q 444 141 400 64 q 464 206 464 175 l 463 505 q 408 604 463 562 q 316 635 368 635 l 316 700 q 457 646 400 699 q 425 791 457 728 l 338 765 l 321 818 l 395 840 q 260 924 351 888 z "},"!":{"ha":199,"x_min":56,"x_max":144,"o":"m 56 37 q 84 77 56 66 q 99 80 92 80 q 141 52 130 80 q 144 37 144 43 q 114 -4 144 5 q 99 -7 106 -7 q 58 22 69 -7 q 56 37 56 30 m 65 225 l 65 949 l 134 949 l 134 225 l 65 225 z "},"¡":{"ha":206,"x_min":27,"x_max":121,"o":"m 27 665 q 60 708 27 699 q 75 711 68 711 q 118 680 107 711 q 121 665 121 671 q 90 621 121 632 q 75 618 81 618 q 30 650 41 618 q 27 665 27 658 m 39 -146 l 39 563 l 110 563 l 110 -146 l 39 -146 z "},"f":{"ha":343,"x_min":38,"x_max":320,"o":"m 38 586 l 38 654 l 125 654 l 125 750 q 186 910 125 854 q 294 948 229 948 l 320 948 l 304 880 l 292 880 q 195 750 195 873 l 195 654 l 282 654 l 282 586 l 195 586 l 195 0 l 125 0 l 125 586 l 38 586 z "},"ﬁ":{"ha":670,"x_min":83,"x_max":463,"o":"m 83 589 l 83 654 l 168 654 l 168 749 q 231 909 168 854 q 335 944 273 944 l 359 944 l 345 879 q 326 878 330 879 q 236 749 236 868 l 236 652 l 452 652 l 452 0 l 384 0 l 384 589 l 236 589 l 236 0 l 168 0 l 168 589 l 83 589 m 372 799 q 401 841 372 829 q 418 844 410 844 q 460 814 449 844 q 463 799 463 806 q 433 757 463 768 q 418 754 425 754 q 374 783 387 754 q 372 799 372 791 z "},"ﬂ":{"ha":456,"x_min":83,"x_max":473,"o":"m 83 589 l 168 589 l 168 0 l 236 0 l 236 589 l 323 589 l 323 654 l 236 652 l 236 749 q 243 795 236 749 q 334 879 264 876 l 404 879 l 404 0 l 473 0 l 473 944 l 335 944 q 176 815 210 944 q 168 749 168 783 l 168 654 l 83 654 l 83 589 z "},"ƒ":{"ha":518,"x_min":35,"x_max":483,"o":"m 35 -228 l 52 -164 l 96 -164 q 191 -57 190 -163 l 191 587 l 106 587 l 106 652 l 191 652 l 191 728 q 256 884 191 819 q 400 944 316 943 l 483 944 l 468 879 l 430 879 q 260 719 262 876 l 260 651 l 350 652 l 350 587 l 260 587 l 260 -41 q 106 -228 260 -218 q 87 -228 96 -228 l 35 -228 z "},"⁄":{"ha":651,"x_min":4,"x_max":647,"o":"m 4 0 l 590 949 l 647 949 l 61 0 l 4 0 z "},"g":{"ha":591,"x_min":39,"x_max":537,"o":"m 39 -247 l 57 -180 l 305 -180 q 448 -109 400 -176 q 468 -53 468 -80 l 468 66 q 365 5 431 20 q 324 0 345 0 l 324 64 q 435 119 387 64 q 468 193 468 156 l 468 515 q 391 627 468 589 q 324 644 355 644 l 324 711 q 453 665 396 711 q 468 650 463 656 l 468 711 l 537 711 l 537 -53 q 486 -171 537 -110 q 327 -247 422 -245 l 39 -247 m 52 193 l 52 521 q 107 644 53 585 q 263 711 171 711 l 263 644 q 144 578 191 644 q 121 517 121 545 l 121 194 q 168 104 121 148 q 263 66 212 66 l 263 0 q 80 104 141 1 q 52 193 52 151 z "},"ğ":{"ha":591,"x_min":39,"x_max":537,"o":"m 194 883 l 243 883 q 273 841 243 850 q 286 840 281 840 q 328 869 319 840 q 330 883 330 878 l 378 883 q 342 812 378 841 q 286 793 316 793 q 202 849 228 793 q 194 883 194 868 m 39 -247 l 57 -180 l 305 -180 q 448 -109 400 -176 q 468 -53 468 -80 l 468 66 q 365 5 431 20 q 324 0 345 0 l 324 64 q 435 119 387 64 q 468 193 468 156 l 468 515 q 391 627 468 589 q 324 644 355 644 l 324 711 q 453 665 396 711 q 468 650 463 656 l 468 711 l 537 711 l 537 -53 q 486 -171 537 -110 q 327 -247 422 -245 l 39 -247 m 52 193 l 52 521 q 107 644 53 585 q 263 711 171 711 l 263 644 q 144 578 191 644 q 121 517 121 545 l 121 194 q 168 104 121 148 q 263 66 212 66 l 263 0 q 80 104 141 1 q 52 193 52 151 z "},"ß":{"ha":708,"x_min":35,"x_max":673,"o":"m 35 0 l 35 620 q 52 791 37 739 q 307 956 102 955 q 549 745 530 956 q 551 703 551 724 l 551 551 l 479 551 q 416 515 431 551 q 414 502 414 507 q 458 437 414 463 q 530 406 487 420 q 673 209 671 355 q 574 34 673 92 q 444 0 515 0 l 270 0 l 270 64 l 411 64 q 597 149 557 64 q 608 208 608 176 q 571 309 608 281 q 505 349 553 324 q 469 365 494 354 q 366 433 391 399 q 346 503 346 463 q 446 610 346 593 q 484 613 465 613 l 484 629 q 473 789 484 750 q 307 890 441 888 q 106 675 106 888 l 106 0 l 35 0 z "},"`":{"ha":247,"x_min":54,"x_max":175,"o":"m 54 1027 l 125 1027 l 175 821 l 125 821 l 54 1027 z "},">":{"ha":585,"x_min":53,"x_max":533,"o":"m 53 107 l 53 176 l 448 396 l 53 608 l 53 678 l 533 420 l 533 372 l 53 107 z "},"≥":{"ha":572,"x_min":37,"x_max":532,"o":"m 41 198 l 41 267 l 442 486 l 41 699 l 41 768 l 532 510 l 532 463 l 41 198 m 37 62 l 37 126 l 532 126 l 532 62 l 37 62 z "},"«":{"ha":642,"x_min":35,"x_max":608,"o":"m 35 377 l 35 410 l 321 621 l 321 540 l 122 396 l 321 245 l 321 164 l 35 377 m 321 377 l 321 410 l 608 621 l 608 540 l 408 396 l 608 245 l 608 164 l 321 377 z "},"»":{"ha":620,"x_min":20,"x_max":593,"o":"m 20 189 l 20 256 l 244 396 l 20 528 l 20 597 l 307 422 l 307 365 l 20 189 m 307 189 l 307 256 l 530 396 l 307 528 l 307 597 l 593 422 l 593 365 l 307 189 z "},"‹":{"ha":458,"x_min":95,"x_max":358,"o":"m 95 396 l 273 678 l 358 678 l 180 396 l 358 107 l 273 107 l 95 396 z "},"›":{"ha":458,"x_min":96,"x_max":361,"o":"m 96 107 l 274 396 l 96 678 l 183 678 l 361 396 l 183 107 l 96 107 z "},"h":{"ha":609,"x_min":54,"x_max":556,"o":"m 54 0 l 54 949 l 122 949 l 122 632 q 278 700 180 697 l 278 633 q 157 576 209 633 q 123 500 123 538 l 123 0 l 54 0 m 340 633 l 340 700 q 525 612 465 700 q 556 513 556 566 l 556 0 l 487 0 l 487 500 q 427 610 487 572 q 340 633 391 633 z "},"˝":{"ha":373,"x_min":134,"x_max":385,"o":"m 266 821 l 316 1027 l 385 1027 l 315 821 l 266 821 m 134 821 l 184 1027 l 254 1027 l 183 821 l 134 821 z "},"-":{"ha":541,"x_min":56,"x_max":484,"o":"m 56 365 l 56 433 l 484 433 l 484 365 l 56 365 z "},"i":{"ha":208,"x_min":58,"x_max":149,"o":"m 58 803 q 88 845 58 833 q 104 848 96 848 q 146 818 136 848 q 149 803 149 810 q 119 761 149 772 q 104 758 111 758 q 61 787 73 758 q 58 803 58 795 m 69 0 l 69 704 l 140 704 l 140 0 l 69 0 z "},"í":{"ha":236,"x_min":85,"x_max":214,"o":"m 95 792 l 145 998 l 214 998 l 144 792 l 95 792 m 85 0 l 85 700 l 153 700 l 153 0 l 85 0 z "},"î":{"ha":236,"x_min":-8,"x_max":245,"o":"m -8 792 l 94 998 l 142 998 l 245 792 l 189 792 l 118 936 l 49 792 l -8 792 m 85 0 l 85 700 l 153 700 l 153 0 l 85 0 z "},"ï":{"ha":236,"x_min":-1,"x_max":239,"o":"m -1 837 q 28 879 -1 867 q 45 882 37 882 q 88 849 79 882 q 90 837 90 842 q 58 793 90 803 q 45 792 52 792 q 1 822 12 792 q -1 837 -1 830 m 148 837 q 178 879 148 867 q 194 882 186 882 q 237 849 228 882 q 239 837 239 844 q 208 793 239 803 q 194 792 201 792 q 151 822 161 792 q 148 837 148 830 m 85 0 l 85 700 l 153 700 l 153 0 l 85 0 z "},"ì":{"ha":236,"x_min":22,"x_max":153,"o":"m 22 998 l 92 998 l 142 792 l 92 792 l 22 998 m 85 0 l 85 700 l 153 700 l 153 0 l 85 0 z "},"ī":{"ha":236,"x_min":-95,"x_max":334,"o":"m -95 792 l -95 841 l 334 841 l 334 792 l -95 792 m 85 0 l 85 700 l 153 700 l 153 0 l 85 0 z "},"∞":{"ha":1082,"x_min":41,"x_max":1047,"o":"m 319 -1 l 319 65 q 412 114 381 65 q 423 134 419 125 l 509 350 l 423 566 q 338 633 401 623 q 319 635 328 635 l 319 700 q 457 636 403 700 q 484 593 475 616 l 545 437 l 605 591 q 708 688 632 659 q 770 699 739 699 l 770 633 q 677 585 708 633 q 666 564 670 574 l 581 350 l 666 136 q 751 66 688 77 q 770 65 761 65 l 770 0 q 632 64 686 0 q 606 107 616 85 l 545 263 l 483 106 q 380 9 456 37 q 319 -1 349 -1 m 263 -1 q 72 99 138 -1 q 41 191 41 148 l 41 510 q 98 631 41 572 q 263 700 164 700 l 263 635 q 129 559 174 635 q 109 492 109 525 l 109 209 q 159 109 109 157 q 263 65 206 65 l 263 -1 m 826 -3 l 826 64 q 955 138 905 64 q 979 208 979 175 l 979 491 q 926 598 979 553 q 826 633 883 633 l 826 699 q 1015 601 948 699 q 1047 509 1047 552 l 1047 190 q 993 68 1047 127 q 826 -3 926 -1 z "},"∫":{"ha":396,"x_min":7,"x_max":388,"o":"m 7 -194 q 123 -165 76 -214 q 172 -4 172 -114 l 172 848 q 271 1063 172 1001 q 388 1082 331 1099 l 388 1039 q 282 1016 331 1059 q 225 848 225 963 l 225 -4 q 126 -220 225 -161 q 7 -237 68 -254 l 7 -194 z "},"į":{"ha":208,"x_min":58,"x_max":269,"o":"m 269 -236 q 91 -134 141 -236 q 72 -52 72 -94 l 136 -52 q 205 -161 136 -130 q 269 -175 235 -175 l 269 -236 m 58 803 q 88 845 58 833 q 104 848 96 848 q 146 818 136 848 q 149 803 149 810 q 119 761 149 772 q 104 758 111 758 q 61 787 73 758 q 58 803 58 795 m 69 0 l 69 704 l 140 704 l 140 0 l 69 0 z "},"j":{"ha":248,"x_min":-57,"x_max":193,"o":"m 110 704 l 180 704 l 180 -49 q 129 -175 180 -113 q -26 -248 66 -247 l -57 -248 l -41 -182 l -23 -182 q 85 -117 43 -178 q 110 -49 110 -83 l 110 704 m 102 803 q 133 845 102 836 q 148 848 141 848 q 190 818 179 848 q 193 803 193 810 q 163 761 193 772 q 148 758 155 758 q 104 788 115 758 q 102 803 102 796 z "},"k":{"ha":628,"x_min":54,"x_max":601,"o":"m 54 0 l 54 949 l 126 949 l 126 0 l 54 0 m 157 354 l 505 707 l 601 707 l 254 354 l 601 0 l 505 0 l 157 354 z "},"l":{"ha":187,"x_min":57,"x_max":130,"o":"m 57 0 l 57 949 l 130 949 l 130 0 l 57 0 z "},"ĺ":{"ha":187,"x_min":57,"x_max":189,"o":"m 69 1040 l 119 1246 l 189 1246 l 118 1040 l 69 1040 m 57 0 l 57 949 l 130 949 l 130 0 l 57 0 z "},"ľ":{"ha":218,"x_min":56,"x_max":324,"o":"m 205 751 l 255 958 l 324 958 l 274 751 l 205 751 m 56 0 l 56 949 l 129 949 l 129 0 l 56 0 z "},"<":{"ha":585,"x_min":53,"x_max":533,"o":"m 53 372 l 53 420 l 533 678 l 533 608 l 138 396 l 533 176 l 533 107 l 53 372 z "},"≤":{"ha":572,"x_min":24,"x_max":532,"o":"m 515 198 l 24 463 l 24 510 l 515 768 l 515 699 l 113 486 l 515 267 l 515 198 m 37 62 l 37 126 l 532 126 l 532 62 l 37 62 z "},"¬":{"ha":686,"x_min":54,"x_max":618,"o":"m 54 492 l 54 557 l 618 557 l 618 282 l 551 282 l 551 492 l 54 492 z "},"◊":{"ha":576,"x_min":-4,"x_max":567,"o":"m -4 477 l 260 958 l 309 958 l 567 477 l 302 -3 l 254 -3 l -4 477 m 66 477 l 278 83 l 498 477 l 283 872 l 66 477 z "},"ł":{"ha":575,"x_min":133,"x_max":448,"o":"m 254 -1 l 326 -1 l 326 490 l 448 583 l 406 637 l 326 576 l 326 948 l 254 948 l 254 521 l 133 427 l 175 373 l 254 434 l 254 -1 z "},"m":{"ha":960,"x_min":52,"x_max":909,"o":"m 52 0 l 52 518 q 110 662 52 604 q 252 713 165 713 l 252 644 q 136 572 170 644 q 122 509 122 543 l 122 0 l 52 0 m 312 644 l 312 713 q 467 644 414 713 q 480 625 473 635 q 591 708 525 693 q 647 713 617 713 l 647 644 q 530 574 566 644 q 515 509 515 543 l 515 0 l 445 0 l 445 509 q 381 627 445 590 q 312 644 350 644 m 707 644 l 707 713 q 887 604 833 713 q 909 518 909 560 l 909 0 l 838 0 l 838 509 q 772 628 838 593 q 707 644 742 644 z "},"¯":{"ha":692,"x_min":53,"x_max":663,"o":"m 53 1029 l 663 1029 l 663 966 l 53 966 l 53 1029 z "},"−":{"ha":564,"x_min":56,"x_max":484,"o":"m 56 365 l 56 433 l 484 433 l 484 365 l 56 365 z "},"×":{"ha":705,"x_min":151,"x_max":753,"o":"m 199 264 l 151 316 l 400 566 l 151 815 l 201 867 l 450 617 l 703 868 l 753 817 l 502 566 l 753 313 l 703 262 l 450 515 l 199 264 z "},"n":{"ha":617,"x_min":52,"x_max":566,"o":"m 52 0 l 52 518 q 110 644 52 583 q 279 713 179 713 l 279 643 q 153 585 205 643 q 122 510 122 548 l 122 0 l 52 0 m 338 643 l 338 713 q 530 613 460 713 q 566 518 566 563 l 566 0 l 494 0 l 494 510 q 449 597 494 553 q 338 643 401 643 z "},"ń":{"ha":617,"x_min":52,"x_max":566,"o":"m 283 796 l 334 1002 l 403 1002 l 332 796 l 283 796 m 52 0 l 52 518 q 110 644 52 583 q 279 713 179 713 l 279 643 q 153 585 205 643 q 122 510 122 548 l 122 0 l 52 0 m 338 643 l 338 713 q 530 613 460 713 q 566 518 566 563 l 566 0 l 494 0 l 494 510 q 449 597 494 553 q 338 643 401 643 z "},"ň":{"ha":617,"x_min":52,"x_max":566,"o":"m 180 1002 l 237 1002 l 308 859 l 377 1002 l 434 1002 l 332 796 l 283 796 l 180 1002 m 52 0 l 52 518 q 110 644 52 583 q 279 713 179 713 l 279 643 q 153 585 205 643 q 122 510 122 548 l 122 0 l 52 0 m 338 643 l 338 713 q 530 613 460 713 q 566 518 566 563 l 566 0 l 494 0 l 494 510 q 449 597 494 553 q 338 643 401 643 z "},"≠":{"ha":567,"x_min":68,"x_max":499,"o":"m 109 -94 l 179 -94 l 267 281 l 499 281 l 499 350 l 283 350 l 305 441 l 499 441 l 499 510 l 321 510 l 415 909 l 346 909 l 251 510 l 68 510 l 68 441 l 235 441 l 213 350 l 68 350 l 68 281 l 197 281 l 109 -94 z "},"ñ":{"ha":617,"x_min":52,"x_max":566,"o":"m 118 821 l 118 884 q 213 914 171 914 q 309 883 247 914 q 391 859 357 859 q 499 897 438 860 l 499 834 q 385 796 437 796 q 285 827 349 796 q 208 850 239 850 q 118 821 165 849 m 52 0 l 52 518 q 110 644 52 583 q 279 713 179 713 l 279 643 q 153 585 205 643 q 122 510 122 548 l 122 0 l 52 0 m 338 643 l 338 713 q 530 613 460 713 q 566 518 566 563 l 566 0 l 494 0 l 494 510 q 449 597 494 553 q 338 643 401 643 z "},"#":{"ha":1017,"x_min":52,"x_max":963,"o":"m 52 289 l 65 354 l 300 354 l 342 598 l 98 598 l 109 663 l 353 663 l 399 925 l 468 925 l 422 663 l 661 663 l 705 925 l 774 925 l 730 663 l 963 663 l 954 597 l 718 598 l 675 353 l 916 353 l 907 288 l 663 289 l 618 30 l 549 30 l 594 289 l 357 289 l 311 30 l 241 30 l 288 289 l 52 289 m 369 354 l 606 353 l 648 598 l 411 598 l 369 354 z "},"o":{"ha":604,"x_min":52,"x_max":552,"o":"m 52 194 l 52 517 q 109 640 52 581 q 277 709 176 709 l 277 642 q 141 566 186 642 q 122 499 122 532 l 122 212 q 174 109 122 157 q 277 66 220 66 l 277 -1 q 84 100 151 -1 q 52 194 52 149 m 334 -1 l 334 66 q 461 144 418 66 q 481 209 481 178 l 481 499 q 430 605 481 559 q 334 642 388 642 l 334 709 q 521 610 456 709 q 552 517 552 562 l 552 194 q 496 69 552 129 q 334 -1 431 0 z "},"ó":{"ha":604,"x_min":52,"x_max":552,"o":"m 281 792 l 331 998 l 400 998 l 330 792 l 281 792 m 52 194 l 52 517 q 109 640 52 581 q 277 709 176 709 l 277 642 q 141 566 186 642 q 122 499 122 532 l 122 212 q 174 109 122 157 q 277 66 220 66 l 277 -1 q 84 100 151 -1 q 52 194 52 149 m 334 -1 l 334 66 q 461 144 418 66 q 481 209 481 178 l 481 499 q 430 605 481 559 q 334 642 388 642 l 334 709 q 521 610 456 709 q 552 517 552 562 l 552 194 q 496 69 552 129 q 334 -1 431 0 z "},"ô":{"ha":604,"x_min":52,"x_max":552,"o":"m 178 792 l 279 998 l 328 998 l 431 792 l 374 792 l 304 936 l 235 792 l 178 792 m 52 194 l 52 517 q 109 640 52 581 q 277 709 176 709 l 277 642 q 141 566 186 642 q 122 499 122 532 l 122 212 q 174 109 122 157 q 277 66 220 66 l 277 -1 q 84 100 151 -1 q 52 194 52 149 m 334 -1 l 334 66 q 461 144 418 66 q 481 209 481 178 l 481 499 q 430 605 481 559 q 334 642 388 642 l 334 709 q 521 610 456 709 q 552 517 552 562 l 552 194 q 496 69 552 129 q 334 -1 431 0 z "},"ö":{"ha":604,"x_min":52,"x_max":552,"o":"m 184 837 q 214 879 184 867 q 231 882 222 882 q 274 849 264 882 q 275 837 275 844 q 244 793 275 803 q 231 792 237 792 q 187 822 198 792 q 184 837 184 830 m 334 837 q 363 879 334 867 q 380 882 372 882 q 423 849 414 882 q 425 837 425 844 q 393 793 425 803 q 380 792 387 792 q 336 822 347 792 q 334 837 334 830 m 52 194 l 52 517 q 109 640 52 581 q 277 709 176 709 l 277 642 q 141 566 186 642 q 122 499 122 532 l 122 212 q 174 109 122 157 q 277 66 220 66 l 277 -1 q 84 100 151 -1 q 52 194 52 149 m 334 -1 l 334 66 q 461 144 418 66 q 481 209 481 178 l 481 499 q 430 605 481 559 q 334 642 388 642 l 334 709 q 521 610 456 709 q 552 517 552 562 l 552 194 q 496 69 552 129 q 334 -1 431 0 z "},"œ":{"ha":1012,"x_min":39,"x_max":971,"o":"m 502 99 q 654 7 547 28 q 719 0 686 0 q 971 163 924 1 l 910 184 q 793 72 886 100 q 720 61 758 61 q 571 117 631 61 q 534 194 536 153 l 534 328 l 970 328 l 970 513 q 884 655 970 595 q 749 700 819 700 l 749 637 q 871 579 821 637 q 902 499 902 541 l 902 393 l 534 393 l 534 488 q 593 601 534 553 q 688 635 635 635 l 688 700 q 505 605 571 700 q 502 602 502 604 q 317 700 433 699 l 317 635 q 446 560 401 635 q 467 492 467 525 l 467 206 q 418 103 467 149 q 317 64 374 64 l 317 -1 q 502 99 435 0 m 39 191 q 94 71 39 130 q 262 -1 161 0 l 262 64 q 134 137 183 64 q 109 209 109 175 l 109 492 q 161 600 109 555 q 262 635 205 635 l 262 700 q 73 602 140 700 q 39 510 39 553 l 39 191 z "},"˛":{"ha":297,"x_min":-53,"x_max":144,"o":"m 144 -239 q -34 -137 16 -239 q -53 -54 -53 -96 l 11 -54 q 80 -164 11 -133 q 144 -178 110 -178 l 144 -239 z "},"ò":{"ha":604,"x_min":52,"x_max":552,"o":"m 208 998 l 278 998 l 328 792 l 278 792 l 208 998 m 52 194 l 52 517 q 109 640 52 581 q 277 709 176 709 l 277 642 q 141 566 186 642 q 122 499 122 532 l 122 212 q 174 109 122 157 q 277 66 220 66 l 277 -1 q 84 100 151 -1 q 52 194 52 149 m 334 -1 l 334 66 q 461 144 418 66 q 481 209 481 178 l 481 499 q 430 605 481 559 q 334 642 388 642 l 334 709 q 521 610 456 709 q 552 517 552 562 l 552 194 q 496 69 552 129 q 334 -1 431 0 z "},"ő":{"ha":604,"x_min":52,"x_max":552,"o":"m 349 792 l 399 998 l 468 998 l 397 792 l 349 792 m 217 792 l 267 998 l 336 998 l 266 792 l 217 792 m 52 194 l 52 517 q 109 640 52 581 q 277 709 176 709 l 277 642 q 141 566 186 642 q 122 499 122 532 l 122 212 q 174 109 122 157 q 277 66 220 66 l 277 -1 q 84 100 151 -1 q 52 194 52 149 m 334 -1 l 334 66 q 461 144 418 66 q 481 209 481 178 l 481 499 q 430 605 481 559 q 334 642 388 642 l 334 709 q 521 610 456 709 q 552 517 552 562 l 552 194 q 496 69 552 129 q 334 -1 431 0 z "},"ō":{"ha":604,"x_min":52,"x_max":552,"o":"m 91 792 l 91 841 l 519 841 l 519 792 l 91 792 m 52 194 l 52 517 q 109 640 52 581 q 277 709 176 709 l 277 642 q 141 566 186 642 q 122 499 122 532 l 122 212 q 174 109 122 157 q 277 66 220 66 l 277 -1 q 84 100 151 -1 q 52 194 52 149 m 334 -1 l 334 66 q 461 144 418 66 q 481 209 481 178 l 481 499 q 430 605 481 559 q 334 642 388 642 l 334 709 q 521 610 456 709 q 552 517 552 562 l 552 194 q 496 69 552 129 q 334 -1 431 0 z "},"½":{"ha":757,"x_min":0,"x_max":704,"o":"m 418 0 l 418 49 l 699 49 l 699 0 l 418 0 m 0 0 l 586 949 l 642 949 l 57 0 l 0 0 m 83 888 l 83 925 l 114 949 l 163 949 l 163 475 l 114 475 l 114 888 l 83 888 m 407 351 q 472 458 414 422 q 529 476 499 473 l 529 427 q 469 391 492 427 q 453 342 457 370 l 407 351 m 418 79 q 553 228 418 175 q 578 237 576 237 q 651 309 640 267 q 654 335 654 323 q 560 427 651 426 l 560 476 q 700 376 677 476 q 704 335 704 355 q 623 209 703 252 q 587 194 613 203 q 483 125 505 160 q 471 79 471 103 l 418 79 z "},"¼":{"ha":677,"x_min":0,"x_max":642,"o":"m 537 0 l 537 475 l 587 475 l 587 130 l 624 130 l 624 83 l 587 83 l 587 0 l 537 0 m 83 888 l 83 925 l 114 949 l 163 949 l 163 475 l 114 475 l 114 888 l 83 888 m 315 83 l 315 130 l 505 456 l 505 361 l 372 130 l 505 130 l 505 83 l 315 83 m 0 0 l 586 949 l 642 949 l 57 0 l 0 0 z "},"¹":{"ha":148,"x_min":12,"x_max":81,"o":"m 12 894 l 12 926 l 39 948 l 81 948 l 81 524 l 39 524 l 39 894 l 12 894 z "},"ª":{"ha":315,"x_min":27,"x_max":294,"o":"m 27 521 l 27 553 l 285 553 l 285 521 l 27 521 m 30 682 q 79 613 30 637 q 137 600 106 601 l 137 633 q 65 680 73 633 q 64 692 64 686 l 64 716 q 71 741 64 732 q 175 773 81 751 q 241 793 222 784 l 241 703 q 168 633 239 635 l 168 600 q 247 625 220 601 q 293 600 266 601 l 293 635 q 277 656 277 635 l 277 849 q 229 939 277 907 q 168 956 202 956 l 168 924 q 231 886 210 924 q 240 849 240 868 l 240 838 q 133 796 240 822 q 64 776 77 783 q 30 713 30 757 l 30 682 m 35 867 l 66 854 q 110 917 66 899 q 137 922 122 922 l 137 956 q 49 913 81 956 q 35 867 35 890 z "},"º":{"ha":312,"x_min":35,"x_max":277,"o":"m 35 551 l 35 586 l 277 586 l 277 551 l 35 551 m 49 722 l 49 864 q 87 930 49 902 q 149 949 115 949 l 149 920 q 84 876 100 920 q 80 857 80 865 l 80 728 q 113 675 80 697 q 149 665 130 665 l 149 635 q 57 690 84 635 q 49 722 49 708 m 174 635 l 174 665 q 235 707 217 665 q 240 727 240 718 l 240 857 q 208 910 240 891 q 174 920 191 920 l 174 949 q 263 895 236 949 q 271 864 271 879 l 271 722 q 233 654 271 682 q 174 635 208 635 z "},"ø":{"ha":583,"x_min":16,"x_max":662,"o":"m 16 95 l 94 164 q 90 194 90 179 l 90 510 q 146 631 90 572 q 312 700 213 700 l 312 635 q 178 557 221 635 q 159 492 159 524 l 159 224 l 503 543 q 399 632 471 616 q 368 635 382 635 l 368 700 q 556 597 494 700 q 559 591 557 593 l 620 647 l 662 602 l 581 529 q 583 507 583 515 l 583 191 q 528 68 583 127 q 368 -1 464 0 l 368 64 q 495 141 452 64 q 515 206 515 175 l 515 468 l 174 156 q 286 66 213 80 q 312 64 300 64 l 312 -1 q 125 95 190 -1 q 119 104 122 100 l 58 49 l 16 95 z "},"õ":{"ha":604,"x_min":52,"x_max":552,"o":"m 114 817 l 114 880 q 209 910 167 910 q 305 879 243 910 q 387 854 353 854 q 495 892 434 856 l 495 830 q 381 792 433 792 q 281 823 345 792 q 203 846 235 846 q 114 817 161 845 m 52 194 l 52 517 q 109 640 52 581 q 277 709 176 709 l 277 642 q 141 566 186 642 q 122 499 122 532 l 122 212 q 174 109 122 157 q 277 66 220 66 l 277 -1 q 84 100 151 -1 q 52 194 52 149 m 334 -1 l 334 66 q 461 144 418 66 q 481 209 481 178 l 481 499 q 430 605 481 559 q 334 642 388 642 l 334 709 q 521 610 456 709 q 552 517 552 562 l 552 194 q 496 69 552 129 q 334 -1 431 0 z "},"p":{"ha":609,"x_min":57,"x_max":559,"o":"m 198 0 l 198 68 l 335 68 q 472 138 431 68 q 488 197 488 167 l 488 511 q 437 604 488 562 q 324 642 389 642 l 190 642 l 190 709 l 324 709 q 526 609 457 709 q 559 515 559 560 l 559 191 q 499 65 559 123 q 334 0 433 0 l 198 0 m 57 -250 l 57 709 l 129 709 l 129 -250 l 57 -250 z "},"¶":{"ha":513,"x_min":47,"x_max":439,"o":"m 47 701 q 152 479 47 545 q 277 446 206 446 l 277 -7 l 327 -7 l 327 956 l 277 956 q 91 854 157 956 q 47 701 47 787 m 389 -7 l 439 -7 l 439 956 l 389 956 l 389 -7 z "},"(":{"ha":289,"x_min":54,"x_max":239,"o":"m 54 256 q 107 81 54 142 q 239 -12 149 34 l 239 30 q 137 148 163 77 q 121 258 121 195 l 121 321 l 119 708 q 191 891 119 840 q 237 920 201 898 l 237 962 q 119 891 151 921 q 54 692 54 825 l 54 256 z "},")":{"ha":298,"x_min":50,"x_max":244,"o":"m 50 -18 l 50 26 q 133 96 110 64 q 179 281 179 163 l 179 707 q 85 902 179 838 q 50 924 73 910 l 52 966 q 235 783 203 910 q 244 692 244 742 l 244 264 q 58 -14 244 66 q 50 -18 54 -16 z "},"∂":{"ha":570,"x_min":38,"x_max":532,"o":"m 38 191 l 38 510 q 95 631 38 572 q 260 700 161 700 l 260 635 q 126 557 171 635 q 106 491 106 524 l 106 209 q 156 109 106 157 q 260 64 203 64 l 260 -1 q 69 99 136 -1 q 38 191 38 148 m 95 924 l 95 968 q 465 850 369 968 q 532 609 532 765 l 532 191 q 476 68 532 127 q 316 -1 412 0 l 316 64 q 444 141 400 64 q 464 208 464 176 l 463 502 q 408 602 463 560 q 316 635 368 635 l 316 700 q 457 646 400 699 q 95 924 453 922 z "},"%":{"ha":458,"x_min":69,"x_max":387,"o":"m 69 793 q 103 840 69 827 q 119 842 111 842 q 167 810 155 842 q 170 793 170 802 q 138 747 170 761 q 119 743 129 743 q 73 774 87 743 q 69 793 69 784 m 76 -19 l 313 983 l 382 983 l 146 -19 l 76 -19 m 288 168 q 319 214 288 201 q 338 218 328 218 q 384 184 372 218 q 387 168 387 176 q 354 121 387 133 q 338 118 346 118 q 292 149 305 118 q 288 168 288 159 z "},".":{"ha":224,"x_min":53,"x_max":171,"o":"m 53 54 q 88 107 53 92 q 111 113 100 113 q 165 76 151 113 q 171 54 171 65 q 134 -1 171 15 q 111 -5 122 -5 q 57 31 73 -5 q 53 54 53 43 z "},"·":{"ha":224,"x_min":87,"x_max":205,"o":"m 87 450 q 122 503 87 488 q 145 509 133 509 q 201 472 184 509 q 205 450 205 461 q 168 396 205 411 q 145 391 157 391 q 91 427 107 391 q 87 450 87 439 z "},"‰":{"ha":1217,"x_min":26,"x_max":1191,"o":"m 163 477 l 163 525 q 90 597 113 529 q 75 708 75 642 l 75 745 q 137 895 76 859 q 164 903 151 902 l 164 951 q 45 846 79 947 q 26 716 26 792 q 130 483 26 519 q 163 477 146 477 m 205 477 q 319 570 282 480 q 342 716 342 628 q 239 944 342 906 q 203 951 221 949 l 203 903 q 273 846 245 902 q 293 745 292 803 l 293 708 q 220 528 293 553 q 205 525 212 526 l 205 477 m 661 0 l 661 47 q 587 119 610 52 q 572 231 572 165 l 572 267 q 635 418 574 381 q 662 426 648 425 l 662 473 q 543 369 576 469 q 524 239 524 315 q 628 5 524 42 q 661 0 644 0 m 703 0 q 817 92 780 3 q 840 239 840 151 q 736 467 840 429 q 701 473 719 472 l 701 426 q 770 369 743 425 q 791 267 789 326 l 791 231 q 718 50 791 76 q 703 47 709 49 l 703 0 m 1012 0 l 1012 47 q 939 119 962 52 q 924 231 924 165 l 924 267 q 986 418 925 381 q 1013 426 1000 425 l 1013 473 q 894 373 929 469 q 873 239 873 317 q 979 5 873 42 q 1012 0 996 0 m 1054 0 q 1168 92 1131 3 q 1191 239 1191 151 q 1088 467 1191 429 q 1053 473 1070 472 l 1053 426 q 1122 369 1095 425 q 1142 267 1141 326 l 1142 231 q 1069 50 1142 76 q 1054 47 1061 49 l 1054 0 m 117 0 l 174 0 l 758 949 l 703 949 l 117 0 z "},"π":{"ha":591,"x_min":-27,"x_max":623,"o":"m -27 632 l -27 700 l 623 700 l 623 632 l 500 632 l 500 193 q 567 62 500 76 q 604 60 582 60 l 604 -5 q 433 180 439 7 l 433 632 l 164 632 l 164 -4 l 95 -4 l 95 632 l -27 632 z "},"+":{"ha":609,"x_min":50,"x_max":559,"o":"m 50 365 l 50 433 l 267 433 l 267 675 l 336 675 l 336 433 l 559 433 l 559 365 l 336 365 l 336 118 l 267 118 l 267 365 l 50 365 z "},"±":{"ha":589,"x_min":39,"x_max":578,"o":"m 39 159 l 39 227 l 549 227 l 549 159 l 39 159 m 69 583 l 69 651 l 286 651 l 286 894 l 355 894 l 355 651 l 578 651 l 578 583 l 355 583 l 355 336 l 286 336 l 286 583 l 69 583 z "},"∏":{"ha":635,"x_min":8,"x_max":627,"o":"m 8 878 l 8 943 l 627 943 l 627 878 l 547 878 l 547 -190 l 480 -190 l 480 878 l 153 878 l 153 -190 l 87 -190 l 87 878 l 8 878 z "},"q":{"ha":601,"x_min":52,"x_max":544,"o":"m 277 0 q 83 99 149 0 q 52 191 52 146 l 52 515 q 110 644 52 586 q 277 709 175 709 l 411 709 l 411 642 l 277 642 q 137 566 180 642 q 122 511 122 537 l 122 197 q 182 94 122 133 q 274 68 221 68 l 401 68 l 401 0 l 277 0 m 472 -250 l 472 709 l 544 709 l 544 -250 l 472 -250 z "},"?":{"ha":647,"x_min":53,"x_max":595,"o":"m 53 829 q 240 948 132 928 q 308 954 273 954 q 552 826 477 954 q 595 666 593 757 q 580 566 595 612 q 539 490 564 519 q 484 439 514 461 q 423 405 453 416 q 368 386 393 393 q 328 377 343 378 l 312 374 l 312 113 l 244 113 l 244 441 q 511 576 457 445 q 528 666 528 617 q 438 846 528 787 q 307 884 382 884 q 99 781 176 883 l 53 829 m 235 14 q 264 56 235 45 q 279 58 273 58 q 320 28 309 58 q 323 14 323 20 q 294 -27 323 -16 q 279 -30 286 -30 q 237 0 248 -30 q 235 14 235 7 z "},"¿":{"ha":604,"x_min":16,"x_max":559,"o":"m 559 106 q 372 -14 480 7 q 304 -19 339 -19 q 60 109 134 -19 q 16 269 19 178 q 32 369 16 323 q 73 444 47 415 q 127 496 98 473 q 188 530 157 518 q 243 549 218 541 q 285 559 269 556 l 300 560 l 300 822 l 368 822 l 368 494 q 100 358 155 490 q 84 269 84 317 q 174 88 84 148 q 305 50 229 50 q 513 153 435 52 l 559 106 m 377 921 q 347 879 377 890 q 332 876 339 876 q 292 906 302 876 q 289 921 289 914 q 317 962 289 951 q 332 964 326 964 q 374 935 363 964 q 377 921 377 928 z "},"\"":{"ha":320,"x_min":54,"x_max":266,"o":"m 54 631 l 54 998 l 125 998 l 125 631 l 54 631 m 197 631 l 197 998 l 266 998 l 266 631 l 197 631 z "},"„":{"ha":332,"x_min":31,"x_max":277,"o":"m 157 -31 l 208 175 l 277 175 l 227 -31 l 157 -31 m 31 -31 l 81 175 l 151 175 l 100 -31 l 31 -31 z "},"“":{"ha":316,"x_min":52,"x_max":263,"o":"m 52 631 l 52 998 l 122 998 l 122 631 l 52 631 m 194 631 l 194 998 l 263 998 l 263 631 l 194 631 z "},"”":{"ha":316,"x_min":52,"x_max":263,"o":"m 52 631 l 52 998 l 122 998 l 122 631 l 52 631 m 194 631 l 194 998 l 263 998 l 263 631 l 194 631 z "},"‘":{"ha":175,"x_min":52,"x_max":122,"o":"m 52 631 l 52 998 l 122 998 l 122 631 l 52 631 z "},"’":{"ha":175,"x_min":52,"x_max":122,"o":"m 52 631 l 52 998 l 122 998 l 122 631 l 52 631 z "},"‚":{"ha":175,"x_min":52,"x_max":122,"o":"m 52 631 l 52 998 l 122 998 l 122 631 l 52 631 z "},"'":{"ha":179,"x_min":54,"x_max":125,"o":"m 54 631 l 54 998 l 125 998 l 125 631 l 54 631 z "},"r":{"ha":339,"x_min":57,"x_max":313,"o":"m 57 0 l 57 709 l 127 709 l 127 598 q 218 688 155 655 q 305 709 260 709 l 313 709 l 296 642 q 174 560 228 642 q 129 418 129 492 l 129 0 l 57 0 z "},"ŕ":{"ha":339,"x_min":57,"x_max":313,"o":"m 157 792 l 208 998 l 277 998 l 206 792 l 157 792 m 57 0 l 57 709 l 127 709 l 127 598 q 218 688 155 655 q 305 709 260 709 l 313 709 l 296 642 q 174 560 228 642 q 129 418 129 492 l 129 0 l 57 0 z "},"√":{"ha":772,"x_min":8,"x_max":758,"o":"m 8 696 l 236 776 l 498 126 l 686 1111 l 758 1111 l 551 -3 l 471 -3 l 189 692 l 27 635 l 8 696 z "},"ř":{"ha":339,"x_min":57,"x_max":313,"o":"m 58 998 l 115 998 l 186 854 l 255 998 l 312 998 l 210 792 l 161 792 l 58 998 m 57 0 l 57 709 l 127 709 l 127 598 q 218 688 155 655 q 305 709 260 709 l 313 709 l 296 642 q 174 560 228 642 q 129 418 129 492 l 129 0 l 57 0 z "},"®":{"ha":525,"x_min":45,"x_max":480,"o":"m 231 701 l 231 730 l 254 730 q 312 773 311 731 q 241 822 304 819 l 231 822 l 231 850 q 339 799 324 850 q 342 773 342 787 q 315 716 340 731 q 342 667 338 704 l 349 586 l 319 586 l 313 652 q 271 699 311 693 q 231 701 256 701 m 251 498 q 87 587 148 503 q 45 716 45 646 q 132 891 45 826 q 251 935 186 930 l 251 899 q 111 818 161 894 q 80 716 80 772 q 155 568 80 623 q 251 533 198 537 l 251 498 m 273 498 l 273 533 q 414 614 363 538 q 445 716 445 662 q 368 865 445 811 q 273 899 324 897 l 273 935 q 435 848 374 929 q 480 716 480 789 q 395 543 480 608 q 273 498 339 502 m 182 586 l 182 850 l 214 850 l 214 586 l 182 586 z "},"˚":{"ha":331,"x_min":69,"x_max":262,"o":"m 69 713 q 121 799 69 770 q 165 810 142 810 q 251 758 222 810 q 262 713 262 736 q 210 628 262 656 q 165 617 189 617 q 80 669 109 617 q 69 713 69 690 m 122 713 q 152 671 122 681 q 165 670 160 670 q 208 700 198 670 q 209 713 209 708 q 179 755 209 746 q 165 757 171 757 q 123 727 133 757 q 122 713 122 719 z "},"s":{"ha":570,"x_min":27,"x_max":543,"o":"m 27 187 l 95 199 q 170 84 95 129 q 250 60 210 61 l 250 -7 q 65 81 132 -7 q 27 187 27 133 m 33 503 q 142 685 33 627 q 247 712 194 712 l 247 644 q 137 591 183 644 q 102 503 102 552 q 168 430 102 456 q 373 376 194 419 q 391 372 382 373 q 543 225 533 335 q 543 212 543 218 q 444 30 543 91 q 307 -7 382 -7 l 307 60 q 430 110 377 60 q 473 210 473 152 q 361 307 473 271 q 189 349 354 309 q 167 354 176 351 q 34 479 47 389 q 33 503 33 491 m 305 643 l 305 712 q 487 627 419 712 q 530 515 530 574 l 463 505 q 374 625 463 585 q 305 643 336 643 z "},"ś":{"ha":570,"x_min":27,"x_max":543,"o":"m 251 793 l 301 1000 l 370 1000 l 300 793 l 251 793 m 27 187 l 95 199 q 170 84 95 129 q 250 60 210 61 l 250 -7 q 65 81 132 -7 q 27 187 27 133 m 33 503 q 142 685 33 627 q 247 712 194 712 l 247 644 q 137 591 183 644 q 102 503 102 552 q 168 430 102 456 q 373 376 194 419 q 391 372 382 373 q 543 225 533 335 q 543 212 543 218 q 444 30 543 91 q 307 -7 382 -7 l 307 60 q 430 110 377 60 q 473 210 473 152 q 361 307 473 271 q 189 349 354 309 q 167 354 176 351 q 34 479 47 389 q 33 503 33 491 m 305 643 l 305 712 q 487 627 419 712 q 530 515 530 574 l 463 505 q 374 625 463 585 q 305 643 336 643 z "},"š":{"ha":570,"x_min":33,"x_max":548,"o":"m 152 1000 l 209 1000 l 279 856 l 349 1000 l 406 1000 l 304 793 l 255 793 l 152 1000 m 33 187 l 100 199 q 175 84 100 129 q 255 60 216 61 l 255 -7 q 71 81 137 -7 q 33 187 33 133 m 38 503 q 148 685 38 627 q 252 712 199 712 l 252 644 q 142 591 189 644 q 107 503 107 552 q 174 430 107 456 q 378 376 199 419 q 396 372 388 373 q 548 225 538 335 q 548 212 548 218 q 449 30 548 91 q 312 -7 388 -7 l 312 60 q 435 110 382 60 q 479 210 479 152 q 366 307 479 271 q 194 349 359 309 q 172 354 182 351 q 39 479 53 389 q 38 503 38 491 m 311 643 l 311 712 q 492 627 425 712 q 536 515 536 574 l 468 505 q 380 625 468 585 q 311 643 342 643 z "},"§":{"ha":817,"x_min":73,"x_max":743,"o":"m 73 481 q 175 682 75 612 q 156 780 156 723 q 297 1006 156 944 q 412 1031 353 1031 l 548 1031 l 548 963 l 449 963 q 232 833 264 962 q 227 784 227 810 q 376 635 229 681 l 376 552 q 323 566 338 560 q 218 625 250 594 q 145 476 146 568 q 288 332 145 376 q 376 311 321 321 l 376 237 q 250 264 256 262 q 241 267 245 266 q 96 376 130 312 q 73 481 73 420 m 267 -117 l 362 -117 q 571 -19 519 -118 q 590 68 590 20 q 439 221 587 179 l 439 298 q 488 286 475 290 q 606 220 568 263 q 671 366 670 283 q 518 522 671 480 q 439 540 486 532 l 439 616 q 496 602 458 610 q 570 585 549 591 q 728 456 694 547 q 743 361 743 414 q 647 155 742 240 q 661 62 661 117 q 571 -129 661 -57 q 399 -186 499 -186 l 267 -186 l 267 -117 z "},";":{"ha":286,"x_min":68,"x_max":218,"o":"m 68 -31 l 118 175 l 186 175 l 136 -31 l 68 -31 m 130 430 q 160 472 130 461 q 175 475 168 475 q 216 445 205 475 q 218 430 218 437 q 190 389 218 400 q 175 387 182 387 q 133 416 144 387 q 130 430 130 423 z "},"අ":{"ha":734,"x_min":41,"x_max":693,"o":"m 518 -229 l 587 -229 l 587 0 l 670 0 l 670 73 l 587 73 l 587 575 q 650 703 587 662 q 693 720 670 715 l 680 789 q 541 685 583 765 q 326 785 464 783 q 134 703 205 785 q 91 618 103 666 l 157 597 q 271 707 180 681 q 330 715 300 715 q 490 642 439 715 q 518 545 518 600 l 347 545 q 79 420 153 545 q 41 270 41 357 q 190 31 41 96 q 349 0 260 0 l 444 0 l 444 71 l 349 71 q 134 179 187 71 q 115 270 115 221 q 228 454 115 407 q 335 473 274 473 l 518 473 l 518 -229 z "},"ආ":{"ha":1080,"x_min":41,"x_max":1039,"o":"m 518 -229 l 587 -229 l 587 0 l 670 0 l 670 73 l 587 73 l 587 575 q 650 703 587 662 q 693 720 670 715 l 680 789 q 541 685 583 765 q 326 785 464 783 q 134 703 205 785 q 91 618 103 666 l 157 597 q 271 707 180 681 q 330 715 300 715 q 490 642 439 715 q 518 545 518 600 l 347 545 q 79 420 153 545 q 41 270 41 357 q 190 31 41 96 q 349 0 260 0 l 444 0 l 444 71 l 349 71 q 134 179 187 71 q 115 270 115 221 q 228 454 115 407 q 335 473 274 473 l 518 473 l 518 -229 m 765 0 l 792 0 q 1032 178 998 0 q 1039 264 1039 217 l 1039 490 q 871 745 1039 709 q 792 753 836 753 l 765 753 l 765 682 l 792 682 q 951 589 916 682 q 966 487 966 547 l 966 264 q 822 72 966 84 q 792 71 807 71 l 765 71 l 765 0 z "},"ඈ":{"ha":1077,"x_min":41,"x_max":1036,"o":"m 518 -229 l 587 -229 l 587 0 l 670 0 l 670 73 l 587 73 l 587 575 q 650 703 587 662 q 693 720 670 715 l 680 789 q 541 685 583 765 q 326 785 464 783 q 134 703 205 785 q 91 618 103 666 l 157 597 q 271 707 180 681 q 330 715 300 715 q 490 642 439 715 q 518 545 518 600 l 347 545 q 79 420 153 545 q 41 270 41 357 q 190 31 41 96 q 349 0 260 0 l 444 0 l 444 71 l 349 71 q 134 179 187 71 q 115 270 115 221 q 228 454 115 407 q 335 473 274 473 l 518 473 l 518 -229 m 765 282 l 765 220 q 933 4 765 28 q 996 0 962 0 l 1036 0 l 1036 72 l 994 72 q 840 179 854 72 q 837 224 837 198 l 837 281 q 861 361 837 330 q 1036 505 899 410 l 1036 572 l 865 572 l 1036 712 l 1036 779 l 765 779 l 765 712 l 933 712 l 765 572 l 765 505 l 925 505 q 779 362 803 420 q 765 282 765 331 z "},"ඇ":{"ha":1076,"x_min":41,"x_max":1035,"o":"m 518 -229 l 587 -229 l 587 0 l 670 0 l 670 73 l 587 73 l 587 575 q 650 703 587 662 q 693 720 670 715 l 680 789 q 541 685 583 765 q 326 785 464 783 q 134 703 205 785 q 91 618 103 666 l 157 597 q 271 707 180 681 q 330 715 300 715 q 490 642 439 715 q 518 545 518 600 l 347 545 q 79 420 153 545 q 41 270 41 357 q 190 31 41 96 q 349 0 260 0 l 444 0 l 444 71 l 349 71 q 134 179 187 71 q 115 270 115 221 q 228 454 115 407 q 335 473 274 473 l 518 473 l 518 -229 m 994 0 l 1035 0 l 1035 72 l 993 72 q 836 251 838 81 l 836 408 q 857 524 836 486 q 1035 708 890 579 l 1035 779 l 764 779 l 764 707 l 936 707 q 791 552 819 602 q 764 411 764 500 l 764 252 q 909 12 764 60 q 994 0 948 0 z "},"ඓ":{"ha":1408,"x_min":41,"x_max":1367,"o":"m 338 694 q 506 567 483 694 l 575 585 q 498 720 564 666 q 366 765 441 765 l 282 765 q 56 605 104 765 q 41 503 41 556 l 41 269 q 146 20 41 83 q 255 -7 193 -7 l 283 -7 l 283 64 q 118 190 144 64 q 111 269 111 224 l 111 503 q 286 694 122 688 l 338 694 m 316 410 l 422 410 q 503 370 488 410 q 509 334 509 355 l 509 210 q 349 64 506 65 l 349 -7 l 380 -7 q 562 113 517 -7 q 579 213 579 159 l 579 346 q 460 479 579 469 q 434 480 448 480 l 316 480 l 316 410 m 709 541 l 772 525 q 876 587 803 583 q 982 533 948 587 q 998 475 998 507 l 647 475 l 647 410 l 757 410 q 704 259 704 350 q 792 64 704 138 q 986 -1 869 -1 l 986 72 q 798 175 849 72 q 779 260 779 214 q 837 391 779 350 q 899 410 865 410 l 1063 410 l 1063 479 q 1006 609 1062 563 q 878 654 955 654 q 730 586 777 654 q 709 541 716 566 m 1222 628 l 1222 690 q 1070 784 1105 692 q 1058 860 1058 818 l 1058 952 q 1270 833 1223 952 q 1293 675 1293 773 l 1293 328 q 1061 72 1286 76 l 1061 -1 q 1362 244 1326 -1 q 1367 328 1367 283 l 1367 701 q 1089 1023 1367 1008 q 1058 1024 1074 1024 l 997 1024 l 997 860 q 1104 655 997 712 q 1222 628 1156 629 z "},"ඖ":{"ha":1358,"x_min":41,"x_max":1320,"o":"m 237 -1 q 396 75 343 0 q 553 -1 448 0 q 724 85 673 -1 q 750 186 750 130 l 750 699 q 604 994 750 929 q 427 1024 533 1024 l 427 952 q 648 848 597 952 q 677 696 677 789 l 677 194 q 631 95 677 132 q 552 71 597 71 q 437 149 467 71 q 429 194 429 172 l 429 262 l 362 262 l 362 194 q 316 95 362 132 q 239 69 283 69 q 123 148 152 69 q 114 194 114 172 l 114 490 q 167 574 114 553 q 197 579 182 579 q 271 533 250 579 q 278 495 278 515 l 278 422 q 346 320 278 347 q 391 312 368 312 q 492 368 461 312 q 507 426 507 393 l 507 636 l 444 636 l 444 433 q 404 385 444 393 q 392 384 397 384 q 342 419 351 384 q 340 433 340 426 l 340 500 q 259 636 340 600 q 195 650 229 650 q 69 586 114 650 q 41 492 41 545 l 41 186 q 132 23 41 73 q 237 -1 179 -1 m 118 746 q 218 917 118 859 q 350 952 278 952 l 350 1024 q 133 944 225 1024 q 47 764 49 868 l 118 746 m 1088 -11 q 1272 68 1206 -11 q 1320 205 1320 125 l 1320 625 q 1244 755 1320 720 q 1185 769 1215 769 q 1073 708 1109 769 q 1054 631 1054 674 l 1054 566 q 1008 498 1054 513 q 986 495 997 495 q 924 536 941 495 q 918 566 918 549 l 918 765 l 854 765 l 854 560 q 930 433 854 467 q 986 420 958 420 q 1097 481 1062 420 q 1115 555 1115 514 l 1115 624 q 1164 692 1115 678 q 1183 694 1173 694 q 1245 652 1230 694 q 1251 624 1251 639 l 1251 203 q 1164 76 1251 111 q 1090 62 1128 62 q 951 123 998 62 q 924 203 924 159 l 924 274 l 854 274 l 854 205 q 963 19 854 77 q 1088 -11 1020 -11 z "},"බ":{"ha":799,"x_min":41,"x_max":758,"o":"m 41 241 q 164 18 41 61 q 286 0 214 0 l 286 72 q 134 136 168 72 q 113 243 113 176 l 113 382 q 184 513 113 479 q 236 525 209 525 q 342 461 308 525 q 359 382 359 427 l 359 191 q 457 18 359 69 q 555 -5 503 -5 q 718 72 661 -5 q 758 201 758 125 l 758 694 q 499 1021 758 998 q 452 1024 476 1024 l 435 1024 l 435 952 l 452 952 q 681 741 662 952 q 684 690 684 716 l 684 197 q 612 83 684 114 q 559 72 586 72 q 449 130 484 72 q 431 197 431 160 l 431 382 q 334 578 431 521 q 239 602 289 602 q 81 524 140 602 q 41 385 41 467 l 41 241 m 56 764 l 126 746 q 227 917 126 859 q 358 952 286 952 l 358 1024 q 141 944 233 1024 q 56 764 57 868 z "},"භ":{"ha":1009,"x_min":41,"x_max":968,"o":"m 469 427 l 469 488 q 595 689 469 663 q 639 693 616 693 l 639 765 q 441 667 502 764 q 304 762 403 747 q 270 765 286 765 q 123 699 172 765 q 102 652 109 677 l 165 636 q 269 699 199 693 q 376 643 343 699 q 391 586 391 617 l 41 586 l 41 517 l 159 517 q 95 340 95 458 l 95 266 q 199 33 95 106 q 349 -11 262 -11 l 349 61 q 184 168 228 61 q 167 266 167 212 l 167 338 q 273 509 167 480 q 349 517 305 517 l 397 517 q 396 487 396 506 l 396 362 l 465 362 q 585 213 585 361 q 425 61 582 62 l 425 -11 q 640 117 597 -11 q 652 201 652 155 l 652 232 q 545 415 652 377 q 469 427 511 427 m 715 -11 q 941 136 880 -11 q 968 290 968 202 l 968 464 q 845 732 968 662 q 715 765 788 765 l 715 693 q 892 528 867 693 q 897 464 897 498 l 897 290 q 781 72 897 114 q 715 61 750 61 l 715 -11 z "},"ච":{"ha":803,"x_min":41,"x_max":762,"o":"m 380 -1 l 380 71 q 191 174 243 71 q 172 260 172 214 q 229 389 172 347 q 293 410 258 410 l 457 410 l 457 479 q 400 609 456 563 q 271 654 349 654 q 123 586 171 654 q 103 541 110 566 l 165 525 q 270 587 197 583 q 376 533 342 587 q 392 475 392 507 l 41 475 l 41 410 l 151 410 q 98 259 98 350 q 186 64 98 138 q 380 -1 263 -1 m 456 -1 q 757 244 722 -1 q 762 328 762 283 l 762 699 q 543 1017 762 977 q 456 1024 502 1024 l 456 952 q 684 773 652 952 q 689 694 689 738 l 689 328 q 456 71 686 72 l 456 -1 m 164 746 q 252 910 164 848 q 380 952 312 952 l 380 1024 q 182 945 270 1024 q 94 764 95 867 l 164 746 z "},"ඡ":{"ha":848,"x_min":41,"x_max":803,"o":"m 382 -9 l 465 -9 q 769 109 703 -9 q 803 263 803 168 l 803 359 q 738 420 793 416 l 597 420 q 479 484 521 420 q 456 560 456 519 q 519 678 456 636 q 597 701 556 701 q 715 636 674 701 q 726 616 722 625 l 789 631 q 673 753 760 719 q 597 768 636 768 q 578 766 585 768 l 791 1047 l 719 1066 l 437 694 q 422 675 427 685 q 260 766 376 760 q 247 766 254 766 q 45 652 94 766 q 41 644 42 648 l 107 621 q 247 699 138 697 q 377 602 350 699 q 385 545 385 575 l 266 545 q 49 392 76 545 q 43 330 43 363 l 115 330 q 174 458 115 429 q 270 477 210 477 l 403 477 q 533 362 441 391 q 597 353 564 353 l 731 353 l 731 263 q 623 83 731 121 q 467 62 566 62 l 381 62 q 153 129 209 62 q 115 263 115 178 l 43 263 q 171 24 43 83 q 382 -9 248 -9 z "},"ද":{"ha":726,"x_min":41,"x_max":726,"o":"m 491 -277 q 304 -195 370 -277 q 260 -61 260 -138 l 331 -61 q 412 -189 331 -148 q 496 -208 452 -208 q 635 -136 590 -208 q 655 -87 648 -113 l 726 -104 q 590 -259 700 -217 q 491 -277 543 -277 m 41 270 q 190 515 41 449 q 347 545 258 545 l 518 545 q 419 697 518 655 q 330 715 378 715 q 182 647 232 715 q 157 597 164 624 l 91 618 q 231 769 119 727 q 327 785 277 785 q 532 696 458 785 q 587 529 587 628 l 587 473 l 335 473 q 132 359 179 473 q 115 270 115 319 q 224 95 115 144 q 349 71 278 71 l 401 71 q 609 205 548 72 l 675 187 q 468 7 623 39 q 401 0 434 0 l 349 0 q 92 104 175 0 q 41 270 41 172 z "},"ඩ":{"ha":848,"x_min":41,"x_max":807,"o":"m 298 -1 q 454 75 404 0 q 613 -1 506 0 q 781 84 730 -1 q 807 186 807 129 l 807 699 q 637 1004 807 944 q 492 1024 576 1024 l 492 952 q 712 830 665 952 q 732 694 732 774 l 732 194 q 686 95 732 132 q 609 71 654 71 q 494 152 521 71 q 487 194 487 174 l 487 262 l 419 262 l 419 194 q 373 95 419 132 q 297 71 342 71 q 182 151 210 71 q 174 194 174 174 l 174 316 q 248 407 174 400 q 269 408 258 408 l 487 408 l 487 479 q 430 609 486 562 q 300 654 378 654 q 153 587 202 654 q 132 541 138 566 l 195 525 q 300 587 227 583 q 406 533 372 587 q 422 475 420 507 l 41 475 l 41 408 l 134 408 q 100 316 100 389 l 100 186 q 193 23 100 72 q 298 -1 240 -1 m 113 764 l 183 746 q 283 917 183 857 q 416 952 345 952 l 416 1024 q 199 944 293 1024 q 113 764 114 868 z "},"ඪ":{"ha":848,"x_min":41,"x_max":807,"o":"m 298 -1 q 454 75 404 0 q 613 -1 506 0 q 781 84 730 -1 q 807 186 807 129 l 807 701 q 529 1023 807 1008 q 498 1024 513 1024 l 437 1024 l 437 860 q 543 656 437 713 q 662 628 594 629 l 662 690 q 510 784 545 692 q 498 860 498 818 l 498 952 q 709 833 663 952 q 732 675 732 773 l 732 194 q 686 95 732 132 q 609 71 654 71 q 494 152 521 71 q 487 194 487 174 l 487 262 l 419 262 l 419 194 q 373 95 419 132 q 297 71 342 71 q 182 151 210 71 q 174 194 174 174 l 174 316 q 248 407 174 400 q 269 408 258 408 l 487 408 l 487 479 q 430 609 486 562 q 300 654 378 654 q 153 587 202 654 q 132 541 138 566 l 195 525 q 300 587 227 583 q 406 533 372 587 q 422 475 420 507 l 41 475 l 41 408 l 134 408 q 100 316 100 389 l 100 186 q 193 23 100 72 q 298 -1 240 -1 z "},"ධ":{"ha":789,"x_min":41,"x_max":749,"o":"m 239 -1 q 395 75 345 0 q 553 -1 449 0 q 722 83 669 -1 q 749 186 749 127 l 749 699 q 572 1005 749 948 q 433 1024 513 1024 l 433 952 q 652 831 605 952 q 674 694 674 776 l 674 194 q 628 95 674 132 q 551 71 595 71 q 434 152 463 71 q 427 194 427 174 l 427 262 l 361 262 l 361 194 q 315 95 361 132 q 239 71 283 71 q 122 151 151 71 q 114 194 114 174 l 114 401 q 182 547 114 499 q 292 578 225 578 l 342 578 l 342 650 l 292 650 q 60 511 115 650 q 41 408 41 463 l 41 186 q 133 23 41 72 q 239 -1 180 -1 m 54 764 l 125 746 q 225 917 125 859 q 357 952 285 952 l 357 1024 q 142 945 235 1024 q 54 764 56 869 z "},"එ":{"ha":802,"x_min":41,"x_max":761,"o":"m 103 541 l 165 525 q 270 587 197 583 q 376 533 342 587 q 392 475 392 507 l 41 475 l 41 410 l 151 410 q 98 259 98 350 q 186 64 98 138 q 380 -1 263 -1 l 380 72 q 191 175 243 72 q 172 260 172 214 q 231 391 172 350 q 293 410 259 410 l 457 410 l 457 479 q 400 609 456 563 q 271 654 349 654 q 123 586 171 654 q 103 541 110 566 m 616 628 l 616 690 q 464 784 499 692 q 452 860 452 818 l 452 952 q 663 833 617 952 q 686 675 686 773 l 686 328 q 454 72 680 76 l 454 -1 q 755 244 720 -1 q 761 328 761 283 l 761 701 q 483 1023 761 1008 q 452 1024 467 1024 l 391 1024 l 391 860 q 498 655 391 712 q 616 628 549 629 z "},"ඒ":{"ha":802,"x_min":41,"x_max":761,"o":"m 41 410 l 151 410 q 98 259 98 350 q 186 64 98 138 q 380 -1 263 -1 l 380 72 q 191 175 243 72 q 172 260 172 214 q 231 391 172 350 q 293 410 259 410 l 457 410 l 457 479 q 400 609 456 563 q 271 654 349 654 q 123 586 171 654 q 103 541 110 566 l 165 525 q 270 587 197 583 q 376 533 342 587 q 392 475 392 507 l 41 475 l 41 410 m 391 860 q 498 655 391 712 q 616 628 549 629 l 616 690 q 464 784 499 692 q 452 860 452 818 l 452 952 q 663 833 617 952 q 686 675 686 773 l 686 328 q 454 72 680 76 l 454 -1 q 755 244 720 -1 q 761 328 761 283 l 761 701 l 761 703 l 761 1111 l 688 1111 l 688 940 q 452 1024 610 1024 l 391 1024 l 391 860 z "},"ෆ":{"ha":859,"x_min":41,"x_max":818,"o":"m 41 330 l 41 570 q 136 736 41 682 q 252 765 187 765 q 425 686 366 765 q 430 678 427 681 q 606 765 490 762 q 781 684 722 765 q 818 570 818 635 l 818 330 l 746 330 l 746 567 q 665 684 746 655 q 605 693 637 693 q 475 621 506 693 q 464 567 464 597 l 464 330 l 395 330 l 395 567 q 312 684 395 655 q 252 693 283 693 q 125 624 157 693 q 113 567 113 598 l 113 330 l 41 330 m 41 262 l 113 262 q 194 99 113 148 q 305 72 240 72 l 305 0 q 64 141 123 0 q 41 262 41 195 m 553 0 l 553 72 q 736 195 700 72 q 746 262 746 228 l 818 262 q 708 38 818 106 q 553 0 644 0 z "},"ග":{"ha":956,"x_min":41,"x_max":916,"o":"m 294 -11 l 294 61 q 126 190 164 61 q 113 290 113 235 l 113 463 q 237 686 113 650 q 294 693 264 693 l 294 765 q 71 623 132 765 q 41 464 41 555 l 41 290 q 161 23 41 96 q 294 -11 218 -11 m 661 -11 q 888 138 829 -11 q 916 290 914 205 l 916 464 q 789 734 914 663 q 661 765 734 765 l 661 693 q 837 540 807 693 q 844 463 844 503 l 844 290 q 730 73 844 117 q 661 61 699 61 l 661 -11 m 342 362 l 411 362 q 530 213 530 361 q 370 61 528 62 l 370 -11 q 586 114 540 -11 q 600 201 600 153 l 600 232 q 510 411 600 365 q 426 429 473 429 l 415 429 l 415 488 q 530 686 415 654 q 585 693 556 693 l 585 765 q 359 609 411 765 q 342 487 342 555 l 342 362 z "},"ඝ":{"ha":920,"x_min":41,"x_max":879,"o":"m 282 -1 q 452 179 450 1 q 491 216 461 213 q 530 179 528 206 q 700 -1 533 0 q 846 73 795 -1 q 879 191 879 123 l 879 262 l 807 262 l 807 194 q 742 76 807 107 q 697 66 720 66 q 589 161 601 66 q 587 197 587 179 q 534 274 587 262 q 499 277 518 277 l 484 277 q 397 224 408 277 q 395 195 395 210 q 308 68 395 80 q 285 66 297 66 q 190 126 220 66 q 175 194 175 157 l 175 262 l 103 262 l 103 191 q 194 22 103 72 q 282 -1 235 -1 m 113 644 l 179 621 q 319 699 210 697 q 448 614 418 699 q 457 560 457 589 l 457 545 l 41 545 l 41 477 l 137 477 q 103 388 103 458 l 103 328 l 175 328 l 175 384 q 250 476 175 469 q 270 477 259 477 l 712 477 q 804 418 791 477 q 807 384 807 401 l 807 328 l 879 328 l 879 389 q 791 536 879 507 q 715 545 758 545 l 528 545 l 528 560 q 595 682 528 648 q 666 699 625 699 q 804 621 776 697 l 872 644 q 666 766 822 765 q 496 689 552 766 q 492 682 494 685 q 319 766 434 762 q 113 644 161 765 z "},"හ":{"ha":956,"x_min":41,"x_max":916,"o":"m 415 427 l 415 488 q 541 689 415 663 q 585 693 562 693 l 585 765 q 388 670 450 764 q 252 762 350 747 q 218 765 235 765 q 71 699 119 765 q 49 652 56 677 l 113 636 q 217 699 146 693 q 324 644 290 699 q 339 587 338 618 l 292 587 q 47 418 81 586 q 41 336 41 380 l 41 266 q 144 34 41 107 q 294 -11 208 -11 l 294 61 q 132 165 175 61 q 113 266 113 210 l 113 335 q 218 506 113 477 q 294 514 251 514 l 343 514 q 342 487 342 505 l 342 362 l 412 362 q 530 213 530 361 q 370 61 528 62 l 370 -11 q 586 114 540 -11 q 600 201 600 153 l 600 232 q 498 412 600 372 q 415 427 461 427 m 661 -11 q 888 138 829 -11 q 916 290 914 205 l 916 464 q 789 734 914 663 q 661 765 734 765 l 661 693 q 837 540 807 693 q 844 463 844 503 l 844 290 q 730 73 844 117 q 661 61 699 61 l 661 -11 z "},"්":{"ha":152,"x_min":41,"x_max":111,"o":"m 41 840 l 41 1111 l 111 1111 l 111 840 l 41 840 z "},"ඉ":{"ha":755,"x_min":28,"x_max":715,"o":"m 262 0 l 385 0 q 684 171 609 0 q 715 338 715 243 l 715 514 q 593 734 715 665 q 441 773 525 773 l 419 773 l 419 701 q 609 623 551 701 q 643 506 643 575 l 643 343 q 487 88 643 148 q 373 69 434 69 l 262 69 l 262 0 m 95 -104 q 229 -255 119 -209 q 340 -277 282 -277 q 533 -199 461 -277 q 585 -61 585 -141 l 513 -61 q 429 -186 513 -142 q 336 -208 384 -208 q 195 -148 248 -208 q 164 -87 172 -121 l 95 -104 m 28 425 q 133 256 28 304 q 229 237 178 237 q 393 312 343 237 q 416 393 416 347 l 416 495 l 346 495 l 346 406 q 279 320 346 342 q 231 312 256 312 q 117 372 148 312 q 103 429 103 397 l 103 519 q 232 682 103 635 q 323 701 281 701 l 345 701 l 345 773 l 323 773 q 107 694 195 773 q 28 522 30 624 l 28 425 z "},"ඊ":{"ha":728,"x_min":41,"x_max":693,"o":"m 41 320 q 210 11 41 75 q 319 -8 260 -8 l 319 65 q 113 319 114 68 l 113 570 q 138 715 113 667 q 212 798 163 757 l 517 1054 l 431 1076 l 161 849 q 41 610 46 754 q 41 579 41 597 l 41 320 m 203 696 l 203 694 l 411 694 q 585 557 559 694 q 591 483 591 524 l 591 319 q 472 77 591 117 q 395 66 438 66 l 395 -7 q 636 137 581 -7 q 663 319 663 210 l 663 491 q 425 765 661 764 l 274 765 l 203 696 m 495 903 q 545 819 495 848 q 594 806 568 806 q 681 857 652 806 q 693 903 693 879 q 642 990 693 962 q 594 1002 618 1002 q 507 951 536 1002 q 495 903 495 928 m 68 1043 q 118 959 68 987 q 167 945 141 945 q 254 997 225 945 q 266 1043 266 1019 q 214 1130 266 1101 q 167 1142 191 1142 q 80 1090 109 1142 q 68 1043 68 1067 z "},"ජ":{"ha":846,"x_min":42,"x_max":802,"o":"m 42 644 l 109 621 q 248 699 138 697 q 377 614 347 699 q 387 560 387 589 l 387 545 l 264 545 q 47 392 75 545 q 42 330 42 363 l 114 330 q 167 457 114 426 q 267 477 203 477 l 572 477 q 719 411 692 477 q 730 330 730 381 l 802 330 q 692 529 802 490 q 570 545 643 545 l 456 545 l 456 560 q 524 682 456 648 q 594 699 555 699 q 734 621 705 697 l 800 644 q 594 766 747 762 q 570 765 579 766 l 784 1047 l 712 1066 l 435 700 q 425 685 429 692 l 422 682 q 248 766 363 762 q 46 652 95 766 q 42 644 43 648 m 380 -9 l 463 -9 q 769 110 701 -9 q 802 263 802 170 l 730 263 q 617 81 730 119 q 464 62 560 62 l 378 62 q 153 127 209 62 q 114 263 114 175 l 42 263 q 168 26 42 83 q 380 -9 245 -9 z "},"ඣ":{"ha":1503,"x_min":41,"x_max":1462,"o":"m 41 259 q 60 263 49 263 q 88 194 88 262 l 88 153 q 168 15 88 60 q 252 -7 208 -7 q 377 49 328 -5 q 518 -5 437 -5 q 661 65 613 -5 q 686 159 686 106 l 686 321 q 578 519 686 473 q 510 538 549 530 l 448 486 q 593 420 562 465 q 617 319 617 384 l 617 163 q 555 76 617 100 q 507 68 532 68 q 416 122 439 68 q 410 163 410 141 l 410 262 l 345 262 l 345 163 q 285 72 345 91 q 256 68 270 68 q 170 115 197 68 q 157 163 157 137 l 157 232 q 123 309 156 279 l 487 620 q 734 713 600 713 q 918 636 857 712 q 766 490 802 609 q 754 408 754 450 l 754 186 q 846 23 754 72 q 952 -1 894 -1 q 1108 75 1058 0 q 1267 -1 1162 0 q 1435 83 1382 -1 q 1462 186 1462 127 l 1462 699 q 1293 1002 1462 943 q 1141 1024 1229 1024 l 1141 952 q 1362 841 1313 952 q 1388 694 1388 783 l 1388 194 q 1341 96 1388 133 q 1263 71 1309 71 q 1147 152 1175 71 q 1141 194 1141 174 l 1141 262 l 1074 262 l 1074 194 q 1028 95 1074 132 q 952 71 997 71 q 836 151 864 71 q 827 194 827 174 l 827 401 q 894 547 827 499 q 1004 578 937 578 l 1031 578 q 840 770 989 730 q 743 783 793 783 q 437 673 579 781 l 429 666 q 309 758 397 735 q 250 766 279 766 q 75 671 136 766 q 45 610 56 643 l 111 590 q 248 693 160 685 q 366 633 326 693 q 374 620 370 627 l 41 336 l 41 259 m 793 871 l 864 845 q 1013 948 892 930 q 1063 952 1039 952 l 1063 1024 q 845 947 928 1024 q 793 871 810 913 z "},"ඥ":{"ha":1431,"x_min":41,"x_max":1431,"o":"m 1055 -1 l 1108 -1 q 1321 84 1238 -1 q 1382 186 1360 127 l 1316 203 q 1108 69 1253 71 l 1055 69 q 844 176 898 69 q 823 267 823 217 q 959 444 823 410 q 1042 453 997 453 l 1294 453 l 1294 509 q 941 777 1293 777 l 941 704 q 1217 571 1180 704 q 1222 524 1222 548 l 1053 524 q 779 395 846 524 q 764 361 769 378 q 625 429 718 427 l 614 429 l 614 488 q 738 681 614 629 q 854 704 789 703 l 867 704 l 867 777 l 854 777 q 587 655 667 774 q 541 487 541 586 l 541 362 l 610 362 q 730 213 730 361 q 570 61 727 62 l 570 -11 q 783 109 736 -11 q 788 123 785 117 q 1021 0 859 12 q 1055 -1 1039 -1 m 41 281 q 73 75 41 146 q 130 -18 94 30 l 203 8 q 115 187 126 99 q 111 281 111 220 l 111 389 q 144 601 111 538 q 315 693 193 690 q 240 464 240 612 l 240 290 q 361 23 240 96 q 494 -11 418 -11 l 494 61 q 326 190 363 61 q 312 290 312 235 l 312 463 q 437 686 312 650 q 494 693 464 693 l 494 765 l 359 765 q 79 629 142 765 q 41 389 41 549 l 41 281 m 1198 -278 q 1388 -195 1318 -278 q 1431 -106 1420 -156 l 1362 -88 q 1252 -202 1340 -176 q 1202 -209 1227 -209 q 1066 -146 1114 -209 q 1038 -62 1038 -110 l 966 -62 q 1073 -248 966 -190 q 1198 -278 1130 -278 z "},"ක":{"ha":1038,"x_min":41,"x_max":997,"o":"m 45 610 l 111 590 q 248 693 160 685 q 363 637 324 693 q 374 620 370 628 l 41 336 l 41 259 q 60 263 49 263 q 88 194 88 262 l 88 153 q 168 15 88 60 q 252 -7 208 -7 q 377 49 328 -5 q 518 -5 437 -5 q 661 65 613 -5 q 686 159 686 106 l 686 321 q 578 519 686 473 q 510 538 549 530 l 448 486 q 593 420 562 465 q 617 319 617 384 l 617 163 q 555 76 617 100 q 507 68 532 68 q 416 122 439 68 q 410 163 410 141 l 410 262 l 345 262 l 345 163 q 285 72 345 91 q 256 68 270 68 q 170 115 197 68 q 157 163 157 137 l 157 232 q 123 309 156 279 l 487 620 q 678 690 570 690 q 873 598 803 690 q 925 425 925 528 l 925 263 q 814 76 925 99 q 755 71 789 71 l 755 -1 q 977 119 930 -1 q 997 263 997 175 l 997 427 q 853 722 997 636 q 692 762 781 762 q 431 667 547 761 l 430 666 q 307 760 396 736 q 250 766 278 766 q 75 671 136 766 q 45 610 56 643 z "},"ඛ":{"ha":802,"x_min":41,"x_max":761,"o":"m 564 -7 q 723 72 667 -7 q 761 202 761 126 l 761 694 q 556 1013 761 967 q 454 1024 510 1024 l 435 1024 l 435 952 l 454 952 q 678 783 646 952 q 686 694 686 742 l 686 198 q 613 84 686 114 q 562 75 589 75 q 452 132 487 75 q 434 198 434 161 l 434 388 q 335 578 434 522 q 239 602 290 602 q 83 525 140 602 q 41 384 41 468 l 41 243 q 165 18 41 61 q 286 0 216 0 l 286 72 q 133 137 168 72 q 113 244 113 178 l 113 381 q 184 513 113 477 q 237 525 209 525 q 343 463 308 525 q 362 381 362 427 l 362 -88 l 434 -88 l 434 37 q 564 -7 491 -7 m 129 746 q 229 918 129 859 q 359 952 289 952 l 359 1024 q 145 944 236 1024 q 58 764 60 868 l 129 746 z "},"ල":{"ha":826,"x_min":41,"x_max":785,"o":"m 369 315 q 464 146 369 198 q 570 121 510 121 q 742 205 681 121 q 785 353 785 266 l 785 454 q 525 770 785 742 q 450 774 490 774 l 450 703 q 697 560 652 703 q 711 454 711 514 l 711 353 q 629 212 711 250 q 567 198 600 198 q 457 258 491 198 q 442 319 442 285 l 442 387 l 537 387 l 537 454 l 275 454 l 275 387 l 369 387 l 369 315 m 369 -229 l 369 -157 q 133 -12 186 -157 q 115 102 115 38 l 115 442 q 278 690 117 644 q 369 703 320 703 l 369 774 q 73 613 146 774 q 41 442 41 541 l 41 102 q 255 -216 41 -157 q 369 -229 308 -229 m 450 -159 l 450 -231 q 768 -14 696 -228 l 699 7 q 475 -159 642 -149 q 450 -159 463 -159 z "},"ළ":{"ha":826,"x_min":41,"x_max":799,"o":"m 148 564 l 216 578 q 315 699 218 697 q 403 637 380 699 q 411 591 410 616 l 472 591 q 533 693 473 670 q 567 699 551 699 q 663 616 651 699 q 665 593 665 605 l 732 593 q 613 761 732 735 q 564 766 590 766 q 441 705 483 765 q 317 766 399 765 q 160 669 197 766 q 148 594 148 635 l 148 564 m 41 104 q 217 -201 41 -125 q 384 -231 290 -231 l 384 -157 q 146 -37 210 -157 q 115 104 115 22 l 115 256 q 163 395 117 340 q 282 168 178 235 q 429 129 343 129 l 496 129 q 727 262 662 129 q 732 275 730 269 l 665 294 q 495 197 617 201 l 430 197 q 236 365 277 197 q 227 439 228 401 q 301 456 262 456 l 732 456 l 732 526 l 292 526 q 114 450 189 526 q 41 263 41 374 l 41 104 m 467 -159 l 467 -231 q 799 0 750 -228 l 728 19 q 467 -159 684 -157 z "},"ම":{"ha":779,"x_min":41,"x_max":738,"o":"m 41 342 l 41 449 q 127 629 41 581 q 197 648 160 648 q 307 586 271 648 q 324 513 324 553 l 324 433 q 363 385 324 393 q 376 384 370 384 q 426 419 416 384 q 427 433 427 426 l 427 636 l 491 636 l 491 426 q 422 320 491 347 q 376 312 399 312 q 275 366 305 312 q 262 422 262 392 l 262 506 q 217 574 262 557 q 194 578 205 578 q 119 517 141 578 q 110 454 110 490 l 110 342 q 262 81 110 127 q 332 71 296 71 l 332 -1 q 53 221 104 -1 q 41 342 41 277 m 408 -1 l 408 71 q 662 283 640 71 q 665 328 665 305 l 665 694 q 408 952 662 951 l 408 1024 q 732 772 694 1024 q 738 694 738 735 l 738 328 q 510 8 738 57 q 408 -1 464 -1 m 42 764 q 151 960 42 880 q 332 1024 236 1024 l 332 952 q 170 882 237 952 q 113 746 113 822 l 42 764 z "},"ා":{"ha":355,"x_min":41,"x_max":315,"o":"m 41 0 l 41 72 l 68 72 q 225 164 190 72 q 241 269 241 208 l 241 496 q 98 693 241 681 q 68 694 84 694 l 41 694 l 41 766 l 68 766 q 307 587 273 766 q 315 498 315 547 l 315 269 q 141 7 315 41 q 68 0 107 0 l 41 0 z "},"ෑ":{"ha":376,"x_min":64,"x_max":335,"o":"m 64 282 l 64 220 q 232 4 64 28 q 294 0 260 0 l 335 0 l 335 72 l 293 72 q 140 178 156 72 q 137 224 137 197 l 137 281 q 160 361 137 331 q 335 505 198 410 l 335 572 l 165 572 l 335 712 l 335 779 l 64 779 l 64 712 l 232 712 l 64 572 l 64 505 l 224 505 q 77 362 103 420 q 64 282 64 331 z "},"ැ":{"ha":353,"x_min":41,"x_max":312,"o":"m 271 0 l 312 0 l 312 72 l 270 72 q 113 251 115 81 l 113 408 q 134 524 113 486 q 312 708 167 579 l 312 779 l 41 779 l 41 707 l 213 707 q 68 552 96 602 q 41 411 41 500 l 41 252 q 186 12 41 60 q 271 0 225 0 z "},"ෛ":{"ha":1204,"x_min":41,"x_max":1164,"o":"m 338 694 q 506 567 483 694 l 575 585 q 498 720 564 666 q 366 765 441 765 l 282 765 q 56 605 104 765 q 41 503 41 556 l 41 269 q 146 20 41 83 q 255 -7 193 -7 l 283 -7 l 283 64 q 118 190 144 64 q 111 269 111 224 l 111 503 q 286 694 122 688 l 338 694 m 316 410 l 422 410 q 503 370 488 410 q 509 334 509 355 l 509 210 q 349 64 506 65 l 349 -7 l 380 -7 q 562 113 517 -7 q 579 213 579 159 l 579 346 q 460 479 579 469 q 434 480 448 480 l 316 480 l 316 410 m 922 699 q 1090 571 1067 699 l 1160 589 q 1082 724 1149 670 q 951 769 1025 769 l 867 769 q 640 609 689 769 q 625 507 625 560 l 625 273 q 731 24 625 87 q 840 -3 777 -3 l 868 -3 l 868 68 q 703 194 728 68 q 696 273 696 228 l 696 507 q 871 699 707 692 l 922 699 m 901 414 l 1006 414 q 1088 374 1073 414 q 1093 338 1093 359 l 1093 214 q 933 68 1090 69 l 933 -3 l 964 -3 q 1146 117 1101 -3 q 1164 217 1164 163 l 1164 350 q 1044 483 1164 473 q 1019 484 1032 484 l 901 484 l 901 414 z "},"ෞ":{"ha":1360,"x_min":41,"x_max":1324,"o":"m 338 694 q 506 567 483 694 l 575 585 q 498 720 564 666 q 366 765 441 765 l 282 765 q 56 605 104 765 q 41 503 41 556 l 41 269 q 146 20 41 83 q 255 -7 193 -7 l 283 -7 l 283 64 q 118 190 144 64 q 111 269 111 224 l 111 503 q 286 694 122 688 l 338 694 m 316 410 l 422 410 q 503 370 488 410 q 509 334 509 355 l 509 210 q 349 64 506 65 l 349 -7 l 380 -7 q 562 113 517 -7 q 579 213 579 159 l 579 346 q 460 479 579 469 q 434 480 448 480 l 316 480 l 316 410 m 1092 -11 q 1276 68 1208 -11 q 1324 205 1324 125 l 1324 625 q 1246 757 1322 722 q 1190 769 1219 769 q 1077 708 1114 769 q 1057 631 1057 674 l 1057 566 q 1010 498 1057 513 q 989 495 1000 495 q 926 536 944 495 q 921 566 921 549 l 921 765 l 859 765 l 859 560 q 933 433 859 467 q 989 420 960 420 q 1100 480 1063 420 q 1119 555 1119 513 l 1119 624 q 1168 692 1119 678 q 1187 694 1177 694 q 1249 651 1234 694 q 1253 624 1253 637 l 1253 203 q 1166 76 1253 111 q 1093 62 1133 62 q 954 123 1001 62 q 928 203 928 159 l 928 274 l 859 274 l 859 205 q 967 19 859 77 q 1092 -11 1024 -11 z "},"ෙ":{"ha":620,"x_min":41,"x_max":579,"o":"m 338 694 q 506 567 483 694 l 575 585 q 498 720 564 666 q 366 765 441 765 l 282 765 q 56 605 104 765 q 41 503 41 556 l 41 269 q 146 20 41 83 q 255 -7 193 -7 l 283 -7 l 283 64 q 118 190 144 64 q 111 269 111 224 l 111 503 q 286 694 122 688 l 338 694 m 316 410 l 422 410 q 503 370 488 410 q 509 334 509 355 l 509 210 q 349 64 506 65 l 349 -7 l 380 -7 q 562 113 517 -7 q 579 213 579 159 l 579 346 q 460 479 579 469 q 434 480 448 480 l 316 480 l 316 410 z "},"ේ":{"ha":966,"x_min":41,"x_max":925,"o":"m 338 694 q 506 567 483 694 l 575 585 q 498 720 564 666 q 366 765 441 765 l 282 765 q 56 605 104 765 q 41 503 41 556 l 41 269 q 146 20 41 83 q 255 -7 193 -7 l 283 -7 l 283 64 q 118 190 144 64 q 111 269 111 224 l 111 503 q 286 694 122 688 l 338 694 m 316 410 l 422 410 q 503 370 488 410 q 509 334 509 355 l 509 210 q 349 64 506 65 l 349 -7 l 380 -7 q 562 113 517 -7 q 579 213 579 159 l 579 346 q 460 479 579 469 q 434 480 448 480 l 316 480 l 316 410 m 854 840 l 925 840 l 925 1111 l 854 1111 l 854 840 z "},"ි":{"ha":0,"x_min":-791,"x_max":-81,"o":"m -791 817 l -791 854 q -696 1029 -791 968 q -552 1070 -633 1070 l -320 1070 q -125 983 -193 1070 q -81 854 -81 926 l -81 817 l -151 817 q -342 1000 -161 994 l -530 1000 q -720 817 -719 997 l -791 817 z "},"ී":{"ha":0,"x_min":-792,"x_max":-80,"o":"m -205 810 q -96 872 -132 810 q -80 936 -80 901 q -221 1100 -80 1069 q -296 1107 -256 1107 l -553 1107 q -738 1012 -665 1107 q -792 856 -792 940 l -792 817 l -722 817 q -585 1031 -722 1001 q -532 1036 -559 1036 l -328 1036 q -271 1034 -311 1036 q -328 932 -327 997 q -269 827 -328 863 q -205 810 -239 810 z "},"ෳ":{"ha":524,"x_min":18,"x_max":483,"o":"m 251 -11 q 65 68 132 -11 q 18 205 18 125 l 18 274 l 87 274 l 87 203 q 171 80 87 118 q 252 62 209 62 q 391 126 347 62 q 414 203 414 160 l 414 624 q 365 692 414 678 q 346 694 355 694 q 283 652 298 694 q 278 624 278 639 l 278 555 q 205 431 278 465 q 149 420 178 420 q 38 481 75 420 q 18 560 18 515 l 18 765 l 81 765 l 81 566 q 127 498 81 513 q 149 495 138 495 q 210 537 195 495 q 216 566 216 551 l 216 631 q 292 757 216 723 q 349 769 319 769 q 463 707 425 769 q 483 625 483 671 l 483 205 q 373 19 483 76 q 251 -11 317 -11 z "},"ෟ":{"ha":524,"x_min":18,"x_max":483,"o":"m 251 -11 q 65 68 132 -11 q 18 205 18 125 l 18 274 l 87 274 l 87 203 q 172 79 87 117 q 252 62 210 62 q 391 127 347 62 q 412 203 412 160 l 412 624 q 365 692 412 678 q 346 694 355 694 q 283 652 298 694 q 278 624 278 639 l 278 555 q 203 431 278 465 q 148 420 178 420 q 37 483 72 420 q 18 560 18 517 l 18 765 l 80 765 l 80 566 q 126 498 80 513 q 148 495 137 495 q 210 536 193 495 q 216 566 216 549 l 216 631 q 292 757 216 723 q 349 769 319 769 q 463 705 426 769 q 483 625 481 670 l 483 205 q 373 19 483 76 q 251 -11 317 -11 z "},"ො":{"ha":1066,"x_min":41,"x_max":1025,"o":"m 338 694 q 506 567 483 694 l 575 585 q 498 720 564 666 q 366 765 441 765 l 282 765 q 56 605 104 765 q 41 503 41 556 l 41 269 q 146 20 41 83 q 255 -7 193 -7 l 283 -7 l 283 64 q 118 190 144 64 q 111 269 111 224 l 111 503 q 286 694 122 688 l 338 694 m 316 410 l 422 410 q 503 370 488 410 q 509 334 509 355 l 509 210 q 349 64 506 65 l 349 -7 l 380 -7 q 562 113 517 -7 q 579 213 579 159 l 579 346 q 460 479 579 469 q 434 480 448 480 l 316 480 l 316 410 m 751 0 l 779 0 q 1020 191 989 0 q 1025 269 1025 227 l 1025 498 q 863 758 1025 719 q 779 766 825 766 l 751 766 l 751 694 l 779 694 q 936 601 902 694 q 952 496 952 557 l 952 269 q 810 73 952 87 q 779 72 795 72 l 751 72 l 751 0 z "},"ෝ":{"ha":1066,"x_min":41,"x_max":1025,"o":"m 338 694 q 506 567 483 694 l 575 585 q 498 720 564 666 q 366 765 441 765 l 282 765 q 56 605 104 765 q 41 503 41 556 l 41 269 q 146 20 41 83 q 255 -7 193 -7 l 283 -7 l 283 64 q 118 190 144 64 q 111 269 111 224 l 111 503 q 286 694 122 688 l 338 694 m 316 410 l 422 410 q 503 370 488 410 q 509 334 509 355 l 509 210 q 349 64 506 65 l 349 -7 l 380 -7 q 562 113 517 -7 q 579 213 579 159 l 579 346 q 460 479 579 469 q 434 480 448 480 l 316 480 l 316 410 m 751 0 l 779 0 q 1020 191 989 0 q 1025 269 1025 227 l 1025 498 q 863 758 1025 719 q 779 766 825 766 l 751 766 l 751 694 l 779 694 q 936 601 902 694 q 952 496 952 557 l 952 269 q 810 73 952 87 q 779 72 795 72 l 751 72 l 751 0 m 750 840 l 821 840 l 821 1111 l 750 1111 l 750 840 z "},"ෘ":{"ha":437,"x_min":16,"x_max":395,"o":"m 205 0 q 54 75 111 0 q 16 190 16 126 q 91 340 16 285 q 205 378 141 378 l 254 378 l 254 311 l 205 311 q 102 254 137 311 q 84 190 84 224 q 142 85 84 122 q 205 68 172 68 q 309 126 273 68 q 327 190 327 156 l 327 538 q 252 690 327 663 q 216 697 235 697 l 94 697 l 94 766 l 217 766 q 387 620 357 766 q 395 541 395 583 l 395 190 q 315 34 395 91 q 205 0 264 0 z "},"ෲ":{"ha":918,"x_min":42,"x_max":878,"o":"m 232 0 q 80 75 137 0 q 42 190 42 126 q 118 342 42 285 q 232 378 167 378 l 279 378 l 279 311 l 232 311 q 127 252 163 311 q 110 190 110 222 q 168 85 110 122 q 232 68 198 68 q 334 125 297 68 q 353 190 353 155 l 353 538 q 274 693 353 667 q 241 697 258 697 l 119 697 l 119 766 l 243 766 q 412 620 382 766 q 420 541 420 583 l 420 190 q 340 34 420 91 q 232 0 290 0 m 688 0 q 536 75 593 0 q 498 190 498 126 q 572 340 498 283 q 688 378 623 378 l 736 378 l 736 311 l 688 311 q 583 252 620 311 q 566 190 566 222 q 623 87 566 123 q 688 68 654 68 q 791 126 755 68 q 808 190 808 156 l 808 538 q 732 692 808 666 q 699 697 716 697 l 576 697 l 576 766 l 699 766 q 868 627 836 766 q 878 541 878 587 l 878 190 q 799 35 878 92 q 688 0 747 0 z "},"ු":{"ha":0,"x_min":-684,"x_max":-76,"o":"m -148 179 l -148 -206 l -361 -206 l -361 -278 l -76 -278 l -76 179 l -148 179 m -684 -206 l -684 -278 l -437 -278 l -437 -206 l -684 -206 z "},"ූ":{"ha":0,"x_min":-694,"x_max":-76,"o":"m -694 -151 l -694 -225 q -594 -271 -640 -271 q -506 -244 -568 -271 q -431 -225 -463 -225 l -431 -152 q -528 -180 -464 -152 q -593 -198 -567 -198 q -694 -151 -640 -197 m -148 -278 l -76 -278 l -76 167 l -148 167 l -148 -201 q -180 -186 -164 -193 q -210 -174 -197 -179 q -239 -166 -224 -170 q -264 -160 -254 -163 q -288 -156 -275 -157 q -308 -154 -300 -155 q -326 -153 -316 -153 q -339 -152 -335 -152 q -350 -152 -343 -152 l -355 -152 l -355 -225 q -148 -278 -247 -227 z "},"ඹ":{"ha":795,"x_min":41,"x_max":754,"o":"m 252 -15 q 73 90 130 -15 q 41 225 41 149 l 41 491 q 123 632 41 591 q 195 650 157 650 q 319 583 279 650 q 339 500 339 547 l 339 433 q 378 385 339 393 q 391 384 385 384 q 442 419 433 384 q 444 433 444 426 l 444 636 l 506 636 l 506 426 q 438 320 506 347 q 392 312 415 312 q 292 366 321 312 q 278 422 278 392 l 278 495 q 225 574 278 556 q 197 579 212 579 q 121 532 142 579 q 113 490 113 513 l 113 227 q 170 91 113 142 q 252 58 206 58 q 301 94 296 58 q 302 111 302 102 q 300 138 302 118 q 320 263 289 236 q 366 277 339 277 l 429 277 q 498 164 510 277 q 495 140 498 155 q 492 111 492 118 q 525 60 492 65 q 541 58 533 58 q 662 138 620 58 q 682 227 682 182 l 682 694 q 458 951 682 935 q 426 952 442 952 l 426 1024 q 751 758 720 1024 q 754 697 754 728 l 754 225 q 663 22 754 87 q 543 -15 610 -15 q 439 71 445 -14 q 445 175 439 87 q 396 220 433 217 q 350 175 354 210 q 353 130 350 164 q 355 71 355 85 q 252 -15 349 -14 m 119 746 l 50 764 q 165 966 50 888 q 351 1024 251 1024 l 351 952 q 170 876 237 952 q 119 746 119 821 z "},"න":{"ha":993,"x_min":41,"x_max":952,"o":"m 709 -3 q 929 114 883 -3 q 952 262 951 171 l 952 456 q 811 723 952 640 q 643 766 735 766 q 425 688 509 766 q 419 682 420 684 q 292 762 378 745 q 250 766 270 766 q 72 669 134 766 q 45 610 56 642 l 111 590 q 250 693 157 688 q 366 635 324 693 q 373 624 370 629 q 278 498 345 586 q 270 487 271 488 q 110 355 175 366 l 110 366 l 110 467 l 41 467 l 41 347 q 180 50 41 146 q 372 -7 264 -7 q 601 90 515 -7 q 670 281 670 168 q 578 490 670 412 q 491 538 540 522 l 449 481 q 593 281 591 423 q 492 99 593 157 q 373 66 438 66 q 171 163 245 66 q 118 279 133 213 q 320 434 208 289 q 342 461 331 446 l 448 601 q 636 692 518 690 q 822 612 749 692 q 880 453 880 547 l 880 262 q 770 75 880 98 q 709 69 745 69 l 709 -3 z "},"ඳ":{"ha":924,"x_min":41,"x_max":924,"o":"m 548 0 l 601 0 q 814 85 731 0 q 875 187 853 129 l 808 205 q 601 71 746 72 l 548 71 q 334 179 387 71 q 315 270 315 221 q 427 454 315 407 q 534 473 473 473 l 787 473 l 787 526 q 661 754 787 688 q 526 785 600 785 q 328 699 400 785 q 316 682 321 690 q 271 686 293 686 q 94 593 159 686 q 41 403 41 517 l 41 283 q 71 80 41 149 q 129 -15 91 34 l 202 11 q 115 189 126 102 q 111 283 111 221 l 111 403 q 179 578 111 518 q 275 613 221 613 q 340 602 304 613 l 355 597 q 468 707 378 680 q 528 715 498 715 q 686 643 635 715 q 716 544 716 601 l 547 544 q 278 420 354 544 q 240 270 240 357 q 389 31 240 96 q 548 0 460 0 m 690 -277 q 880 -194 811 -277 q 924 -104 913 -155 l 854 -87 q 745 -201 833 -175 q 694 -208 720 -208 q 559 -145 606 -208 q 530 -61 530 -109 l 458 -61 q 566 -247 458 -189 q 690 -277 623 -277 z "},"ඦ":{"ha":1048,"x_min":41,"x_max":1002,"o":"m 582 -9 l 665 -9 q 968 109 902 -9 q 1002 263 1002 168 l 930 263 q 822 83 930 121 q 666 62 765 62 l 581 62 q 353 129 408 62 q 315 263 315 178 l 243 263 q 370 24 243 83 q 582 -9 448 -9 m 130 -16 l 202 9 q 115 189 126 100 q 111 281 111 221 l 111 467 q 205 637 111 620 q 228 640 217 640 q 273 635 252 640 l 311 621 q 450 699 340 697 q 579 614 549 699 q 589 560 589 589 l 589 545 l 465 545 q 251 400 281 545 q 244 330 244 368 l 315 330 q 373 458 315 429 q 469 477 410 477 l 774 477 q 921 411 894 477 q 932 330 932 381 l 1002 330 q 892 529 1002 490 q 770 545 844 545 l 658 545 l 658 560 q 726 682 658 648 q 796 699 757 699 q 936 621 907 697 l 1002 644 q 796 766 949 762 q 772 765 780 766 l 986 1047 l 914 1066 l 644 709 q 623 682 635 700 q 449 766 566 765 q 283 707 343 765 q 225 712 259 712 q 62 600 106 712 q 41 471 41 545 l 41 281 q 71 80 41 149 q 130 -16 91 34 z "},"ඞ":{"ha":789,"x_min":41,"x_max":749,"o":"m 239 -1 q 395 75 345 0 q 553 -1 449 0 q 722 83 669 -1 q 749 186 749 127 l 749 699 q 586 1000 749 939 q 429 1024 521 1024 l 429 952 q 648 842 598 952 q 674 694 674 784 l 674 194 q 628 95 674 132 q 551 71 595 71 q 434 152 463 71 q 427 194 427 174 l 427 262 l 361 262 l 361 194 q 315 95 361 132 q 239 71 283 71 q 122 151 151 71 q 114 194 114 174 l 114 308 q 151 389 114 369 q 283 410 190 410 l 346 410 q 469 484 435 410 q 481 543 481 511 q 420 654 481 618 q 346 673 388 673 l 235 673 q 72 541 77 665 l 137 541 q 214 606 137 600 q 236 608 225 608 l 350 608 q 416 563 403 608 q 419 544 419 553 q 377 480 419 498 q 346 475 362 475 l 220 475 q 45 349 64 475 q 41 302 41 327 l 41 186 q 133 23 41 72 q 239 -1 180 -1 m 47 764 l 118 746 q 218 916 118 856 q 351 952 279 952 l 351 1024 q 137 945 229 1024 q 47 764 49 869 z "},"ණ":{"ha":1316,"x_min":12,"x_max":1275,"o":"m 12 11 l 81 -7 q 199 56 110 56 q 323 24 240 56 q 435 0 389 0 q 593 68 528 0 q 658 251 658 137 l 658 513 q 564 764 656 686 l 776 1044 l 696 1065 l 496 802 q 366 822 437 822 q 144 728 227 822 q 77 540 77 652 q 176 315 77 393 q 321 263 241 263 l 414 263 l 414 334 l 350 334 q 157 472 197 334 q 148 540 148 506 q 199 684 148 623 q 366 751 259 751 q 567 627 518 751 q 586 513 586 576 l 586 251 q 487 84 586 123 q 430 73 458 73 q 315 103 393 73 q 195 127 248 127 q 12 11 68 125 m 916 330 l 986 330 l 986 575 q 1051 682 986 655 q 1095 690 1073 690 q 1191 632 1162 690 q 1203 575 1203 606 l 1203 330 l 1275 330 l 1275 581 q 1181 746 1275 700 q 1096 765 1141 765 q 956 699 1006 765 q 952 692 954 694 q 810 765 901 762 q 694 724 742 764 l 726 655 q 807 690 758 690 q 902 633 872 690 q 916 571 916 605 l 916 330 m 728 218 q 846 27 728 90 q 1002 -9 916 -9 q 1217 72 1138 -9 q 1275 221 1275 133 l 1275 263 l 1203 263 l 1203 221 q 1103 81 1203 123 q 1001 62 1055 62 q 833 129 890 62 q 800 222 800 170 l 800 263 l 728 263 l 728 218 z "},"ඬ":{"ha":998,"x_min":41,"x_max":958,"o":"m 449 -1 q 605 75 555 0 q 764 -1 656 0 q 932 84 880 -1 q 958 186 958 129 l 958 699 q 789 1002 958 943 q 642 1024 728 1024 l 642 952 q 861 831 814 952 q 883 694 883 776 l 883 194 q 837 95 883 132 q 760 71 804 71 q 644 152 671 71 q 637 194 637 174 l 637 262 l 570 262 l 570 194 q 524 95 570 132 q 448 71 492 71 q 332 151 361 71 q 324 194 324 174 l 324 312 q 399 404 324 397 q 419 406 408 406 l 637 406 l 637 476 q 545 631 637 585 q 446 654 499 654 q 312 604 362 652 q 239 614 277 614 q 69 518 122 614 q 41 391 41 464 l 41 229 q 75 49 41 115 q 117 -15 92 18 l 189 12 q 111 180 118 95 q 110 225 110 201 l 110 385 q 191 533 110 503 q 241 541 213 541 q 309 532 273 541 l 339 522 q 446 585 370 582 q 553 530 518 585 q 570 471 568 503 l 194 471 l 195 406 l 285 406 q 251 312 251 384 l 251 186 q 343 23 251 72 q 449 -1 391 -1 m 263 764 l 334 746 q 434 917 334 859 q 566 952 495 952 l 566 1024 q 351 945 444 1024 q 263 764 264 869 z "},"ඟ":{"ha":1156,"x_min":41,"x_max":1115,"o":"m 41 283 q 71 80 41 149 q 129 -15 91 34 l 202 11 q 115 189 126 102 q 111 283 111 221 l 111 389 q 144 601 111 538 q 315 693 193 690 q 240 464 240 612 l 240 290 q 361 23 240 96 q 494 -11 418 -11 l 494 61 q 326 190 363 61 q 312 290 312 235 l 312 463 q 437 686 312 650 q 494 693 464 693 l 494 765 l 359 765 q 79 629 142 765 q 41 389 41 549 l 41 283 m 860 -11 q 1088 138 1028 -11 q 1115 290 1114 205 l 1115 464 q 989 734 1114 663 q 860 765 933 765 l 860 693 q 1036 540 1006 693 q 1043 463 1043 503 l 1043 290 q 929 73 1043 117 q 860 61 898 61 l 860 -11 m 541 362 l 610 362 q 730 213 730 361 q 570 61 727 62 l 570 -11 q 787 119 745 -11 q 799 201 799 157 l 799 232 q 709 411 799 365 q 625 429 673 429 l 614 429 l 614 488 q 730 686 614 654 q 784 693 755 693 l 784 765 q 559 609 610 765 q 541 487 541 555 l 541 362 z "},"ඤ":{"ha":1519,"x_min":41,"x_max":1519,"o":"m 235 259 q 254 263 244 263 q 282 194 282 262 l 282 153 q 362 15 282 60 q 446 -7 401 -7 q 571 49 522 -5 q 713 -5 631 -5 q 856 65 808 -5 q 878 118 871 90 q 1123 0 951 8 q 1143 0 1134 0 l 1196 0 q 1409 85 1326 0 q 1470 187 1449 129 l 1404 205 q 1196 71 1341 72 l 1143 71 q 929 179 982 71 q 910 270 910 221 q 1023 454 910 407 q 1130 473 1069 473 l 1382 473 l 1382 529 q 1173 785 1382 730 q 1029 803 1107 803 l 1029 731 q 1305 590 1271 731 q 1310 544 1310 568 l 1142 544 q 872 419 949 544 q 869 414 871 415 q 728 533 842 505 q 704 538 716 536 l 642 486 q 787 420 755 465 q 811 319 811 384 l 811 163 q 749 77 811 102 q 703 68 726 68 q 612 121 635 68 q 604 163 604 141 l 604 262 l 538 262 l 538 163 q 479 72 538 91 q 450 68 464 68 q 363 115 391 68 q 351 163 351 137 l 351 232 q 317 309 350 279 l 681 620 q 955 731 815 731 l 955 803 q 631 671 799 802 l 624 666 q 499 760 590 736 q 444 766 471 766 q 270 674 332 765 q 225 678 247 678 q 62 564 107 678 q 41 431 41 509 l 41 263 q 73 57 41 129 q 130 -35 94 12 l 203 -9 q 115 170 126 81 q 111 263 111 202 l 111 431 q 201 605 111 583 q 227 608 213 608 q 260 604 243 608 l 305 590 q 444 693 351 688 q 559 636 518 693 q 570 620 566 628 l 235 336 l 235 259 m 1286 -277 q 1476 -194 1407 -277 q 1519 -104 1508 -155 l 1450 -87 q 1340 -201 1428 -175 q 1290 -208 1316 -208 q 1154 -145 1202 -208 q 1126 -61 1126 -109 l 1054 -61 q 1161 -247 1054 -189 q 1286 -277 1218 -277 z "},"ඕ":{"ha":791,"x_min":41,"x_max":750,"o":"m 237 -1 q 396 75 343 0 q 553 -1 448 0 q 724 85 673 -1 q 750 186 750 130 l 750 643 q 658 849 750 796 q 472 884 591 884 l 254 884 q 168 937 187 884 q 164 964 164 951 q 213 1036 164 1016 q 254 1043 232 1043 l 369 1043 l 369 1111 l 251 1111 q 117 1044 163 1111 q 92 972 92 1010 q 129 884 94 917 l 81 884 l 81 814 l 472 814 q 644 762 604 814 q 677 629 677 720 l 677 194 q 631 95 677 132 q 552 71 597 71 q 437 149 467 71 q 429 194 429 172 l 429 262 l 362 262 l 362 194 q 316 95 362 132 q 239 69 283 69 q 123 148 152 69 q 114 194 114 172 l 114 490 q 167 574 114 553 q 197 579 182 579 q 271 533 250 579 q 278 495 278 515 l 278 422 q 346 320 278 346 q 392 312 369 312 q 492 366 461 312 q 507 426 507 393 l 507 636 l 444 636 l 444 433 q 404 385 444 393 q 392 384 397 384 q 342 419 351 384 q 340 433 340 426 l 340 500 q 259 636 340 600 q 195 650 229 650 q 69 586 114 650 q 41 492 41 545 l 41 186 q 132 23 41 73 q 237 -1 179 -1 m 674 913 l 745 913 q 701 1062 745 1019 q 530 1111 650 1111 l 444 1111 l 444 1043 l 525 1043 q 637 1020 610 1043 q 674 913 674 990 z "},"ඔ":{"ha":791,"x_min":41,"x_max":750,"o":"m 237 -1 q 396 75 343 0 q 553 -1 448 0 q 724 85 673 -1 q 750 186 750 130 l 750 699 q 604 994 750 929 q 427 1024 533 1024 l 427 952 q 648 848 597 952 q 677 696 677 789 l 677 194 q 631 95 677 132 q 552 71 597 71 q 437 149 467 71 q 429 194 429 172 l 429 262 l 362 262 l 362 194 q 316 95 362 132 q 239 69 283 69 q 123 148 152 69 q 114 194 114 172 l 114 490 q 167 574 114 553 q 197 579 182 579 q 271 533 250 579 q 278 495 278 515 l 278 422 q 346 320 278 347 q 391 312 368 312 q 492 368 461 312 q 507 426 507 393 l 507 636 l 444 636 l 444 433 q 404 385 444 393 q 392 384 397 384 q 342 419 351 384 q 340 433 340 426 l 340 500 q 259 636 340 600 q 195 650 229 650 q 69 586 114 650 q 41 492 41 545 l 41 186 q 132 23 41 73 q 237 -1 179 -1 m 118 746 q 218 917 118 859 q 350 952 278 952 l 350 1024 q 133 944 225 1024 q 47 764 49 868 l 118 746 z "},"ප":{"ha":842,"x_min":42,"x_max":802,"o":"m 42 644 l 109 621 q 248 699 138 697 q 377 614 347 699 q 387 560 387 589 l 387 545 l 264 545 q 47 392 75 545 q 42 330 42 363 l 114 330 q 167 457 114 426 q 267 477 203 477 l 572 477 q 719 411 692 477 q 730 330 730 381 l 802 330 q 692 529 802 490 q 570 545 643 545 l 456 545 l 456 560 q 524 682 456 648 q 594 699 555 699 q 734 621 705 697 l 800 644 q 594 766 747 762 q 429 692 483 766 q 422 682 425 686 q 248 766 363 762 q 46 652 95 766 q 42 644 43 648 m 380 -9 l 463 -9 q 769 110 701 -9 q 802 263 802 170 l 730 263 q 617 81 730 119 q 464 62 560 62 l 378 62 q 153 127 209 62 q 114 263 114 175 l 42 263 q 168 26 42 83 q 380 -9 245 -9 z "},"ඵ":{"ha":747,"x_min":41,"x_max":707,"o":"m 323 -1 l 323 72 q 140 159 198 72 q 113 248 113 201 q 186 388 113 355 q 350 410 237 410 l 422 410 l 422 483 q 328 633 422 589 q 236 654 285 654 q 88 585 136 654 q 68 541 75 564 l 132 525 q 236 587 165 582 q 340 536 307 587 q 357 477 357 510 q 123 433 190 477 q 95 408 107 422 q 41 247 41 353 q 133 64 41 138 q 323 -1 214 -1 m 335 860 q 441 656 335 713 q 560 628 492 629 l 560 690 q 408 789 441 692 q 397 860 397 821 l 397 952 q 610 830 564 952 q 632 675 632 770 l 632 328 q 399 72 629 73 l 399 -1 q 700 239 665 -1 q 707 328 707 281 l 707 701 q 429 1023 707 1008 q 397 1024 412 1024 l 335 1024 l 335 860 z "},"ර":{"ha":704,"x_min":41,"x_max":663,"o":"m 41 320 q 210 11 41 75 q 319 -8 260 -8 l 319 65 q 113 319 114 68 l 113 570 q 138 715 113 667 q 212 798 163 757 l 517 1054 l 431 1076 l 161 849 q 41 610 46 754 q 41 579 41 597 l 41 320 m 203 696 l 203 694 l 411 694 q 585 557 559 694 q 591 483 591 524 l 591 319 q 472 77 591 117 q 395 66 438 66 l 395 -7 q 636 137 581 -7 q 663 319 663 210 l 663 491 q 425 765 661 764 l 274 765 l 203 696 z "},"ස":{"ha":920,"x_min":41,"x_max":879,"o":"m 103 194 q 197 28 103 83 q 315 -1 250 -1 q 488 81 430 -1 q 491 85 490 84 q 652 -1 541 5 q 667 -1 661 -1 q 845 83 787 -1 q 879 194 879 132 l 879 263 l 807 263 l 807 197 q 720 77 807 104 q 667 71 696 71 q 537 142 568 71 q 526 197 526 167 l 526 263 l 456 263 l 456 197 q 369 77 456 103 q 315 71 343 71 q 184 142 216 71 q 175 197 175 167 l 175 263 l 103 263 l 103 194 m 113 644 l 179 621 q 319 699 210 697 q 448 614 418 699 q 457 560 457 589 l 457 545 l 41 545 l 41 477 l 137 477 q 103 387 103 458 l 103 330 l 175 330 q 175 340 175 334 q 175 358 175 346 q 176 380 175 370 l 176 388 q 248 476 176 469 q 270 477 259 477 l 712 477 q 802 423 788 477 q 806 388 806 407 q 807 330 807 387 l 879 330 l 879 389 q 791 536 879 507 q 715 545 758 545 l 528 545 l 528 560 q 595 682 528 648 q 666 699 625 699 q 804 621 776 697 l 872 644 q 666 766 822 765 q 496 689 552 766 q 492 682 494 685 q 319 766 434 762 q 113 644 161 765 z "},"ශ":{"ha":956,"x_min":41,"x_max":916,"o":"m 661 -11 q 888 138 829 -11 q 916 290 914 205 l 916 464 q 789 734 914 663 q 661 765 734 765 l 661 693 q 837 540 807 693 q 844 463 844 503 l 844 290 q 730 73 844 117 q 661 61 699 61 l 661 -11 m 294 -11 l 294 61 q 126 190 164 61 q 113 290 113 235 l 113 463 q 237 686 113 650 q 294 693 264 693 l 294 765 q 71 623 132 765 q 41 464 41 555 l 41 290 q 161 23 41 96 q 294 -11 218 -11 m 342 362 l 412 362 q 530 213 530 361 q 370 61 528 62 l 370 -11 q 585 114 538 -11 q 600 198 598 152 q 728 316 610 298 q 774 319 750 319 l 774 384 q 583 320 644 382 q 430 426 545 423 l 415 426 l 415 488 q 541 689 415 663 q 585 693 562 693 l 585 765 q 359 609 411 765 q 342 487 342 555 l 342 362 z "},"ෂ":{"ha":848,"x_min":41,"x_max":807,"o":"m 45 644 l 111 621 q 251 699 142 697 q 380 614 350 699 q 389 560 389 589 l 389 547 l 263 547 q 47 397 76 547 q 41 330 41 366 l 113 330 q 170 458 113 429 q 266 477 206 477 l 540 477 q 385 300 419 419 q 376 228 376 264 l 446 228 q 570 431 446 351 q 643 472 601 452 q 730 389 716 457 q 735 330 735 365 l 807 330 q 697 530 807 491 q 575 547 648 547 l 460 547 l 460 560 q 528 682 460 648 q 598 699 559 699 q 736 621 708 697 l 804 644 q 598 766 754 765 q 429 689 484 766 q 425 682 426 685 q 251 766 366 762 q 45 644 94 765 m 380 -9 l 469 -9 q 773 109 707 -9 q 807 263 807 168 l 735 263 q 627 83 735 121 q 471 62 570 62 l 377 62 q 152 127 208 62 q 113 263 113 175 l 41 263 q 168 24 41 83 q 380 -9 245 -9 z "},"ත":{"ha":1032,"x_min":41,"x_max":991,"o":"m 41 259 q 58 260 49 260 q 118 209 92 260 q 130 183 122 201 q 156 132 146 149 q 403 -7 233 0 q 423 -7 414 -7 q 658 119 591 -7 q 689 255 689 179 q 623 472 689 407 q 502 536 578 517 l 441 483 q 606 365 578 453 q 618 258 618 328 q 530 91 618 141 q 422 65 484 65 q 212 174 278 65 q 182 232 201 193 q 126 313 151 298 l 487 621 q 675 689 570 689 q 872 593 803 689 q 920 425 920 525 l 920 263 q 812 76 920 100 q 750 71 787 71 l 750 -1 q 971 119 925 -1 q 991 263 991 175 l 991 427 q 848 719 991 635 q 688 761 777 761 q 457 686 566 760 q 323 764 411 749 q 289 766 305 766 q 113 671 175 766 q 83 610 95 643 l 151 590 q 270 692 183 681 q 288 693 279 693 q 400 642 359 692 l 41 336 l 41 259 z "},"ථ":{"ha":741,"x_min":41,"x_max":700,"o":"m 330 860 q 435 656 330 713 q 555 628 487 629 l 555 690 q 403 784 438 692 q 391 860 391 818 l 391 952 q 602 833 556 952 q 625 675 625 773 l 625 328 q 393 72 618 76 l 393 -1 q 692 225 651 -1 q 700 328 700 273 l 700 701 q 422 1023 700 1008 q 391 1024 406 1024 l 330 1024 l 330 860 m 41 365 l 41 273 q 117 77 41 156 q 317 -1 193 -1 l 317 72 q 142 165 198 72 q 114 275 114 216 l 114 365 q 213 545 114 496 q 317 567 258 567 l 317 639 q 58 473 114 639 q 41 365 41 423 z "},"ට":{"ha":749,"x_min":41,"x_max":708,"o":"m 49 365 q 149 590 49 517 q 326 639 218 639 l 326 567 q 136 449 179 567 q 122 365 122 411 l 122 275 q 203 106 122 164 q 326 71 256 71 l 326 -1 q 84 134 156 -1 q 49 273 49 199 l 49 365 m 401 -1 l 401 71 q 633 297 620 71 q 635 328 635 312 l 635 696 q 453 949 635 924 q 401 952 429 952 l 401 1024 q 697 812 652 1024 q 708 699 708 762 l 708 326 q 429 -1 708 14 q 401 -1 415 -1 m 41 764 q 146 960 41 880 q 326 1024 231 1024 l 326 952 q 164 879 231 952 q 111 746 111 821 l 41 764 z "},"ඨ":{"ha":804,"x_min":56,"x_max":764,"o":"m 255 -1 q 411 75 361 0 q 570 -1 463 0 q 738 84 686 -1 q 764 186 764 129 l 764 701 q 486 1023 764 1008 q 454 1024 471 1024 l 393 1024 l 393 860 q 499 656 393 713 q 618 628 551 629 l 618 690 q 467 784 502 692 q 454 860 454 818 l 454 952 q 666 833 620 952 q 689 675 689 773 l 689 194 q 643 95 689 132 q 566 71 610 71 q 450 152 477 71 q 444 194 444 174 l 444 262 l 376 262 l 376 194 q 330 95 376 132 q 254 71 298 71 q 138 151 167 71 q 130 194 130 174 l 130 401 q 199 549 130 503 q 307 578 243 578 l 357 578 l 357 650 l 307 650 q 75 511 130 650 q 56 408 56 463 l 56 186 q 148 23 56 73 q 255 -1 195 -1 z "},"උ":{"ha":742,"x_min":41,"x_max":772,"o":"m 439 -156 q 693 -7 640 -156 q 703 24 699 9 l 772 5 q 492 -225 728 -202 q 439 -228 467 -228 l 439 -156 m 174 629 q 313 760 202 720 q 429 780 369 780 q 643 686 568 780 q 696 534 692 624 l 696 467 l 363 467 q 138 339 191 467 q 113 180 113 274 l 113 115 q 267 -132 113 -60 q 363 -157 324 -157 l 363 -229 q 151 -144 245 -229 q 41 115 41 -43 l 41 180 q 363 538 43 537 l 624 538 q 500 699 612 662 q 430 709 467 709 q 271 654 331 709 q 239 605 247 632 l 174 629 z "},"ඌ":{"ha":1272,"x_min":41,"x_max":1234,"o":"m 439 -156 q 693 -7 640 -156 q 703 24 699 9 l 772 5 q 492 -225 728 -202 q 439 -228 467 -228 l 439 -156 m 174 629 q 313 760 202 720 q 429 780 369 780 q 643 686 568 780 q 696 534 692 624 l 696 467 l 363 467 q 138 339 191 467 q 113 180 113 274 l 113 115 q 267 -132 113 -60 q 363 -157 324 -157 l 363 -229 q 151 -144 245 -229 q 41 115 41 -43 l 41 180 q 363 538 43 537 l 624 538 q 500 699 612 662 q 430 709 467 709 q 271 654 331 709 q 239 605 247 632 l 174 629 m 1002 -11 q 817 68 883 -11 q 769 205 769 125 l 769 274 l 838 274 l 838 203 q 924 79 838 117 q 1005 62 962 62 q 1142 125 1097 62 q 1165 203 1165 160 l 1165 624 q 1116 692 1165 678 q 1097 694 1107 694 q 1035 652 1050 694 q 1029 624 1029 639 l 1029 555 q 956 431 1029 465 q 901 420 929 420 q 789 481 826 420 q 769 560 769 515 l 769 765 l 833 765 l 833 566 q 879 498 833 513 q 901 495 890 495 q 963 536 945 495 q 968 566 968 549 l 968 631 q 1043 757 968 723 q 1100 769 1070 769 q 1214 707 1176 769 q 1234 625 1234 671 l 1234 205 q 1124 19 1234 76 q 1002 -11 1069 -11 z "},"ව":{"ha":750,"x_min":41,"x_max":709,"o":"m 327 -1 q 106 94 190 -1 q 45 247 45 163 q 99 408 46 354 q 305 476 159 471 q 361 477 331 477 q 292 578 361 549 q 239 587 266 587 q 138 533 167 587 q 134 525 136 528 l 72 541 q 187 647 94 624 q 240 654 213 654 q 393 585 340 654 q 426 483 426 541 l 426 410 l 353 410 q 151 361 197 410 q 117 248 117 324 q 190 111 117 164 q 327 71 247 71 l 327 -1 m 403 -1 l 403 71 q 636 328 635 73 l 636 694 q 460 948 636 921 q 403 952 433 952 l 403 1024 q 701 796 662 1024 q 709 699 709 751 l 709 328 q 498 7 709 52 q 403 -1 453 -1 m 41 764 q 148 962 41 880 q 327 1024 232 1024 l 327 952 q 164 879 231 952 q 111 746 111 821 l 41 764 z "},"ය":{"ha":859,"x_min":41,"x_max":818,"o":"m 41 194 q 133 30 41 84 q 252 -1 186 -1 q 426 81 368 -1 q 429 85 427 84 q 606 -1 488 0 q 783 80 723 -1 q 818 194 818 130 l 818 262 l 746 262 l 746 197 q 662 79 746 106 q 605 71 635 71 q 475 142 506 71 q 464 197 464 167 l 464 262 l 395 262 l 395 197 q 308 79 395 104 q 252 71 282 71 q 122 142 153 71 q 113 197 113 168 l 113 262 l 41 262 l 41 194 m 400 477 l 652 477 q 738 442 720 477 q 746 396 746 423 l 746 330 l 818 330 l 818 399 q 747 529 818 499 q 650 545 709 545 l 469 545 q 543 688 469 662 q 606 697 570 697 q 746 621 718 696 l 811 644 q 606 765 761 764 q 438 688 494 765 q 400 555 400 635 l 400 477 m 41 330 l 113 330 l 113 458 q 225 670 113 616 q 334 693 273 693 l 359 693 l 359 764 l 336 764 q 98 655 179 764 q 41 461 41 578 l 41 330 z "},"෴":{"ha":2022,"x_min":203,"x_max":1889,"o":"m 821 621 l 882 589 q 671 191 713 259 q 515 27 593 65 q 366 0 457 0 l 203 0 l 203 66 l 366 66 q 528 118 469 66 q 697 377 591 174 q 821 621 731 442 m 993 631 l 1054 598 l 760 0 l 697 33 l 993 631 m 1096 495 l 1157 464 l 928 0 l 865 33 l 1096 495 m 1097 0 l 1036 34 l 1200 369 q 1289 302 1230 347 q 1565 115 1476 160 q 1751 66 1666 66 l 1889 66 l 1889 0 l 1748 0 q 1397 133 1590 0 q 1225 262 1352 164 l 1097 0 z "},"ඏ":{"ha":1215,"x_min":41,"x_max":1175,"o":"m 567 -9 l 650 -9 q 935 80 860 -8 q 997 1 944 24 q 1039 -8 1017 -8 q 1131 45 1100 -8 q 1133 47 1133 46 q 1175 274 1175 130 l 1104 274 q 1096 186 1104 228 q 1039 202 1067 202 q 981 184 1006 201 q 987 263 987 227 l 916 263 q 807 83 916 121 q 651 62 750 62 l 564 62 q 338 130 392 62 q 300 263 300 178 l 228 263 q 235 184 228 224 q 176 202 208 202 q 119 184 145 201 q 111 274 111 229 l 41 274 q 83 50 41 133 q 176 -8 117 -3 q 269 46 239 -8 q 281 80 278 62 q 567 -9 357 -9 m 228 330 l 300 330 q 357 458 300 429 q 453 477 393 477 l 758 477 q 905 411 879 477 q 916 330 916 381 l 987 330 q 878 529 987 490 q 755 545 829 545 l 643 545 l 643 560 q 711 682 643 648 q 781 699 741 699 q 920 621 891 697 l 964 636 q 998 640 979 640 q 1103 521 1093 640 q 1104 494 1104 507 l 1104 340 l 1175 340 l 1175 496 q 1086 690 1175 639 q 1004 712 1048 712 q 949 705 981 712 q 781 766 890 766 q 616 694 671 766 q 608 682 612 688 q 434 766 549 762 q 266 705 326 765 q 212 712 235 712 q 64 614 107 712 q 41 496 41 563 l 41 340 l 111 340 l 111 494 q 217 640 123 631 q 250 636 236 640 l 296 621 q 434 699 326 697 q 563 614 533 699 q 572 560 572 589 l 572 545 l 450 545 q 233 392 260 545 q 228 330 228 363 z "},"ඐ":{"ha":1759,"x_min":41,"x_max":1723,"o":"m 41 274 q 83 50 41 133 q 176 -8 117 -3 q 269 46 239 -8 q 281 80 278 62 q 567 -9 357 -9 l 650 -9 q 935 80 860 -8 q 997 1 944 24 q 1039 -8 1017 -8 q 1131 45 1100 -8 q 1133 47 1133 46 q 1175 274 1175 130 l 1104 274 q 1096 186 1104 228 q 1039 202 1067 202 q 981 184 1006 201 q 987 263 987 227 l 916 263 q 807 83 916 121 q 651 62 750 62 l 564 62 q 338 130 392 62 q 300 263 300 178 l 228 263 q 235 184 228 224 q 176 202 208 202 q 119 184 145 201 q 111 274 111 229 l 41 274 m 228 330 l 300 330 q 357 458 300 429 q 453 477 393 477 l 758 477 q 905 411 879 477 q 916 330 916 381 l 987 330 q 878 529 987 490 q 755 545 829 545 l 643 545 l 643 560 q 711 682 643 648 q 781 699 741 699 q 920 621 891 697 l 964 636 q 998 640 979 640 q 1103 521 1093 640 q 1104 494 1104 507 l 1104 340 l 1175 340 l 1175 496 q 1086 690 1175 639 q 1004 712 1048 712 q 949 705 981 712 q 781 766 890 766 q 616 694 671 766 q 608 682 612 688 q 434 766 549 762 q 266 705 326 765 q 212 712 235 712 q 64 614 107 712 q 41 496 41 563 l 41 340 l 111 340 l 111 494 q 217 640 123 631 q 250 636 236 640 l 296 621 q 434 699 326 697 q 563 614 533 699 q 572 560 572 589 l 572 545 l 450 545 q 233 392 260 545 q 228 330 228 363 m 1489 -11 q 1675 68 1609 -11 q 1723 205 1723 125 l 1723 625 q 1645 757 1721 722 q 1588 769 1618 769 q 1476 708 1512 769 q 1455 631 1455 674 l 1455 566 q 1409 498 1455 513 q 1388 495 1398 495 q 1325 536 1343 495 q 1320 566 1320 549 l 1320 765 l 1256 765 l 1256 560 q 1332 433 1256 467 q 1388 420 1359 420 q 1499 480 1462 420 q 1518 555 1518 513 l 1518 624 q 1565 692 1518 678 q 1584 694 1575 694 q 1647 652 1632 694 q 1652 624 1652 639 l 1652 203 q 1565 76 1652 111 q 1492 62 1530 62 q 1352 123 1400 62 q 1326 203 1326 159 l 1326 274 l 1256 274 l 1256 205 q 1364 19 1256 77 q 1489 -11 1421 -11 z "},"ඍ":{"ha":1320,"x_min":41,"x_max":1282,"o":"m 1092 0 q 1242 75 1185 0 q 1282 190 1282 126 l 1282 541 q 1168 755 1282 716 q 1103 766 1138 766 l 981 766 l 981 697 l 1103 697 q 1206 600 1184 697 q 1213 538 1213 571 l 1213 190 q 1154 85 1213 121 q 1092 68 1124 68 q 989 125 1025 68 q 970 190 970 156 q 1029 293 970 258 q 1092 311 1059 311 l 1141 311 l 1141 378 l 1092 378 q 936 298 993 378 q 902 190 902 248 q 981 37 902 92 q 1092 0 1031 0 m 41 194 q 133 30 41 84 q 252 -1 186 -1 q 426 81 368 -1 q 429 85 427 84 q 606 -1 488 0 q 783 80 723 -1 q 818 194 818 130 l 818 262 l 746 262 l 746 197 q 662 79 746 106 q 605 71 635 71 q 475 142 506 71 q 464 197 464 167 l 464 262 l 395 262 l 395 197 q 308 79 395 104 q 252 71 282 71 q 122 142 153 71 q 113 197 113 168 l 113 262 l 41 262 l 41 194 m 50 644 l 117 621 q 256 699 146 697 q 385 614 355 699 q 395 560 395 589 l 395 545 l 205 545 q 43 427 58 545 q 41 389 41 410 l 41 328 l 113 328 l 113 385 q 187 476 113 469 q 208 477 197 477 l 651 477 q 743 416 730 477 q 746 385 746 401 l 746 328 l 818 328 l 818 389 q 718 538 818 514 q 654 545 689 545 l 464 545 l 464 560 q 532 682 464 648 q 602 699 562 699 q 742 621 712 697 l 808 644 q 602 766 758 765 q 437 694 492 766 q 429 682 433 688 q 255 766 372 765 q 56 656 106 766 q 50 644 53 650 z "},"ඎ":{"ha":1780,"x_min":41,"x_max":1742,"o":"m 41 194 q 133 30 41 84 q 252 -1 186 -1 q 426 81 368 -1 q 429 85 427 84 q 606 -1 488 0 q 783 80 723 -1 q 818 194 818 130 l 818 262 l 746 262 l 746 197 q 662 79 746 106 q 605 71 635 71 q 475 142 506 71 q 464 197 464 167 l 464 262 l 395 262 l 395 197 q 308 79 395 104 q 252 71 282 71 q 122 142 153 71 q 113 197 113 168 l 113 262 l 41 262 l 41 194 m 50 644 l 117 621 q 256 699 146 697 q 385 614 355 699 q 395 560 395 589 l 395 545 l 205 545 q 43 427 58 545 q 41 389 41 410 l 41 328 l 113 328 l 113 385 q 187 476 113 469 q 208 477 197 477 l 651 477 q 743 416 730 477 q 746 385 746 401 l 746 328 l 818 328 l 818 389 q 718 538 818 514 q 654 545 689 545 l 464 545 l 464 560 q 532 682 464 648 q 602 699 562 699 q 742 621 712 697 l 808 644 q 602 766 758 765 q 437 694 492 766 q 429 682 433 688 q 255 766 372 765 q 56 656 106 766 q 50 644 53 650 m 1092 0 q 1242 75 1185 0 q 1282 190 1282 126 l 1282 541 q 1168 755 1282 716 q 1103 766 1138 766 l 981 766 l 981 697 l 1103 697 q 1206 600 1184 697 q 1213 538 1213 571 l 1213 190 q 1154 85 1213 121 q 1092 68 1124 68 q 989 125 1025 68 q 970 190 970 156 q 1029 293 970 258 q 1092 311 1059 311 l 1141 311 l 1141 378 l 1092 378 q 936 298 993 378 q 902 190 902 248 q 981 37 902 92 q 1092 0 1031 0 m 1552 0 q 1705 76 1648 0 q 1742 190 1742 127 l 1742 541 q 1624 758 1742 720 q 1564 766 1595 766 l 1440 766 l 1440 697 l 1563 697 q 1668 595 1647 697 q 1674 538 1674 570 l 1672 190 q 1614 85 1672 121 q 1552 68 1584 68 q 1449 127 1484 68 q 1431 190 1431 157 q 1488 293 1431 258 q 1552 311 1518 311 l 1600 311 l 1600 378 l 1552 378 q 1396 298 1453 378 q 1362 190 1362 248 q 1440 37 1362 94 q 1552 0 1492 0 z "},"/":{"ha":419,"x_min":56,"x_max":362,"o":"m 56 -19 l 293 983 l 362 983 l 126 -19 l 56 -19 z "}," ":{"ha":324,"x_min":0,"x_max":0,"o":""},"£":{"ha":519,"x_min":27,"x_max":491,"o":"m 27 431 l 27 495 l 110 495 l 110 743 q 187 917 110 857 q 307 955 237 955 l 309 955 q 391 940 355 955 q 491 842 460 910 l 431 814 q 315 887 385 886 q 197 819 233 887 q 180 747 180 787 l 180 496 l 377 496 l 377 433 l 180 433 l 180 64 l 491 64 l 491 0 l 110 0 l 110 431 l 27 431 z "},"∑":{"ha":777,"x_min":41,"x_max":716,"o":"m 218 882 l 170 941 l 170 954 l 716 954 l 716 882 l 218 882 m 41 -190 l 41 -117 l 422 395 l 41 890 l 41 954 l 84 954 l 514 393 l 132 -118 l 716 -117 l 716 -190 l 41 -190 z "},"t":{"ha":354,"x_min":26,"x_max":353,"o":"m 26 627 l 26 696 l 113 696 l 113 952 l 183 952 l 183 696 l 270 696 l 270 627 l 183 627 l 183 218 q 259 79 183 106 q 331 69 290 69 l 336 69 l 353 0 l 324 0 q 125 127 160 1 q 113 231 113 171 l 113 627 l 26 627 z "},"ť":{"ha":393,"x_min":26,"x_max":376,"o":"m 256 754 l 307 960 l 376 960 l 326 754 l 256 754 m 26 627 l 26 696 l 113 696 l 113 952 l 183 952 l 183 696 l 270 696 l 270 627 l 183 627 l 183 218 q 259 79 183 106 q 331 69 290 69 l 336 69 l 353 0 l 324 0 q 125 127 160 1 q 113 231 113 171 l 113 627 l 26 627 z "},"þ":{"ha":572,"x_min":41,"x_max":537,"o":"m 41 -247 l 41 949 l 110 949 l 110 -247 l 41 -247 m 171 635 l 171 700 l 309 700 q 500 608 431 700 q 537 509 537 556 l 537 189 q 476 61 537 118 q 315 0 412 0 l 180 0 l 180 65 l 317 65 q 449 133 408 66 q 469 212 469 168 l 469 495 q 391 618 469 581 q 309 635 354 635 l 171 635 z "},"¾":{"ha":838,"x_min":53,"x_max":803,"o":"m 212 469 l 212 518 q 296 582 283 518 q 298 604 298 593 q 250 681 298 662 q 208 688 231 688 l 193 688 l 193 731 l 208 731 q 297 800 286 731 q 298 815 298 808 q 237 898 298 884 q 212 901 224 901 l 212 949 q 334 878 300 949 q 346 818 346 849 q 293 709 345 745 q 346 601 346 673 q 281 486 346 519 q 212 469 250 469 m 697 0 l 697 475 l 747 475 l 747 130 l 784 130 l 784 83 l 747 83 l 747 0 l 697 0 m 475 83 l 475 130 l 666 456 l 666 361 l 532 130 l 666 130 l 666 83 l 475 83 m 53 593 l 99 604 q 165 519 107 530 q 175 518 171 518 l 175 469 q 66 545 99 475 q 53 593 56 568 m 53 825 q 119 932 60 898 q 175 949 145 947 l 175 901 q 114 863 136 901 q 99 815 102 842 l 53 825 m 160 0 l 746 949 l 803 949 l 217 0 l 160 0 z "},"³":{"ha":307,"x_min":26,"x_max":279,"o":"m 160 525 l 160 566 q 231 609 210 568 q 237 643 237 625 q 193 711 237 692 q 153 718 175 718 l 153 757 q 235 811 217 757 q 237 833 237 822 q 183 905 237 890 q 160 909 172 909 l 160 949 q 266 888 235 949 q 279 834 279 863 q 235 736 278 768 q 279 642 279 705 q 224 543 279 575 q 160 525 194 525 m 26 628 l 65 637 q 70 617 66 627 q 77 601 73 608 q 85 589 80 594 q 94 580 90 583 q 104 574 99 576 q 113 570 109 571 q 120 567 117 568 q 125 566 123 566 l 127 566 l 127 525 q 35 594 61 530 q 26 628 28 612 m 26 846 q 85 937 33 910 q 127 949 106 948 l 127 909 q 81 882 102 909 q 65 838 69 863 l 26 846 z "},"˜":{"ha":452,"x_min":35,"x_max":416,"o":"m 35 179 l 35 243 q 130 273 88 273 q 227 241 164 273 q 308 217 274 217 q 416 255 355 218 l 416 193 q 302 155 354 155 q 202 186 266 155 q 125 209 156 209 q 35 179 83 208 z "},"™":{"ha":617,"x_min":35,"x_max":511,"o":"m 35 916 l 35 948 l 216 948 l 216 916 l 142 916 l 142 658 l 107 658 l 107 916 l 35 916 m 245 658 l 245 871 l 252 871 l 281 804 l 281 658 l 245 658 m 247 935 l 247 948 l 278 948 l 372 722 l 450 894 l 460 894 l 460 836 l 381 658 l 362 658 l 247 935 m 477 658 l 477 948 l 511 948 l 511 658 l 477 658 z "},"²":{"ha":312,"x_min":26,"x_max":285,"o":"m 26 846 q 85 935 33 905 q 134 951 109 948 l 134 909 q 81 880 103 909 q 65 838 69 863 l 26 846 m 33 525 l 33 567 l 278 567 l 278 525 l 33 525 m 33 593 q 151 734 33 677 q 175 746 172 745 q 243 818 236 783 q 244 833 244 825 q 203 901 244 880 q 161 909 184 909 l 161 951 q 279 871 256 951 q 285 831 285 852 q 201 713 283 760 q 178 701 194 709 q 90 635 107 667 q 80 593 80 614 l 33 593 z "},"u":{"ha":617,"x_min":52,"x_max":566,"o":"m 52 189 l 52 707 l 122 707 l 122 197 q 179 100 122 144 q 279 64 224 64 l 279 -7 q 85 92 152 -7 q 52 189 52 142 m 338 -7 l 338 64 q 469 130 422 64 q 494 197 494 164 l 494 707 l 566 707 l 566 189 q 509 66 566 126 q 338 -7 439 -5 z "},"ú":{"ha":617,"x_min":52,"x_max":566,"o":"m 296 792 l 346 998 l 415 998 l 345 792 l 296 792 m 52 189 l 52 707 l 122 707 l 122 197 q 179 100 122 144 q 279 64 224 64 l 279 -7 q 85 92 152 -7 q 52 189 52 142 m 338 -7 l 338 64 q 469 130 422 64 q 494 197 494 164 l 494 707 l 566 707 l 566 189 q 509 66 566 126 q 338 -7 439 -5 z "},"û":{"ha":617,"x_min":52,"x_max":566,"o":"m 182 792 l 283 998 l 332 998 l 435 792 l 378 792 l 308 936 l 239 792 l 182 792 m 52 189 l 52 707 l 122 707 l 122 197 q 179 100 122 144 q 279 64 224 64 l 279 -7 q 85 92 152 -7 q 52 189 52 142 m 338 -7 l 338 64 q 469 130 422 64 q 494 197 494 164 l 494 707 l 566 707 l 566 189 q 509 66 566 126 q 338 -7 439 -5 z "},"ü":{"ha":617,"x_min":52,"x_max":566,"o":"m 189 837 q 218 879 189 867 q 235 882 227 882 q 278 849 269 882 q 279 837 279 844 q 248 793 279 803 q 235 792 241 792 q 191 822 202 792 q 189 837 189 830 m 338 837 q 368 879 338 867 q 384 882 376 882 q 427 849 418 882 q 429 837 429 844 q 397 793 429 803 q 384 792 391 792 q 340 822 351 792 q 338 837 338 830 m 52 189 l 52 707 l 122 707 l 122 197 q 179 100 122 144 q 279 64 224 64 l 279 -7 q 85 92 152 -7 q 52 189 52 142 m 338 -7 l 338 64 q 469 130 422 64 q 494 197 494 164 l 494 707 l 566 707 l 566 189 q 509 66 566 126 q 338 -7 439 -5 z "},"ù":{"ha":617,"x_min":52,"x_max":566,"o":"m 212 998 l 282 998 l 332 792 l 282 792 l 212 998 m 52 189 l 52 707 l 122 707 l 122 197 q 179 100 122 144 q 279 64 224 64 l 279 -7 q 85 92 152 -7 q 52 189 52 142 m 338 -7 l 338 64 q 469 130 422 64 q 494 197 494 164 l 494 707 l 566 707 l 566 189 q 509 66 566 126 q 338 -7 439 -5 z "},"ű":{"ha":617,"x_min":52,"x_max":566,"o":"m 339 792 l 389 998 l 458 998 l 388 792 l 339 792 m 208 792 l 258 998 l 327 998 l 256 792 l 208 792 m 52 189 l 52 707 l 122 707 l 122 197 q 179 100 122 144 q 279 64 224 64 l 279 -7 q 85 92 152 -7 q 52 189 52 142 m 338 -7 l 338 64 q 469 130 422 64 q 494 197 494 164 l 494 707 l 566 707 l 566 189 q 509 66 566 126 q 338 -7 439 -5 z "},"ū":{"ha":617,"x_min":52,"x_max":566,"o":"m 94 792 l 94 841 l 522 841 l 522 792 l 94 792 m 52 189 l 52 707 l 122 707 l 122 197 q 179 100 122 144 q 279 64 224 64 l 279 -7 q 85 92 152 -7 q 52 189 52 142 m 338 -7 l 338 64 q 469 130 422 64 q 494 197 494 164 l 494 707 l 566 707 l 566 189 q 509 66 566 126 q 338 -7 439 -5 z "},"_":{"ha":715,"x_min":53,"x_max":663,"o":"m 53 -214 l 663 -214 l 663 -278 l 53 -278 l 53 -214 z "},"­":{"ha":510,"x_min":28,"x_max":457,"o":"m 28 365 l 28 433 l 457 433 l 457 365 l 28 365 z "},"µ":{"ha":669,"x_min":50,"x_max":614,"o":"m 50 0 l 119 0 l 119 335 q 218 297 180 304 q 275 292 247 292 l 275 357 q 138 397 186 357 q 119 430 121 414 l 119 947 l 50 947 l 50 0 m 332 292 q 507 340 445 292 q 598 294 541 298 q 614 294 606 294 l 614 361 q 560 399 567 361 q 557 430 557 411 l 557 949 l 488 949 l 488 430 q 423 372 488 396 q 332 357 380 357 l 332 292 z "},"Ģ":{"ha":697,"x_min":54,"x_max":644,"o":"m 267 -296 l 317 -90 l 387 -90 l 336 -296 l 267 -296 m 54 260 l 54 711 q 117 860 56 787 q 324 956 198 956 l 324 887 q 168 808 229 886 q 126 689 126 754 l 126 260 q 240 87 126 146 q 324 62 289 62 l 324 -7 q 161 50 240 -7 q 54 260 56 129 m 387 -7 l 387 62 q 503 119 441 62 q 571 258 570 183 l 571 411 l 387 411 l 387 479 l 644 479 l 644 239 q 560 75 644 156 q 387 -7 475 -5 m 387 887 l 387 956 q 574 868 492 958 q 644 700 644 791 l 574 674 q 572 700 574 694 q 460 867 563 814 q 387 887 419 887 z "},"ģ":{"ha":591,"x_min":39,"x_max":537,"o":"m 282 793 l 332 1000 l 401 1000 l 331 793 l 282 793 m 39 -247 l 57 -180 l 305 -180 q 448 -109 400 -176 q 468 -53 468 -80 l 468 66 q 365 5 431 20 q 324 0 345 0 l 324 64 q 435 119 387 64 q 468 193 468 156 l 468 515 q 391 627 468 589 q 324 644 355 644 l 324 711 q 453 665 396 711 q 468 650 463 656 l 468 711 l 537 711 l 537 -53 q 486 -171 537 -110 q 327 -247 422 -245 l 39 -247 m 52 193 l 52 521 q 107 644 53 585 q 263 711 171 711 l 263 644 q 144 578 191 644 q 121 517 121 545 l 121 194 q 168 104 121 148 q 263 66 212 66 l 263 0 q 80 104 141 1 q 52 193 52 151 z "},"Ķ":{"ha":666,"x_min":54,"x_max":639,"o":"m 224 -289 l 274 -83 l 343 -83 l 293 -289 l 224 -289 m 54 0 l 54 949 l 126 949 l 126 0 l 54 0 m 187 463 l 551 949 l 633 949 l 270 463 l 639 0 l 556 0 l 187 463 z "},"ķ":{"ha":628,"x_min":54,"x_max":601,"o":"m 206 -289 l 256 -83 l 326 -83 l 275 -289 l 206 -289 m 54 0 l 54 949 l 126 949 l 126 0 l 54 0 m 157 354 l 505 707 l 601 707 l 254 354 l 601 0 l 505 0 l 157 354 z "},"Ļ":{"ha":591,"x_min":54,"x_max":564,"o":"m 239 -289 l 289 -83 l 358 -83 l 308 -289 l 239 -289 m 54 0 l 54 949 l 126 949 l 126 69 l 564 69 l 564 0 l 54 0 z "},"ļ":{"ha":187,"x_min":0,"x_max":133,"o":"m 0 -290 l 50 -84 l 119 -84 l 69 -290 l 0 -290 m 60 0 l 60 949 l 133 949 l 133 0 l 60 0 z "},"Ņ":{"ha":718,"x_min":57,"x_max":661,"o":"m 286 -289 l 336 -83 l 406 -83 l 355 -289 l 286 -289 m 57 0 l 57 789 l 68 789 l 129 690 l 129 0 l 57 0 m 57 905 l 57 949 l 123 949 l 661 92 l 661 0 l 624 0 l 57 905 m 589 311 l 589 949 l 661 949 l 661 210 l 650 210 l 589 311 z "},"ņ":{"ha":617,"x_min":52,"x_max":566,"o":"m 236 -289 l 286 -83 l 355 -83 l 305 -289 l 236 -289 m 52 0 l 52 518 q 110 644 52 583 q 279 713 179 713 l 279 643 q 153 585 205 643 q 122 510 122 548 l 122 0 l 52 0 m 338 643 l 338 713 q 530 613 460 713 q 566 518 566 563 l 566 0 l 494 0 l 494 510 q 449 597 494 553 q 338 643 401 643 z "},"Ŗ":{"ha":689,"x_min":57,"x_max":651,"o":"m 281 -289 l 331 -83 l 400 -83 l 350 -289 l 281 -289 m 57 0 l 57 949 l 129 949 l 129 0 l 57 0 m 191 426 l 191 494 l 382 494 q 537 601 510 494 q 547 686 547 637 q 434 878 547 845 q 353 887 399 887 l 191 887 l 191 949 l 380 949 q 618 686 617 936 q 525 460 617 515 q 628 294 618 416 l 651 0 l 581 0 l 560 241 q 503 399 549 362 q 396 426 465 427 l 191 426 z "},"ŗ":{"ha":339,"x_min":4,"x_max":313,"o":"m 4 -289 l 54 -83 l 123 -83 l 73 -289 l 4 -289 m 57 0 l 57 709 l 127 709 l 127 598 q 218 688 155 655 q 305 709 260 709 l 313 709 l 296 642 q 174 560 228 642 q 129 418 129 492 l 129 0 l 57 0 z "},"Ş":{"ha":675,"x_min":39,"x_max":637,"o":"m 149 -239 l 149 -178 q 267 -115 232 -178 q 282 -54 282 -87 l 346 -54 q 279 -197 346 -142 q 149 -239 227 -239 m 39 214 l 104 237 q 250 73 129 113 q 293 64 293 64 l 293 -4 q 90 99 171 -4 q 39 214 41 161 m 50 696 q 178 914 50 841 q 293 949 239 949 l 293 882 q 190 837 244 880 q 121 690 122 779 q 267 545 121 589 q 420 511 282 540 q 464 500 448 506 q 623 372 589 463 q 637 277 637 330 q 547 76 637 161 q 355 -4 463 -4 l 355 64 q 481 118 415 64 q 566 282 564 187 q 410 441 566 397 q 266 469 397 444 q 217 481 233 476 q 73 589 107 525 q 50 696 50 633 m 355 882 l 355 949 q 557 838 477 949 q 600 750 593 789 l 532 728 q 499 800 521 769 q 453 846 477 831 q 406 870 429 861 q 369 880 384 879 l 355 882 z "},"ş":{"ha":570,"x_min":27,"x_max":543,"o":"m 229 -239 l 229 -178 q 347 -115 312 -178 q 362 -54 362 -87 l 426 -54 q 359 -197 426 -142 q 229 -239 307 -239 m 27 187 l 95 199 q 170 84 95 129 q 250 60 210 61 l 250 -7 q 65 81 132 -7 q 27 187 27 133 m 33 503 q 142 685 33 627 q 247 712 194 712 l 247 644 q 137 591 183 644 q 102 503 102 552 q 168 430 102 456 q 373 376 194 419 q 391 372 382 373 q 543 225 533 335 q 543 212 543 218 q 444 30 543 91 q 307 -7 382 -7 l 307 60 q 430 110 377 60 q 473 210 473 152 q 361 307 473 271 q 189 349 354 309 q 167 354 176 351 q 34 479 47 389 q 33 503 33 491 m 305 643 l 305 712 q 487 627 419 712 q 530 515 530 574 l 463 505 q 374 625 463 585 q 305 643 336 643 z "},"Ţ":{"ha":640,"x_min":26,"x_max":613,"o":"m 149 -239 l 149 -178 q 267 -115 232 -178 q 282 -54 282 -87 l 346 -54 q 279 -197 346 -142 q 149 -239 227 -239 m 26 880 l 26 949 l 613 949 l 613 880 l 355 880 l 355 0 l 283 0 l 283 880 l 26 880 z "},"ţ":{"ha":354,"x_min":26,"x_max":353,"o":"m 153 -235 l 153 -174 q 271 -111 236 -174 q 286 -50 286 -83 l 350 -50 q 283 -193 350 -138 q 153 -235 231 -235 m 26 627 l 26 696 l 113 696 l 113 952 l 183 952 l 183 696 l 270 696 l 270 627 l 183 627 l 183 218 q 259 79 183 106 q 331 69 290 69 l 336 69 l 353 0 l 324 0 q 125 127 160 1 q 113 231 113 171 l 113 627 l 26 627 z "},"Ș":{"ha":675,"x_min":39,"x_max":637,"o":"m 243 -293 l 293 -87 l 362 -87 l 312 -293 l 243 -293 m 39 214 l 104 237 q 250 73 129 113 q 293 64 293 64 l 293 -4 q 90 99 171 -4 q 39 214 41 161 m 50 696 q 178 914 50 841 q 293 949 239 949 l 293 882 q 190 837 244 880 q 121 690 122 779 q 267 545 121 589 q 420 511 282 540 q 464 500 448 506 q 623 372 589 463 q 637 277 637 330 q 547 76 637 161 q 355 -4 463 -4 l 355 64 q 481 118 415 64 q 566 282 564 187 q 410 441 566 397 q 266 469 397 444 q 217 481 233 476 q 73 589 107 525 q 50 696 50 633 m 355 882 l 355 949 q 557 838 477 949 q 600 750 593 789 l 532 728 q 499 800 521 769 q 453 846 477 831 q 406 870 429 861 q 369 880 384 879 l 355 882 z "},"ș":{"ha":570,"x_min":27,"x_max":543,"o":"m 187 -296 l 237 -90 l 307 -90 l 256 -296 l 187 -296 m 27 187 l 95 199 q 170 84 95 129 q 250 60 210 61 l 250 -7 q 65 81 132 -7 q 27 187 27 133 m 33 503 q 142 685 33 627 q 247 712 194 712 l 247 644 q 137 591 183 644 q 102 503 102 552 q 168 430 102 456 q 373 376 194 419 q 391 372 382 373 q 543 225 533 335 q 543 212 543 218 q 444 30 543 91 q 307 -7 382 -7 l 307 60 q 430 110 377 60 q 473 210 473 152 q 361 307 473 271 q 189 349 354 309 q 167 354 176 351 q 34 479 47 389 q 33 503 33 491 m 305 643 l 305 712 q 487 627 419 712 q 530 515 530 574 l 463 505 q 374 625 463 585 q 305 643 336 643 z "},"Ț":{"ha":640,"x_min":26,"x_max":613,"o":"m 233 -289 l 283 -83 l 353 -83 l 302 -289 l 233 -289 m 26 880 l 26 949 l 613 949 l 613 880 l 355 880 l 355 0 l 283 0 l 283 880 l 26 880 z "},"ț":{"ha":354,"x_min":26,"x_max":353,"o":"m 183 -289 l 233 -83 l 302 -83 l 252 -289 l 183 -289 m 26 627 l 26 696 l 113 696 l 113 952 l 183 952 l 183 696 l 270 696 l 270 627 l 183 627 l 183 218 q 259 79 183 106 q 331 69 290 69 l 336 69 l 353 0 l 324 0 q 125 127 160 1 q 113 231 113 171 l 113 627 l 26 627 z "},"ˉ":{"ha":564,"x_min":68,"x_max":496,"o":"m 68 728 l 68 777 l 496 777 l 496 728 l 68 728 z "},"ℓ":{"ha":252,"x_min":91,"x_max":290,"o":"m 91 235 l 91 949 l 161 949 l 161 235 q 264 65 161 85 q 290 62 277 62 l 290 -7 q 126 83 179 -7 q 91 235 91 142 z "},"Ω":{"ha":579,"x_min":28,"x_max":567,"o":"m 28 -1 l 28 46 l 133 46 q 52 171 65 96 q 49 191 49 182 l 49 510 q 106 631 49 572 q 271 700 172 700 l 271 635 q 137 557 180 635 q 118 492 118 524 l 118 209 q 168 109 118 156 q 271 65 214 65 l 271 -1 l 28 -1 m 330 -1 l 330 65 q 457 141 414 65 q 477 208 477 175 l 477 492 q 429 595 477 549 q 330 635 385 635 l 330 700 q 515 601 452 700 q 547 510 547 553 l 547 191 q 494 73 547 132 q 465 46 480 58 l 567 46 l 567 -1 l 330 -1 z "},"∆":{"ha":675,"x_min":50,"x_max":627,"o":"m 50 0 l 271 827 l 283 827 l 308 719 l 134 69 l 534 69 l 298 956 l 365 956 l 627 0 l 50 0 z "},"∕":{"ha":651,"x_min":4,"x_max":647,"o":"m 4 0 l 590 949 l 647 949 l 61 0 l 4 0 z "},"∙":{"ha":339,"x_min":53,"x_max":171,"o":"m 53 555 q 88 608 53 593 q 111 613 99 613 q 165 576 151 613 q 171 555 171 566 q 134 499 171 515 q 111 495 123 495 q 57 532 73 495 q 53 555 53 544 z "},"圓":{"ha":1143,"x_min":68,"x_max":1085,"o":"m 68 662 l 68 947 l 111 947 l 111 826 l 137 826 l 137 783 l 111 783 l 111 662 l 68 662 m 159 783 l 159 826 l 186 826 l 186 947 l 229 947 l 229 662 l 186 662 l 186 783 l 159 783 m 269 662 l 269 947 l 312 947 l 312 662 l 269 662 m 328 817 l 396 947 l 439 947 l 373 817 l 441 662 l 397 662 l 328 817 m 487 214 l 553 237 q 699 73 578 113 q 742 64 742 64 l 742 -64 l 693 -64 l 693 1 q 522 121 587 22 q 487 214 488 172 m 498 696 q 625 913 498 838 q 693 941 659 932 l 693 1017 l 742 1017 l 742 882 q 639 837 693 880 q 570 690 571 779 q 722 544 570 586 q 742 538 731 541 l 742 464 q 665 481 690 473 q 519 590 553 526 q 498 696 498 635 m 804 -64 l 804 64 q 929 118 863 64 q 1013 282 1012 187 q 853 439 1013 397 q 804 450 830 445 l 804 524 q 911 500 880 511 q 1070 372 1036 463 q 1085 277 1085 330 q 996 76 1085 161 q 852 1 932 16 l 852 -64 l 804 -64 m 804 882 l 804 1017 l 852 1017 l 852 943 q 1020 817 956 920 q 1047 750 1042 779 l 979 728 q 838 875 949 844 q 804 882 804 882 z "},"ų":{"ha":617,"x_min":52,"x_max":566,"o":"m 475 -240 q 297 -138 347 -240 q 278 -56 278 -98 l 342 -56 q 411 -165 342 -134 q 475 -179 441 -179 l 475 -240 m 52 189 l 52 707 l 122 707 l 122 197 q 179 100 122 144 q 279 64 224 64 l 279 -7 q 85 92 152 -7 q 52 189 52 142 m 338 -7 l 338 64 q 469 130 422 64 q 494 197 494 164 l 494 707 l 566 707 l 566 189 q 509 66 566 126 q 338 -7 439 -5 z "},"ů":{"ha":617,"x_min":52,"x_max":566,"o":"m 212 922 q 263 1008 212 979 q 308 1019 285 1019 q 393 967 365 1019 q 404 922 404 945 q 353 837 404 865 q 308 826 331 826 q 222 878 251 826 q 212 922 212 899 m 264 922 q 294 880 264 890 q 308 879 302 879 q 350 909 340 879 q 351 922 351 917 q 321 964 351 955 q 308 966 313 966 q 266 936 275 966 q 264 922 264 928 m 52 189 l 52 707 l 122 707 l 122 197 q 179 100 122 144 q 279 64 224 64 l 279 -7 q 85 92 152 -7 q 52 189 52 142 m 338 -7 l 338 64 q 469 130 422 64 q 494 197 494 164 l 494 707 l 566 707 l 566 189 q 509 66 566 126 q 338 -7 439 -5 z "},"v":{"ha":555,"x_min":14,"x_max":541,"o":"m 14 708 l 92 708 l 313 61 l 290 0 l 254 0 l 14 708 m 297 241 l 463 708 l 541 708 l 345 149 l 328 149 l 297 241 z "},"ඃ":{"ha":522,"x_min":42,"x_max":480,"o":"m 294 -9 l 294 56 q 397 125 370 56 q 407 174 407 148 q 351 278 407 245 q 294 292 326 292 l 294 357 l 313 357 q 461 263 416 357 q 480 174 480 221 q 411 20 480 72 q 313 -9 369 -9 l 294 -9 m 209 -9 q 61 85 103 -9 q 42 174 42 126 q 110 324 42 273 q 209 357 152 357 l 227 357 l 227 292 q 123 221 149 292 q 115 174 115 198 q 170 71 115 102 q 227 56 195 56 l 227 -9 l 209 -9 m 294 404 l 294 469 q 397 538 370 469 q 407 587 407 562 q 351 692 407 659 q 294 705 326 705 l 294 770 l 313 770 q 461 677 416 770 q 480 587 480 635 q 411 434 480 486 q 313 404 369 404 l 294 404 m 209 404 q 61 499 103 404 q 42 587 42 540 q 110 738 42 686 q 209 770 152 770 l 227 770 l 227 705 q 123 635 149 705 q 115 587 115 612 q 170 484 115 515 q 227 469 194 469 l 227 404 l 209 404 z "},"w":{"ha":981,"x_min":14,"x_max":967,"o":"m 14 709 l 256 1 l 293 1 l 313 62 l 92 709 l 14 709 m 297 243 l 328 151 l 345 151 l 491 591 l 694 1 l 731 1 l 751 62 l 530 709 l 450 709 l 297 243 m 735 243 l 766 151 l 783 151 l 967 709 l 888 709 l 735 243 z "},"x":{"ha":521,"x_min":11,"x_max":510,"o":"m 11 0 l 220 359 l 18 709 l 87 709 l 260 423 l 433 708 l 505 708 l 304 359 l 510 0 l 439 0 l 260 298 l 81 0 l 11 0 z "},"y":{"ha":536,"x_min":5,"x_max":530,"o":"m 5 708 l 77 708 l 300 153 l 167 -250 l 96 -250 l 228 153 l 5 708 m 294 309 l 460 708 l 530 708 l 332 225 l 324 225 l 294 309 z "},"ý":{"ha":536,"x_min":5,"x_max":530,"o":"m 255 793 l 305 1000 l 374 1000 l 304 793 l 255 793 m 5 708 l 77 708 l 300 153 l 167 -250 l 96 -250 l 228 153 l 5 708 m 294 309 l 460 708 l 530 708 l 332 225 l 324 225 l 294 309 z "},"ÿ":{"ha":536,"x_min":5,"x_max":530,"o":"m 148 838 q 178 880 148 868 q 194 883 186 883 q 237 850 228 883 q 239 838 239 844 q 208 795 239 804 q 194 793 201 793 q 151 823 161 793 q 148 838 148 831 m 297 838 q 327 880 297 868 q 343 883 335 883 q 387 850 377 883 q 388 838 388 844 q 357 795 388 804 q 343 793 350 793 q 300 823 311 793 q 297 838 297 831 m 5 708 l 77 708 l 300 153 l 167 -250 l 96 -250 l 228 153 l 5 708 m 294 309 l 460 708 l 530 708 l 332 225 l 324 225 l 294 309 z "},"¥":{"ha":613,"x_min":27,"x_max":593,"o":"m 274 0 l 345 0 l 345 222 l 593 222 l 593 273 l 345 273 l 345 349 l 593 349 l 593 397 l 350 397 l 544 947 l 471 947 l 309 490 l 146 947 l 73 947 l 269 397 l 27 397 l 27 349 l 274 349 l 274 273 l 27 273 l 27 222 l 274 222 l 274 0 z "},"z":{"ha":488,"x_min":41,"x_max":448,"o":"m 41 0 l 42 66 l 370 639 l 41 639 l 41 707 l 448 707 l 448 647 l 118 68 l 448 68 l 448 0 l 41 0 z "},"ź":{"ha":488,"x_min":41,"x_max":448,"o":"m 220 792 l 270 998 l 339 998 l 269 792 l 220 792 m 41 0 l 42 66 l 370 639 l 41 639 l 41 707 l 448 707 l 448 647 l 118 68 l 448 68 l 448 0 l 41 0 z "},"ž":{"ha":488,"x_min":41,"x_max":448,"o":"m 119 998 l 176 998 l 247 854 l 316 998 l 373 998 l 271 792 l 222 792 l 119 998 m 41 0 l 42 66 l 370 639 l 41 639 l 41 707 l 448 707 l 448 647 l 118 68 l 448 68 l 448 0 l 41 0 z "},"ż":{"ha":488,"x_min":41,"x_max":448,"o":"m 195 841 q 228 888 195 876 q 244 891 236 891 q 290 857 278 891 q 293 841 293 849 q 262 795 293 807 q 244 792 252 792 q 198 823 210 792 q 195 841 195 833 m 41 0 l 42 66 l 370 639 l 41 639 l 41 707 l 448 707 l 448 647 l 118 68 l 448 68 l 448 0 l 41 0 z "},"‍":{"ha":0,"x_min":-243,"x_max":243,"o":"m -34 11 l 34 11 l 34 774 l 194 663 l 231 715 l 56 836 l 243 966 l 206 1017 l 0 875 l -205 1017 l -243 966 l -56 836 l -231 715 l -193 663 l -34 773 l -34 11 z "},"‌":{"ha":0,"x_min":-35,"x_max":34,"o":"m -35 11 l -35 1027 l 34 1027 l 34 11 l -35 11 z "}}}
